{"glyphs":{"0":{"ha":958,"x_min":124,"x_max":835,"o":"m 833 603 q 835 485 835 540 q 810 217 832 288 q 637 15 703 44 q 322 15 388 -14 q 148 217 169 147 q 124 485 124 431 q 148 753 126 683 q 322 956 256 926 q 637 956 571 986 q 810 753 789 824 m 256 368 q 315 174 258 236 q 644 174 588 111 q 704 485 704 431 q 644 798 700 735 q 315 798 371 861 q 254 485 254 540 z "},"1":{"ha":958,"x_min":171,"x_max":825,"o":"m 211 0 q 185 11 196 0 l 174 88 q 211 125 196 125 l 433 803 q 239 668 254 665 l 181 725 q 188 778 175 768 q 449 971 438 969 l 528 972 q 565 935 565 950 l 788 125 q 825 88 825 103 q 814 11 825 22 l 211 0 z "},"2":{"ha":958,"x_min":142,"x_max":815,"o":"m 579 511 q 642 588 621 549 q 619 812 663 763 q 401 847 435 861 q 308 753 321 785 q 272 665 282 674 l 186 657 q 156 688 156 675 q 243 888 201 844 q 483 986 406 986 q 715 899 676 939 q 794 689 794 750 q 765 540 781 572 q 663 414 699 446 l 778 125 q 815 88 815 103 q 804 11 815 22 l 179 0 q 142 38 142 22 q 149 114 142 103 l 579 511 z "},"3":{"ha":958,"x_min":122,"x_max":828,"o":"m 253 235 q 272 190 260 213 q 376 122 335 133 q 564 122 525 111 q 678 209 661 176 q 679 363 696 332 q 567 440 606 432 l 367 449 q 329 486 329 471 q 337 559 329 549 l 601 847 q 175 858 186 847 l 164 935 q 201 972 186 972 q 775 961 764 972 l 786 885 q 761 838 772 849 q 642 551 585 571 q 805 405 782 457 q 800 160 828 217 q 616 7 679 28 q 322 8 389 -14 q 145 144 167 100 q 131 255 122 246 l 217 264 q 253 235 250 246 z "},"4":{"ha":958,"x_min":96,"x_max":858,"o":"m 607 0 q 581 11 592 0 l 569 229 q 107 240 118 229 l 96 317 q 115 364 106 353 q 578 963 565 954 l 664 972 q 701 935 701 950 l 821 354 q 858 317 858 332 q 847 240 858 251 l 701 229 q 690 11 701 22 l 607 0 m 569 354 l 569 746 l 569 354 z "},"5":{"ha":958,"x_min":126,"x_max":831,"o":"m 257 253 q 336 149 275 188 q 564 124 524 111 q 681 224 664 186 q 681 401 699 363 q 564 501 604 489 q 394 502 425 514 q 306 452 322 464 l 199 440 q 168 471 168 458 q 221 961 210 950 l 738 972 q 775 935 775 950 q 764 858 775 869 l 333 847 q 376 628 335 618 q 615 617 550 639 q 803 449 775 510 q 803 176 831 236 q 615 8 679 31 q 345 6 408 -14 q 157 145 186 96 q 135 274 126 265 l 221 283 q 257 253 253 268 z "},"6":{"ha":958,"x_min":126,"x_max":846,"o":"m 436 649 q 460 653 446 651 q 630 630 564 656 q 819 453 792 514 q 819 189 846 250 q 630 12 696 38 q 342 12 408 -14 q 153 189 181 128 q 135 396 126 361 q 192 519 174 492 l 481 944 q 524 972 504 972 q 623 963 615 972 q 628 931 631 935 l 436 649 m 258 321 q 274 242 258 279 q 391 128 349 146 q 581 128 539 111 q 698 242 682 204 q 698 400 714 363 q 581 513 624 496 q 391 513 433 531 q 274 400 290 438 z "},"7":{"ha":958,"x_min":158,"x_max":799,"o":"m 761 972 q 788 961 776 972 l 799 885 q 783 829 790 844 q 460 10 469 21 l 371 0 q 338 33 338 19 q 342 50 339 43 l 196 847 q 158 885 158 869 q 169 961 158 950 l 761 972 z "},"8":{"ha":958,"x_min":131,"x_max":828,"o":"m 131 276 q 166 408 131 347 q 185 599 214 546 q 181 819 157 769 q 351 965 292 943 q 608 965 549 986 q 778 819 754 869 q 773 599 803 651 q 792 408 756 468 q 802 164 828 217 q 619 9 683 32 q 339 9 403 -14 q 156 164 182 111 m 263 276 q 278 212 263 242 q 391 124 351 138 q 567 124 526 111 q 680 212 664 182 q 680 341 696 311 q 567 428 607 415 q 391 428 431 442 q 278 341 294 371 m 289 714 q 303 656 289 683 q 404 578 369 590 q 555 578 519 567 q 656 656 642 629 q 656 772 671 744 q 555 849 590 838 q 404 849 439 861 q 303 772 318 799 z "},"9":{"ha":958,"x_min":126,"x_max":824,"o":"m 513 333 q 493 331 506 332 q 346 352 408 331 q 156 518 186 457 q 154 789 126 729 q 341 961 278 936 q 620 961 556 986 q 799 789 775 849 q 813 588 824 624 q 749 456 768 486 l 460 28 q 417 0 436 0 q 317 9 325 0 q 312 42 310 38 l 513 333 m 692 658 q 676 739 692 701 q 563 846 603 831 q 387 846 426 861 q 274 739 290 776 q 274 577 258 614 q 387 471 347 486 q 563 471 522 456 q 676 577 660 540 z "},"\u0000":{"ha":0,"x_min":0,"x_max":0,"o":""},"\u001d":{"ha":0,"x_min":0,"x_max":0,"o":""}," ":{"ha":339,"x_min":0,"x_max":0,"o":""}," ":{"ha":339,"x_min":0,"x_max":0,"o":""},"!":{"ha":338,"x_min":92,"x_max":246,"o":"m 232 275 q 221 249 232 260 l 143 238 q 106 275 106 260 q 117 961 106 950 l 194 972 q 232 935 232 950 m 246 38 q 235 11 246 22 l 129 0 q 92 38 92 22 q 103 143 92 132 l 208 154 q 246 117 246 132 z "},"\"":{"ha":519,"x_min":72,"x_max":447,"o":"m 200 717 q 187 688 197 697 l 139 678 q 100 717 103 697 q 81 972 72 957 l 188 986 q 225 936 228 957 m 419 717 q 406 688 417 697 l 358 678 q 319 717 322 697 q 301 972 292 957 l 407 986 q 444 936 447 957 z "},"#":{"ha":957,"x_min":64,"x_max":893,"o":"m 735 718 l 856 718 q 893 681 893 696 q 882 610 893 621 l 717 599 l 819 365 q 857 328 857 343 q 846 257 857 268 l 664 246 q 628 63 638 71 l 546 54 q 515 85 515 72 l 539 246 l 325 83 q 290 54 304 54 q 209 63 218 54 l 200 88 l 101 246 q 64 283 64 268 q 75 354 64 343 l 242 365 l 138 599 q 100 636 100 621 q 111 707 100 696 l 294 718 q 331 901 322 892 l 413 910 q 443 879 443 892 l 419 718 l 635 881 q 668 910 654 910 q 749 901 740 910 l 758 875 m 367 365 l 557 365 l 401 599 z "},"$":{"ha":850,"x_min":50,"x_max":796,"o":"m 482 981 q 603 943 550 971 q 747 804 728 843 q 760 713 769 722 l 681 704 q 638 735 647 715 q 572 812 599 792 q 415 861 467 861 q 278 825 306 843 q 217 717 217 753 q 284 610 249 631 q 506 536 428 557 q 729 434 694 465 q 796 269 796 321 q 710 79 751 115 q 482 -11 553 -4 q 471 -128 482 -117 l 388 -139 q 350 -101 350 -117 q 229 28 283 1 q 74 165 96 124 q 59 266 50 257 l 138 275 q 181 244 172 264 q 253 159 224 179 q 422 111 365 111 q 592 154 558 133 q 664 269 664 233 q 578 378 619 357 q 339 453 415 433 q 142 556 172 522 q 85 717 85 669 q 151 888 118 851 q 350 982 283 974 q 361 1100 350 1089 l 444 1111 q 482 1074 482 1089 z "},"%":{"ha":1107,"x_min":60,"x_max":1046,"o":"m 265 979 q 414 924 364 979 q 469 753 469 767 q 469 701 469 714 q 414 533 464 588 q 117 533 167 479 q 60 701 61 689 q 60 753 60 739 q 117 924 67 869 m 361 782 q 336 850 358 821 q 194 850 217 879 q 167 752 168 764 q 167 707 167 719 q 194 608 172 636 q 336 608 314 579 q 363 707 363 694 q 363 752 363 740 m 842 493 q 990 438 940 493 q 1046 267 1046 281 q 1046 215 1046 228 q 990 47 1040 101 q 693 47 743 -7 q 637 215 638 203 q 637 267 636 253 q 693 438 643 383 m 938 296 q 913 364 935 335 q 771 364 793 393 q 744 266 744 278 q 744 221 743 233 q 771 122 749 150 q 913 122 890 93 q 939 221 939 208 q 939 266 939 254 m 826 946 q 847 965 836 958 l 929 972 q 963 944 963 957 q 957 929 960 933 q 251 7 261 14 l 168 0 q 135 28 135 15 q 140 43 138 39 z "},"&":{"ha":967,"x_min":81,"x_max":940,"o":"m 760 478 q 774 499 763 490 l 860 508 q 890 478 892 489 q 788 185 840 260 q 940 24 940 35 q 915 0 926 0 q 790 5 797 0 l 700 90 q 403 -14 497 -14 q 174 54 218 21 q 81 249 81 185 q 139 404 113 371 q 271 517 233 493 q 169 649 183 621 q 144 758 144 729 q 231 928 193 899 q 407 986 363 986 q 578 925 542 954 q 661 758 661 811 q 478 493 561 549 q 760 478 735 361 m 403 111 q 509 128 457 111 l 364 424 q 260 344 281 365 q 213 249 213 275 q 275 143 247 160 q 403 111 371 111 m 276 757 q 282 718 276 736 q 335 638 314 661 q 435 616 410 599 q 516 701 503 675 q 520 794 529 775 q 456 851 479 842 q 316 831 356 861 z "},"'":{"ha":300,"x_min":72,"x_max":228,"o":"m 200 717 q 187 688 197 697 l 139 678 q 100 717 103 697 q 81 972 72 957 l 188 986 q 225 936 228 957 z "},"(":{"ha":475,"x_min":79,"x_max":440,"o":"m 403 -221 q 240 -181 303 -221 q 92 142 106 19 q 92 717 79 594 q 240 1038 176 999 q 429 1067 418 1078 l 440 996 q 403 958 418 958 q 238 825 258 892 q 206 429 206 560 q 238 33 218 100 q 403 -101 336 -101 q 440 -139 440 -124 q 429 -210 440 -199 z "},")":{"ha":475,"x_min":35,"x_max":396,"o":"m 72 -221 q 46 -210 57 -221 l 35 -139 q 72 -101 57 -101 q 237 33 217 -33 q 269 429 269 299 q 237 825 257 758 q 72 958 139 958 q 35 996 35 981 q 46 1067 35 1056 q 235 1038 172 1078 q 383 717 369 839 q 383 142 396 264 q 235 -181 299 -142 z "},"*":{"ha":617,"x_min":69,"x_max":547,"o":"m 349 836 l 469 907 q 479 913 478 911 q 518 892 514 904 q 541 790 547 801 q 513 772 522 774 l 478 667 q 486 658 485 660 q 479 615 490 622 q 389 563 401 560 l 364 583 l 253 583 q 228 563 240 565 l 138 615 q 131 658 124 650 q 139 667 135 664 l 104 772 q 76 790 82 778 l 99 892 q 138 913 126 915 q 147 907 143 910 l 238 972 q 245 1004 236 994 l 350 1014 q 381 983 381 994 l 349 836 z "},"+":{"ha":853,"x_min":53,"x_max":800,"o":"m 489 360 l 489 83 q 451 46 467 46 q 374 57 385 46 l 363 360 q 64 371 75 360 l 53 440 q 90 478 75 478 l 363 750 q 400 788 385 788 q 478 776 467 788 l 489 478 q 789 467 778 478 l 800 397 q 763 360 778 360 z "},",":{"ha":347,"x_min":65,"x_max":264,"o":"m 93 114 q 110 151 96 133 l 233 168 q 264 138 264 150 l 190 -60 q 131 -104 158 -104 q 74 -95 83 -104 l 65 -71 z "},"-":{"ha":674,"x_min":94,"x_max":579,"o":"m 132 357 q 106 368 117 357 l 94 439 q 132 476 117 476 q 568 465 557 476 l 579 394 q 542 357 557 357 z "},".":{"ha":343,"x_min":88,"x_max":256,"o":"m 218 168 q 244 157 233 168 l 256 38 q 218 0 233 0 q 99 11 110 0 l 88 131 q 125 168 110 168 z "},"/":{"ha":675,"x_min":35,"x_max":640,"o":"m 503 1050 q 524 1078 510 1065 l 610 1092 q 640 1061 640 1074 l 168 -75 q 107 -117 135 -117 q 44 -108 53 -117 q 38 -74 35 -81 z "},":":{"ha":357,"x_min":94,"x_max":263,"o":"m 225 654 q 251 643 240 654 l 263 524 q 225 486 240 486 q 106 497 117 486 l 94 617 q 132 654 117 654 m 225 168 q 251 157 240 168 l 263 38 q 225 0 240 0 q 106 11 117 0 l 94 131 q 132 168 117 168 z "},";":{"ha":389,"x_min":89,"x_max":288,"o":"m 250 654 q 276 643 265 654 l 288 524 q 250 486 265 486 q 131 497 142 486 l 119 617 q 157 654 142 654 m 117 114 q 134 151 119 133 l 257 168 q 288 138 288 150 l 214 -58 q 154 -103 182 -103 q 98 -94 107 -103 l 89 -69 z "},"<":{"ha":679,"x_min":49,"x_max":592,"o":"m 49 515 q 59 548 49 535 l 547 883 q 563 888 560 888 q 592 858 592 871 q 577 760 592 775 l 181 486 q 577 213 563 228 l 592 114 q 563 85 575 85 q 547 89 553 86 q 59 424 69 411 l 49 515 z "},"=":{"ha":790,"x_min":97,"x_max":693,"o":"m 135 531 q 108 542 119 531 l 97 613 q 135 650 119 650 q 682 639 671 650 l 693 568 q 656 531 671 531 m 135 183 q 108 194 119 183 l 97 265 q 135 303 119 303 q 682 292 671 303 l 693 221 q 656 183 671 183 z "},">":{"ha":678,"x_min":86,"x_max":629,"o":"m 629 457 q 619 424 629 438 l 131 89 q 115 85 118 85 q 86 114 86 101 q 101 213 86 197 l 497 486 q 101 760 115 744 l 86 858 q 115 888 103 888 q 131 883 125 886 q 619 548 608 561 l 629 457 z "},"?":{"ha":725,"x_min":40,"x_max":678,"o":"m 438 38 q 426 11 438 22 l 321 0 q 283 38 283 22 q 294 143 283 132 l 400 154 q 438 117 438 132 m 42 715 q 65 809 44 761 q 224 961 164 936 q 488 966 431 986 q 654 828 631 876 q 659 626 678 667 q 551 494 583 521 q 442 376 461 410 l 424 275 q 386 238 401 238 q 308 249 319 238 l 297 304 q 363 474 335 442 q 485 588 457 560 q 551 724 551 681 q 493 831 519 813 q 363 868 399 868 q 168 715 188 796 q 132 685 143 685 q 50 694 60 685 z "},"@":{"ha":1185,"x_min":76,"x_max":1101,"o":"m 1099 311 q 1078 220 1096 258 q 971 122 1007 133 q 792 130 833 110 q 709 146 721 160 q 629 103 658 110 q 455 118 497 96 q 343 269 357 218 q 343 490 329 438 q 455 641 413 618 q 644 643 613 664 l 693 615 q 731 653 715 653 q 801 642 790 653 l 813 319 q 896 222 856 222 q 963 255 953 240 q 982 318 982 303 q 981 488 986 431 q 576 817 760 817 q 325 735 376 776 q 199 488 207 571 q 194 377 194 410 q 199 264 196 283 q 325 19 274 60 q 576 -62 507 -62 q 747 -44 715 -53 q 856 11 831 -7 q 904 32 889 32 q 992 22 981 32 q 993 -28 1003 -18 q 838 -131 888 -111 q 576 -175 658 -175 q 242 -62 310 -118 q 79 257 88 153 q 76 377 76 342 q 79 494 78 476 q 240 814 172 758 q 576 929 482 929 q 948 816 881 871 q 1099 494 1092 599 q 1101 383 1101 408 q 1099 311 1099 319 m 447 379 q 453 320 447 350 q 512 224 489 240 q 667 254 642 208 q 688 449 693 418 q 629 539 653 526 q 512 535 535 551 q 453 439 460 469 z "},"A":{"ha":944,"x_min":22,"x_max":921,"o":"m 713 219 l 231 219 q 143 12 154 24 l 53 0 q 22 31 22 18 l 368 926 q 431 972 403 972 q 556 957 542 972 l 915 50 q 912 9 921 18 l 839 0 q 785 35 789 24 m 279 344 l 664 344 l 279 344 z "},"B":{"ha":926,"x_min":119,"x_max":854,"o":"m 251 442 l 251 125 q 616 138 581 125 q 710 222 699 194 q 711 342 722 313 q 619 428 654 415 l 251 442 m 251 847 l 251 567 q 655 603 608 567 q 655 811 701 775 l 251 847 m 157 0 q 131 11 142 0 l 119 935 q 157 972 142 972 q 676 945 618 972 q 819 793 804 839 q 819 631 833 665 q 749 535 768 549 q 815 420 775 479 q 835 179 854 229 q 681 24 739 49 l 157 0 z "},"C":{"ha":926,"x_min":79,"x_max":864,"o":"m 215 603 q 213 486 213 540 q 285 183 219 254 q 588 128 542 111 q 709 231 693 197 q 747 323 736 315 l 833 331 q 864 300 864 313 q 772 98 818 146 q 475 -14 579 -14 q 192 93 243 43 q 83 363 86 281 q 114 760 86 690 q 314 958 243 929 q 652 954 579 986 q 840 772 818 826 q 855 651 864 660 l 769 642 q 733 672 736 657 q 663 801 693 775 q 475 861 542 861 q 215 603 219 718 z "},"D":{"ha":956,"x_min":119,"x_max":875,"o":"m 874 596 q 875 486 875 533 q 843 219 872 289 q 640 26 711 51 l 157 0 q 119 38 119 22 q 131 961 119 950 l 475 972 q 760 872 707 921 q 874 596 872 683 m 742 589 q 726 685 740 639 q 596 826 647 804 l 251 847 l 476 125 q 683 204 653 168 q 742 383 740 333 q 743 485 743 463 q 742 589 742 557 z "},"E":{"ha":822,"x_min":119,"x_max":756,"o":"m 718 125 q 744 114 733 125 l 756 38 q 718 0 733 0 q 131 11 142 0 l 119 935 q 157 972 142 972 q 733 961 722 972 l 744 885 q 707 847 722 847 l 251 554 q 703 543 692 554 l 714 467 q 676 429 692 429 l 251 125 z "},"F":{"ha":801,"x_min":119,"x_max":746,"o":"m 708 972 q 735 961 724 972 l 746 885 q 708 847 724 847 l 251 526 q 707 515 696 526 l 718 439 q 681 401 696 401 l 251 38 q 214 0 229 0 q 131 11 142 0 l 119 935 q 157 972 142 972 z "},"G":{"ha":950,"x_min":79,"x_max":878,"o":"m 83 613 q 110 757 86 689 q 307 957 233 928 q 647 958 575 986 q 838 802 814 849 q 856 697 865 706 l 776 688 q 698 765 719 736 q 577 849 618 836 q 376 845 424 861 q 238 717 258 765 q 213 490 213 543 q 238 258 217 308 q 376 127 328 143 q 585 125 536 111 q 726 251 706 201 l 746 413 q 519 424 531 413 l 508 500 q 546 538 531 538 q 867 526 856 538 l 878 368 q 774 94 825 144 q 481 -14 575 -14 q 185 97 233 46 q 83 368 86 288 z "},"H":{"ha":992,"x_min":119,"x_max":872,"o":"m 835 972 q 861 961 850 972 l 872 38 q 835 0 850 0 q 751 11 763 0 l 740 429 l 251 38 q 214 0 229 0 q 131 10 142 0 l 119 935 q 157 972 142 972 q 240 961 229 972 l 251 554 l 740 935 q 778 972 763 972 z "},"I":{"ha":371,"x_min":119,"x_max":251,"o":"m 157 0 q 131 11 142 0 l 119 935 q 157 972 142 972 q 240 961 229 972 l 251 38 q 214 0 229 0 z "},"J":{"ha":553,"x_min":47,"x_max":442,"o":"m 47 74 q 58 100 47 89 q 257 175 206 111 l 310 935 q 347 972 332 972 q 431 961 419 972 l 442 340 q 351 85 396 132 q 85 -14 172 -14 q 47 24 47 8 z "},"K":{"ha":832,"x_min":119,"x_max":811,"o":"m 324 507 l 797 56 q 811 31 811 35 q 781 0 793 0 q 663 8 675 0 l 251 396 q 240 11 251 22 l 157 0 q 119 38 119 22 q 131 961 119 950 l 214 972 q 251 935 251 950 l 622 951 q 672 972 653 972 q 774 963 765 972 q 781 931 783 938 l 324 507 z "},"L":{"ha":786,"x_min":119,"x_max":760,"o":"m 722 125 q 749 114 738 125 l 760 38 q 722 0 738 0 q 131 11 142 0 l 119 935 q 157 972 142 972 q 240 961 229 972 l 251 125 z "},"M":{"ha":1103,"x_min":119,"x_max":983,"o":"m 551 385 l 832 928 q 893 972 869 972 q 972 961 961 972 l 983 38 q 946 0 961 0 q 863 11 874 0 l 851 696 q 611 245 624 257 l 525 233 q 468 278 479 257 l 251 38 q 214 0 229 0 q 131 11 142 0 l 119 935 q 157 972 142 972 q 248 958 233 972 l 551 385 z "},"N":{"ha":964,"x_min":119,"x_max":844,"o":"m 758 0 q 726 13 739 0 l 251 721 q 240 11 251 22 l 157 0 q 119 38 119 22 q 131 961 119 950 l 206 972 q 261 931 251 946 l 713 935 q 750 972 735 972 q 833 961 822 972 l 844 38 q 807 0 822 0 z "},"O":{"ha":933,"x_min":79,"x_max":854,"o":"m 83 610 q 110 756 85 688 q 304 956 233 926 q 629 956 558 986 q 823 756 797 825 q 850 363 854 486 q 747 96 796 147 q 467 -14 558 -14 q 186 96 235 44 q 83 363 86 285 m 718 603 q 697 717 715 668 q 566 845 611 829 q 367 845 413 861 q 236 717 256 765 q 213 486 213 540 q 236 256 217 304 q 367 127 322 143 q 566 127 521 111 q 697 256 678 207 q 721 486 721 432 z "},"P":{"ha":889,"x_min":119,"x_max":842,"o":"m 507 972 q 635 955 575 972 q 815 810 788 865 q 815 545 842 601 q 635 396 696 414 l 251 378 q 240 11 251 22 l 157 0 q 119 38 119 22 q 131 961 119 950 l 507 972 m 251 503 l 500 503 q 710 678 710 589 q 500 847 600 847 l 251 503 z "},"Q":{"ha":933,"x_min":79,"x_max":854,"o":"m 83 610 q 110 756 85 688 q 304 956 233 926 q 629 956 558 986 q 823 756 797 825 q 850 363 854 486 q 743 93 793 144 q 849 -53 847 -50 q 842 -82 850 -74 l 757 -90 q 699 -58 706 -67 q 467 -14 564 -14 q 186 96 235 44 q 83 363 86 285 m 718 603 q 697 717 715 668 q 566 845 611 829 q 367 845 413 861 q 236 717 256 765 q 213 486 213 540 q 236 256 217 304 q 367 127 322 143 q 566 127 521 111 q 697 256 678 207 q 721 486 721 432 z "},"R":{"ha":904,"x_min":119,"x_max":842,"o":"m 493 972 q 622 956 561 972 q 801 815 774 869 q 772 506 828 572 l 838 46 q 833 9 842 18 l 751 0 q 692 38 697 28 l 251 392 q 240 11 251 22 l 157 0 q 119 38 119 22 q 131 961 119 950 l 493 972 m 251 517 l 486 517 q 696 685 696 596 q 486 847 586 847 l 251 517 z "},"S":{"ha":858,"x_min":53,"x_max":799,"o":"m 418 986 q 567 960 503 986 q 746 813 722 857 q 763 713 772 722 l 683 704 q 640 735 650 715 q 574 812 601 792 q 418 861 469 861 q 281 825 308 843 q 219 717 219 753 q 287 610 251 631 q 508 536 431 557 q 732 434 697 465 q 799 269 799 321 q 696 65 744 103 q 425 -14 510 -14 q 160 71 208 33 q 53 244 54 200 q 83 275 71 275 q 165 269 154 275 q 209 202 192 225 q 326 125 285 139 q 517 122 474 111 q 647 204 628 175 q 644 331 667 306 q 478 416 539 399 q 224 497 272 471 q 101 629 114 589 q 108 817 88 768 q 273 963 211 940 z "},"T":{"ha":790,"x_min":32,"x_max":758,"o":"m 721 972 q 747 961 736 972 l 758 885 q 721 847 736 847 l 461 38 q 424 0 439 0 q 340 11 351 0 l 329 847 q 43 858 54 847 l 32 935 q 69 972 54 972 z "},"U":{"ha":969,"x_min":111,"x_max":858,"o":"m 821 972 q 847 961 836 972 l 858 379 q 770 97 815 150 q 485 -14 583 -14 q 198 97 243 44 q 111 379 111 293 q 122 961 111 950 l 206 972 q 243 935 243 950 q 307 170 243 236 q 663 170 599 104 l 728 935 q 765 972 750 972 z "},"V":{"ha":899,"x_min":44,"x_max":853,"o":"m 717 938 q 732 960 721 949 l 822 972 q 853 942 853 954 l 550 56 q 476 0 504 0 q 375 15 393 0 l 47 928 q 53 963 44 954 l 126 972 q 181 938 176 949 l 717 938 z "},"W":{"ha":1100,"x_min":56,"x_max":1044,"o":"m 574 757 q 608 742 599 757 l 774 167 q 932 964 919 956 l 1014 972 q 1044 942 1044 954 l 872 72 q 804 0 838 0 q 701 20 717 0 l 550 536 q 399 20 414 40 l 296 0 q 228 72 235 38 q 56 942 56 938 q 86 972 74 972 q 168 964 156 972 l 326 167 q 492 742 482 726 l 574 757 z "},"X":{"ha":886,"x_min":32,"x_max":854,"o":"m 440 390 l 179 32 q 122 0 150 0 q 41 9 50 0 q 33 37 32 33 l 364 496 q 46 942 46 935 q 76 972 64 972 q 182 958 169 972 l 447 599 q 707 958 694 943 l 807 972 q 838 942 838 954 l 524 493 q 853 37 853 40 q 845 9 854 18 l 758 0 q 701 32 708 24 z "},"Y":{"ha":893,"x_min":42,"x_max":851,"o":"m 513 38 q 501 11 513 22 l 418 0 q 381 38 381 22 l 49 922 q 51 963 42 954 l 132 972 q 190 938 183 950 l 703 938 q 761 972 733 972 q 842 963 833 972 q 844 922 851 935 l 513 38 z "},"Z":{"ha":831,"x_min":54,"x_max":776,"o":"m 739 125 q 765 114 754 125 l 776 38 q 739 0 754 0 q 65 11 76 0 l 54 88 q 75 136 71 129 l 106 847 q 68 885 68 869 q 79 961 68 950 l 725 972 q 763 935 763 950 q 757 859 763 869 l 226 125 z "},"[":{"ha":479,"x_min":100,"x_max":443,"o":"m 138 -221 q 111 -210 122 -221 l 100 1040 q 138 1078 122 1078 q 432 1067 421 1078 l 443 996 q 406 958 421 958 l 226 -101 q 432 -112 421 -101 l 443 -183 q 406 -221 421 -221 z "},"\\":{"ha":675,"x_min":35,"x_max":640,"o":"m 638 -74 q 640 -86 640 -81 q 610 -117 622 -117 q 526 -103 540 -117 l 38 1049 q 44 1083 35 1074 l 111 1092 q 172 1050 165 1065 z "},"]":{"ha":479,"x_min":36,"x_max":379,"o":"m 74 -221 q 47 -210 58 -221 l 36 -139 q 74 -101 58 -101 l 253 958 q 47 969 58 958 l 36 1040 q 74 1078 58 1078 q 368 1067 357 1078 l 379 -183 q 342 -221 357 -221 z "},"^":{"ha":569,"x_min":85,"x_max":485,"o":"m 299 1021 q 325 1015 314 1021 l 478 867 q 463 826 485 826 q 411 830 419 826 l 285 913 q 158 830 167 833 l 107 826 q 92 867 85 860 q 244 1015 233 1010 l 299 1021 z "},"_":{"ha":1038,"x_min":82,"x_max":956,"o":"m 119 -60 q 93 -49 104 -60 l 82 22 q 119 60 104 60 q 944 49 933 60 l 956 -22 q 918 -60 933 -60 z "},"`":{"ha":460,"x_min":90,"x_max":383,"o":"m 376 867 q 383 849 383 860 l 310 826 q 251 850 263 840 q 90 993 90 983 l 219 1021 q 271 994 256 1013 z "},"a":{"ha":758,"x_min":53,"x_max":660,"o":"m 53 182 q 75 279 53 238 q 227 397 175 379 l 533 457 q 487 581 533 546 q 278 594 310 617 q 207 526 217 531 l 139 522 q 101 560 100 544 q 184 679 147 654 q 371 736 317 736 q 578 665 540 700 q 660 461 660 528 q 649 11 660 22 l 571 0 q 533 38 533 22 q 494 48 521 68 q 363 -7 400 0 q 195 1 240 -14 q 70 104 88 68 m 308 106 q 400 121 358 106 q 517 228 501 190 l 533 346 q 231 275 282 306 q 186 165 179 181 q 248 114 224 122 z "},"b":{"ha":831,"x_min":104,"x_max":763,"o":"m 446 736 q 567 713 511 736 q 732 544 707 606 q 763 362 763 386 q 732 179 757 240 q 567 9 624 32 q 310 15 361 -14 l 231 38 q 193 0 208 0 q 115 11 126 0 l 104 949 q 142 986 126 986 q 219 975 208 986 l 231 642 q 446 736 360 736 m 231 301 q 292 158 238 211 q 576 164 524 106 q 635 400 636 361 q 432 617 524 617 q 231 411 239 510 q 231 301 228 322 z "},"c":{"ha":771,"x_min":68,"x_max":710,"o":"m 197 313 q 222 218 203 257 q 328 117 294 129 q 510 131 463 106 q 603 244 593 236 l 671 251 q 708 214 710 229 q 627 67 667 101 q 396 -14 472 -14 q 160 79 201 36 q 71 306 74 239 q 71 417 68 393 q 163 643 122 600 q 396 736 319 736 q 627 655 588 689 q 708 508 707 542 q 671 471 686 471 q 603 478 614 471 q 510 592 557 567 q 327 605 361 617 q 220 504 239 543 q 197 313 193 358 z "},"d":{"ha":831,"x_min":68,"x_max":726,"o":"m 385 736 q 522 706 471 736 l 600 949 q 638 986 622 986 q 715 975 704 986 l 726 38 q 689 0 704 0 q 611 11 622 0 l 600 81 q 385 -14 469 -14 q 165 75 207 32 q 69 317 74 240 q 69 407 68 386 q 165 648 124 606 q 385 736 319 736 m 600 301 q 601 356 601 322 q 541 563 596 510 q 254 558 307 617 q 196 322 194 361 q 399 106 307 106 q 600 301 596 211 z "},"e":{"ha":774,"x_min":64,"x_max":710,"o":"m 71 431 q 101 550 76 494 q 263 713 207 689 q 523 712 464 736 q 688 531 665 596 l 710 347 q 672 310 688 310 l 194 301 q 389 106 307 106 q 565 175 542 149 q 610 194 593 194 q 679 183 667 194 q 665 102 685 132 q 517 3 572 21 q 264 10 319 -14 q 101 177 126 119 q 71 431 64 367 m 194 426 l 585 426 q 531 566 585 515 q 314 603 349 617 q 211 507 226 542 l 194 426 z "},"f":{"ha":542,"x_min":26,"x_max":535,"o":"m 307 722 l 483 722 q 521 685 521 700 q 510 614 521 625 l 307 603 q 296 11 307 22 l 218 0 q 181 38 181 22 l 64 603 q 26 640 26 625 q 38 711 26 700 l 181 722 q 235 969 181 910 l 497 1028 q 535 990 535 1006 q 524 919 535 931 l 424 908 q 329 874 342 890 q 307 785 307 811 z "},"g":{"ha":831,"x_min":68,"x_max":726,"o":"m 69 407 q 99 544 74 483 q 263 713 207 690 q 522 706 471 736 l 600 685 q 638 722 622 722 q 715 711 704 722 l 726 10 q 399 -306 563 -306 q 159 -235 197 -265 q 82 -99 83 -132 q 119 -61 104 -61 q 187 -69 176 -61 q 220 -122 211 -107 q 302 -176 269 -165 q 470 -177 431 -186 q 584 -92 568 -126 l 600 81 q 385 -14 469 -14 q 165 74 207 32 q 69 315 74 239 q 69 407 68 386 m 600 411 q 541 563 596 510 q 254 558 307 617 q 196 322 194 361 q 399 106 307 106 q 600 311 596 214 q 600 411 601 390 z "},"h":{"ha":843,"x_min":104,"x_max":746,"o":"m 746 38 q 735 11 746 22 l 657 0 q 619 38 619 22 q 568 564 619 511 q 284 564 338 617 l 231 38 q 193 0 208 0 q 115 11 126 0 l 104 949 q 142 986 126 986 q 219 975 208 986 l 231 642 q 446 736 361 736 q 662 653 622 693 q 746 425 746 497 z "},"i":{"ha":335,"x_min":90,"x_max":244,"o":"m 231 38 q 219 11 231 22 l 142 0 q 104 38 104 22 q 115 711 104 700 l 193 722 q 231 685 231 700 m 244 869 q 233 843 244 854 l 128 832 q 90 869 90 854 q 101 975 90 964 l 207 986 q 244 949 244 964 z "},"j":{"ha":347,"x_min":-50,"x_max":257,"o":"m 117 685 q 128 711 117 700 l 206 722 q 243 685 243 700 q 189 -201 243 -139 l -12 -264 q -50 -226 -50 -242 q -39 -156 -50 -167 l 0 -144 q 94 -110 82 -126 q 117 -21 117 -47 m 257 869 q 246 843 257 854 l 140 832 q 103 869 103 854 q 114 975 103 964 l 219 986 q 257 949 257 964 z "},"k":{"ha":710,"x_min":104,"x_max":692,"o":"m 231 306 l 231 38 q 193 0 208 0 q 115 11 126 0 l 104 949 q 142 986 126 986 q 219 975 208 986 l 231 489 q 523 714 510 706 l 625 722 q 658 689 658 703 q 643 661 654 669 l 678 60 q 692 33 692 40 q 658 0 672 0 q 558 8 572 0 l 231 306 z "},"l":{"ha":335,"x_min":104,"x_max":231,"o":"m 231 38 q 219 11 231 22 l 142 0 q 104 38 104 22 q 115 975 104 964 l 193 986 q 231 949 231 964 z "},"m":{"ha":1236,"x_min":104,"x_max":1139,"o":"m 231 642 q 260 676 243 658 q 349 728 319 719 q 557 705 501 736 q 683 663 663 640 q 791 727 757 718 q 1075 652 1011 736 l 1139 38 q 1101 0 1117 0 q 1024 11 1035 0 l 1013 408 q 849 617 929 617 q 685 418 685 519 q 674 11 685 22 l 596 0 q 558 38 558 22 q 517 566 558 515 q 276 568 321 617 l 231 38 q 193 0 208 0 q 115 11 126 0 l 104 685 q 142 722 126 722 q 219 711 208 722 l 231 642 z "},"n":{"ha":843,"x_min":104,"x_max":746,"o":"m 746 38 q 735 11 746 22 l 657 0 q 619 38 619 22 q 568 564 619 511 q 284 564 338 617 l 231 38 q 193 0 208 0 q 115 11 126 0 l 104 685 q 142 722 126 722 q 219 711 208 722 l 231 642 q 446 736 361 736 q 662 653 622 693 q 746 425 746 497 z "},"o":{"ha":801,"x_min":68,"x_max":731,"o":"m 400 736 q 533 713 475 736 q 699 552 675 610 q 731 397 731 414 q 731 324 731 342 q 699 169 722 226 q 533 9 592 32 q 267 9 325 -14 q 101 169 125 113 q 69 324 69 307 q 69 397 68 379 q 101 552 76 494 q 267 713 208 690 m 603 303 q 606 360 606 326 q 585 497 599 461 q 485 601 521 586 q 315 601 351 617 q 215 497 229 533 q 194 360 194 394 q 215 225 201 261 q 315 121 279 136 q 485 121 449 106 q 585 225 571 189 z "},"p":{"ha":831,"x_min":104,"x_max":763,"o":"m 446 -14 q 308 16 360 -14 l 231 -226 q 193 -264 208 -264 q 115 -253 126 -264 l 104 685 q 142 722 126 722 q 219 711 208 722 l 231 642 q 446 736 361 736 q 665 647 624 690 q 761 406 757 482 q 761 315 763 336 q 665 74 707 117 q 446 -14 511 -14 m 231 421 q 229 366 229 400 q 290 159 235 213 q 576 164 524 106 q 635 400 636 361 q 432 617 524 617 q 231 421 235 511 z "},"q":{"ha":831,"x_min":68,"x_max":726,"o":"m 385 -14 q 263 9 319 -14 q 99 178 124 117 q 68 360 68 336 q 99 543 74 482 q 263 713 207 690 q 521 708 469 736 l 600 685 q 638 722 622 722 q 715 711 704 722 l 726 -226 q 689 -264 704 -264 q 611 -253 622 -264 l 600 81 q 385 -14 471 -14 m 600 421 q 540 564 596 511 q 254 558 307 617 q 196 322 194 361 q 399 106 307 106 q 600 311 596 213 q 600 421 601 400 z "},"r":{"ha":525,"x_min":104,"x_max":508,"o":"m 471 722 q 497 711 486 722 l 508 640 q 471 603 486 603 q 231 443 231 603 q 219 11 231 22 l 142 0 q 104 38 104 22 q 115 711 104 700 l 193 722 q 231 685 231 700 q 297 703 258 683 l 471 722 z "},"s":{"ha":703,"x_min":60,"x_max":642,"o":"m 515 200 q 501 244 515 226 q 383 297 428 286 q 120 399 165 344 q 92 607 75 569 q 226 719 175 703 q 463 721 413 736 q 601 631 583 658 q 610 553 622 564 l 538 542 q 496 561 506 549 q 344 617 407 617 q 201 528 201 569 q 249 458 224 469 q 417 413 356 426 q 593 328 567 356 q 642 200 642 236 q 564 51 601 81 q 351 -14 419 -14 q 140 44 178 19 q 61 150 63 125 q 99 188 82 188 q 168 185 157 188 q 250 122 211 139 q 412 113 382 106 q 501 162 488 144 z "},"t":{"ha":556,"x_min":26,"x_max":521,"o":"m 293 243 q 298 194 293 217 q 351 128 328 138 l 483 119 q 521 82 521 97 q 510 11 521 22 l 396 0 q 167 243 167 125 l 64 603 q 26 640 26 625 q 38 711 26 700 l 167 722 q 178 975 167 964 l 256 986 q 293 949 293 964 l 469 722 q 507 685 507 700 q 496 614 507 625 l 293 603 z "},"u":{"ha":829,"x_min":97,"x_max":725,"o":"m 97 685 q 108 711 97 700 l 186 722 q 224 685 224 700 q 272 158 224 211 q 549 158 499 106 l 599 685 q 636 722 621 722 q 714 711 703 722 l 725 38 q 688 0 703 0 q 610 11 621 0 l 599 81 q 390 -14 475 -14 q 178 69 217 29 q 97 297 97 224 z "},"v":{"ha":778,"x_min":43,"x_max":735,"o":"m 364 0 q 336 11 346 0 l 44 679 q 53 713 43 703 l 128 722 q 174 689 169 700 l 604 689 q 644 722 628 722 q 725 713 715 722 q 733 679 735 683 q 442 11 451 22 l 364 0 z "},"w":{"ha":1117,"x_min":51,"x_max":1065,"o":"m 783 225 l 939 689 q 986 722 965 722 q 1056 713 1046 722 q 1064 678 1065 683 q 837 11 846 22 l 767 0 q 724 39 731 24 l 393 39 q 350 0 368 0 q 280 11 289 0 l 53 678 q 61 713 51 703 l 131 722 q 178 689 174 700 l 500 689 q 543 722 522 722 q 603 711 594 722 l 783 225 z "},"x":{"ha":761,"x_min":40,"x_max":718,"o":"m 378 272 l 182 26 q 138 0 156 0 q 50 10 60 0 q 46 51 40 43 l 60 671 q 64 713 54 703 l 154 722 q 199 696 193 703 l 567 696 q 611 722 593 722 q 699 713 689 722 q 703 671 708 679 l 713 51 q 708 10 718 19 l 618 0 q 574 26 579 19 z "},"y":{"ha":774,"x_min":44,"x_max":736,"o":"m 317 -231 q 303 -253 313 -242 l 219 -264 q 186 -231 186 -244 l 321 69 q 44 689 44 683 q 78 722 64 722 q 161 711 151 722 l 389 217 q 619 711 610 700 l 703 722 q 736 689 736 703 l 317 -231 z "},"z":{"ha":710,"x_min":58,"x_max":658,"o":"m 621 119 q 647 108 636 119 l 658 38 q 621 0 636 0 q 69 11 81 0 l 58 92 q 78 132 68 121 l 110 603 q 72 640 72 625 q 83 711 72 700 l 593 722 q 631 685 631 700 q 624 610 631 618 l 226 119 z "},"{":{"ha":528,"x_min":32,"x_max":493,"o":"m 276 210 q 288 64 276 124 q 378 -86 344 -69 q 482 -114 471 -103 l 493 -185 q 456 -222 471 -222 q 231 -115 269 -167 q 150 174 150 83 q 76 357 124 335 l 32 444 q 137 567 124 522 q 171 846 150 772 q 326 1050 269 1022 q 482 1067 471 1078 l 493 996 q 456 958 471 958 q 322 888 344 925 q 276 646 276 732 q 178 429 228 454 q 276 210 276 286 z "},"|":{"ha":329,"x_min":101,"x_max":228,"o":"m 228 -251 q 217 -278 228 -267 l 139 -289 q 101 -251 101 -267 q 113 1233 101 1222 l 190 1244 q 228 1207 228 1222 z "},"}":{"ha":528,"x_min":35,"x_max":496,"o":"m 251 210 q 276 345 251 286 q 276 512 300 454 q 240 792 251 732 q 149 942 183 925 q 46 969 57 958 l 35 1040 q 72 1078 57 1078 q 297 971 258 1022 q 378 682 378 772 q 451 500 404 522 l 496 413 q 391 290 404 335 q 357 10 378 83 q 201 -194 258 -167 q 46 -211 57 -222 l 35 -140 q 72 -103 57 -103 q 206 -33 183 -69 q 251 210 251 124 z "},"~":{"ha":779,"x_min":99,"x_max":682,"o":"m 244 501 q 329 494 296 501 q 451 459 419 467 q 588 463 563 451 q 635 491 629 488 q 676 485 671 496 l 682 425 q 529 332 600 332 q 383 357 411 347 q 243 382 292 382 q 157 350 168 360 q 129 338 139 339 q 99 375 99 360 q 136 473 99 444 z "},"¡":{"ha":326,"x_min":86,"x_max":240,"o":"m 100 447 q 111 474 100 463 l 189 485 q 226 447 226 463 q 215 -239 226 -228 l 138 -250 q 100 -212 100 -228 m 86 685 q 97 711 86 700 l 203 722 q 240 685 240 700 q 229 579 240 590 l 124 568 q 86 606 86 590 z "},"¢":{"ha":781,"x_min":74,"x_max":715,"o":"m 203 313 q 227 218 208 257 q 333 117 300 129 q 515 131 468 106 q 609 244 599 236 l 676 251 q 714 214 715 229 q 647 80 679 113 q 457 -10 519 -1 q 446 -128 457 -117 l 369 -139 q 332 -101 332 -117 q 225 30 271 1 q 97 194 114 142 q 74 360 75 328 q 99 527 81 475 q 226 691 181 663 l 332 810 q 369 847 354 847 q 446 836 435 847 l 457 732 q 647 642 614 674 q 714 508 713 538 q 676 471 692 471 q 609 478 619 471 q 515 592 563 567 q 333 605 367 617 q 226 504 244 543 q 203 313 199 358 z "},"£":{"ha":942,"x_min":64,"x_max":872,"o":"m 315 603 q 317 565 315 583 l 599 528 l 629 461 l 338 431 q 363 258 361 303 q 513 171 481 196 q 643 108 607 108 q 742 224 736 175 q 778 254 767 254 q 863 245 854 254 q 858 135 871 178 q 747 5 790 25 q 533 10 581 -15 q 372 119 407 94 q 225 112 247 144 q 183 8 194 15 l 97 0 q 67 31 67 18 q 106 174 86 143 q 231 260 188 250 q 206 431 214 388 q 64 461 64 431 q 94 528 64 528 q 183 603 183 563 q 269 878 226 828 q 518 986 436 986 q 781 874 742 922 q 857 672 856 718 q 826 642 839 642 q 740 649 751 642 q 703 741 718 707 q 606 844 642 828 q 427 842 465 861 q 327 708 339 756 z "},"¤":{"ha":819,"x_min":85,"x_max":735,"o":"m 104 417 q 117 506 104 463 l 97 640 q 97 693 86 682 q 160 742 144 742 l 243 672 q 410 722 364 722 l 633 731 q 686 731 675 742 q 733 667 733 682 l 665 585 q 715 417 715 463 q 665 250 689 286 q 735 167 735 182 l 686 104 q 633 104 644 93 q 499 124 542 138 q 242 161 315 111 q 160 93 175 93 l 96 140 q 96 193 85 182 q 117 328 129 286 m 231 417 q 244 347 231 379 q 340 251 307 265 q 480 251 447 238 q 575 347 561 314 q 575 487 589 454 q 480 582 513 568 q 340 582 372 596 q 244 487 258 519 z "},"¥":{"ha":858,"x_min":42,"x_max":817,"o":"m 342 428 l 49 922 q 51 963 42 954 l 132 972 q 190 938 182 949 l 668 938 q 726 972 699 972 q 808 963 799 972 q 810 922 817 935 l 700 428 l 731 361 l 494 331 l 700 261 l 731 194 l 494 164 q 483 11 494 22 l 401 0 q 364 38 364 22 l 158 164 l 128 231 l 364 261 l 158 331 l 128 397 l 342 428 z "},"¦":{"ha":338,"x_min":106,"x_max":232,"o":"m 232 697 q 221 671 232 682 l 143 660 q 106 697 106 682 q 117 1140 106 1129 l 194 1151 q 232 1114 232 1129 m 232 38 q 221 11 232 22 l 143 0 q 106 38 106 22 q 117 481 106 469 l 194 492 q 232 454 232 469 z "},"§":{"ha":789,"x_min":58,"x_max":731,"o":"m 731 343 q 704 225 731 272 q 657 35 657 101 q 588 -122 622 -90 q 383 -194 451 -194 q 169 -127 204 -156 q 96 -7 97 -33 q 133 31 117 31 q 199 28 188 31 q 244 -19 231 -3 q 322 -67 296 -60 q 488 -47 446 -75 q 522 70 531 53 q 412 147 461 125 q 167 252 211 224 q 67 377 75 343 q 84 565 58 518 q 139 696 146 668 q 149 840 132 799 q 286 966 235 946 q 531 967 478 986 q 674 858 656 890 q 683 772 694 783 l 613 761 q 575 776 582 765 q 513 839 532 826 q 406 867 442 867 q 258 757 258 810 q 301 685 275 704 q 507 593 426 622 q 690 480 665 511 q 731 343 731 381 m 185 450 q 193 404 185 425 q 294 323 250 343 q 471 255 442 267 q 581 275 558 249 q 596 388 604 367 q 495 469 539 449 q 317 536 346 524 q 208 515 231 542 z "},"¨":{"ha":586,"x_min":90,"x_max":496,"o":"m 244 871 q 233 844 244 856 l 128 833 q 90 871 90 856 q 101 976 90 965 l 207 988 q 244 950 244 965 m 496 871 q 485 844 496 856 l 379 833 q 342 871 342 856 q 353 976 342 965 l 458 988 q 496 950 496 965 z "},"©":{"ha":1142,"x_min":71,"x_max":1071,"o":"m 458 535 q 457 488 457 514 q 465 399 460 419 q 517 338 496 347 q 633 341 607 329 q 690 403 685 393 l 769 413 q 785 328 800 357 q 671 235 714 251 q 403 280 463 219 q 340 488 340 461 q 403 695 344 635 q 671 740 628 756 q 785 647 771 675 q 769 563 800 563 q 690 572 694 563 q 633 634 658 622 q 517 637 538 646 q 465 576 471 596 m 71 486 q 110 681 71 590 q 376 947 285 907 q 766 947 675 986 q 1031 681 992 772 q 1031 291 1071 382 q 766 26 857 65 q 376 26 467 -14 q 110 291 150 200 m 175 486 q 206 329 175 403 q 415 115 343 147 q 726 115 654 83 q 936 329 906 256 q 936 643 967 569 q 726 857 799 825 q 415 857 488 889 q 206 643 236 717 z "},"ª":{"ha":507,"x_min":68,"x_max":417,"o":"m 219 679 q 292 708 268 679 l 254 761 q 179 710 179 725 m 347 603 q 317 633 317 603 q 272 610 306 624 q 145 606 169 596 q 77 665 86 646 q 81 756 68 733 q 170 821 140 810 l 317 849 q 306 876 313 869 q 254 894 275 894 q 206 881 214 886 q 171 867 182 867 q 105 872 114 867 q 110 915 99 900 q 191 969 161 960 q 376 942 336 979 l 417 633 l 347 603 z "},"«":{"ha":825,"x_min":63,"x_max":749,"o":"m 406 496 q 425 535 406 518 q 711 806 706 806 q 740 798 731 807 l 749 713 q 724 650 738 664 l 724 264 q 749 201 749 225 q 740 116 749 125 q 711 108 717 107 l 425 379 l 406 496 m 63 496 q 82 535 63 518 q 368 806 363 806 q 397 798 388 807 l 406 713 q 381 650 394 664 l 381 264 q 406 201 406 225 q 397 116 406 125 q 368 108 374 107 l 82 379 l 63 496 z "},"¬":{"ha":808,"x_min":94,"x_max":704,"o":"m 578 367 l 132 367 q 94 404 94 389 q 106 475 94 464 l 667 486 q 704 449 704 464 q 693 201 704 213 l 615 190 q 578 228 578 213 z "},"®":{"ha":1142,"x_min":71,"x_max":1071,"o":"m 404 233 q 374 264 374 233 q 404 742 374 742 q 690 728 653 742 q 780 639 771 669 q 771 486 789 525 l 790 283 q 788 243 796 253 l 708 233 q 668 260 675 247 l 490 406 q 460 233 490 233 m 490 515 l 597 515 q 672 574 672 542 q 597 632 636 632 l 490 515 m 71 486 q 110 681 71 590 q 376 947 285 907 q 766 947 675 986 q 1031 681 992 772 q 1031 291 1071 382 q 766 26 857 65 q 376 26 467 -14 q 110 291 150 200 m 175 486 q 206 329 175 403 q 415 115 343 147 q 726 115 654 83 q 936 329 906 256 q 936 643 967 569 q 726 857 799 825 q 415 857 488 889 q 206 643 236 717 z "},"¯":{"ha":560,"x_min":90,"x_max":469,"o":"m 128 840 q 101 851 113 840 l 90 922 q 128 960 113 960 q 458 949 447 960 l 469 878 q 432 840 447 840 z "},"°":{"ha":544,"x_min":63,"x_max":482,"o":"m 167 785 q 196 708 167 738 q 349 708 319 679 q 349 861 378 832 q 196 861 225 890 m 63 785 q 79 865 63 828 q 191 972 153 957 q 353 972 315 988 q 465 865 449 903 q 465 704 482 742 q 353 597 392 613 q 191 597 229 582 q 79 704 96 667 z "},"±":{"ha":758,"x_min":75,"x_max":683,"o":"m 140 0 q 114 11 125 0 l 103 82 q 140 119 125 119 q 644 108 633 119 l 656 38 q 618 0 633 0 m 442 499 l 442 292 q 404 254 419 254 q 326 265 338 254 l 315 499 q 86 510 97 499 l 75 579 q 113 617 97 617 l 315 819 q 353 857 338 857 q 431 846 419 857 l 442 617 q 672 606 661 617 l 683 536 q 646 499 661 499 z "},"²":{"ha":481,"x_min":39,"x_max":439,"o":"m 39 486 m 39 550 q 44 572 39 561 q 183 671 136 640 q 299 775 286 753 q 297 863 313 846 q 188 863 204 879 q 150 816 157 821 l 85 811 q 75 885 63 860 q 165 965 132 951 q 313 967 279 979 q 405 884 392 913 q 408 760 418 789 q 315 649 351 678 l 408 586 l 439 517 l 69 486 l 39 550 z "},"³":{"ha":478,"x_min":32,"x_max":429,"o":"m 32 479 m 413 913 q 409 887 413 897 l 306 774 q 429 635 429 693 q 235 479 333 479 q 35 596 42 547 q 58 622 51 622 q 154 606 142 622 q 233 579 197 579 q 301 673 322 660 l 174 686 l 143 739 q 160 772 153 765 l 94 872 l 64 942 l 382 972 l 413 913 z "},"´":{"ha":460,"x_min":90,"x_max":383,"o":"m 203 994 q 228 1017 218 1013 l 357 1021 q 376 976 383 983 q 199 833 211 840 l 113 826 q 97 867 90 860 z "},"µ":{"ha":838,"x_min":99,"x_max":740,"o":"m 225 -240 q 214 -267 225 -256 l 136 -278 q 99 -240 99 -256 q 110 711 99 700 l 188 722 q 225 685 225 700 q 278 158 225 211 q 560 158 507 106 l 614 685 q 651 722 636 722 q 729 711 718 722 l 740 38 q 703 0 718 0 q 625 11 636 0 l 614 81 q 546 16 568 29 q 419 -14 461 -14 q 293 16 315 3 q 225 81 238 64 z "},"¶":{"ha":760,"x_min":40,"x_max":656,"o":"m 40 719 q 60 817 40 771 q 194 952 149 932 l 618 972 q 656 935 656 950 q 644 -128 656 -117 l 567 -139 q 529 -101 529 -117 l 419 853 q 408 -128 419 -117 l 331 -139 q 293 -101 293 -117 q 194 487 240 467 q 60 621 81 575 z "},"·":{"ha":458,"x_min":76,"x_max":382,"o":"m 76 417 q 88 476 76 449 q 169 558 142 546 q 289 558 261 569 q 370 476 358 504 q 370 357 382 385 q 289 276 317 288 q 169 276 197 264 q 88 357 100 329 z "},"¸":{"ha":432,"x_min":89,"x_max":343,"o":"m 243 38 l 189 -78 q 313 -100 283 -67 q 311 -269 343 -233 q 158 -298 181 -306 q 95 -256 101 -268 l 118 -217 q 153 -216 144 -210 q 206 -235 186 -235 q 206 -137 265 -137 q 159 -147 167 -144 q 131 -140 139 -149 q 103 -96 100 -107 l 158 38 z "},"¹":{"ha":344,"x_min":19,"x_max":281,"o":"m 19 486 m 281 517 q 250 486 281 486 q 174 517 174 486 l 97 769 q 54 776 63 765 q 21 833 19 821 l 182 963 l 250 972 l 281 517 z "},"º":{"ha":494,"x_min":72,"x_max":422,"o":"m 421 750 q 368 633 417 671 q 126 633 175 596 q 72 788 72 761 q 90 893 75 864 q 184 969 154 960 q 310 969 281 979 q 403 893 389 922 q 422 788 422 814 m 179 757 q 201 701 182 717 q 294 701 275 685 q 317 788 317 768 q 294 872 313 854 q 201 872 219 890 q 178 788 178 807 z "},"»":{"ha":825,"x_min":76,"x_max":763,"o":"m 419 418 q 400 379 419 396 q 114 108 119 108 q 85 116 94 107 l 76 201 q 101 264 88 250 l 101 650 q 76 713 76 689 q 85 798 76 789 q 114 806 108 807 l 400 535 l 419 418 m 763 418 q 743 379 763 396 q 457 108 463 108 q 428 116 438 107 l 419 201 q 444 264 431 250 l 444 650 q 419 713 419 689 q 428 798 419 789 q 457 806 451 807 l 743 535 l 763 418 z "},"¼":{"ha":993,"x_min":53,"x_max":933,"o":"m 53 0 m 763 946 q 783 965 772 958 l 865 972 q 899 944 899 957 q 893 929 896 933 q 187 7 197 14 l 104 0 q 71 28 71 15 q 76 43 74 39 m 314 517 q 283 486 314 486 q 207 517 207 486 l 131 769 q 88 776 96 765 q 54 833 53 821 l 215 963 l 283 972 l 314 517 m 715 461 q 737 481 726 476 l 824 486 l 854 197 q 933 167 933 197 q 903 97 933 97 l 854 31 l 778 0 l 747 97 q 513 128 513 97 q 515 176 513 165 l 715 461 m 642 197 l 747 197 l 642 197 z "},"½":{"ha":1036,"x_min":53,"x_max":978,"o":"m 53 0 m 763 946 q 783 965 772 958 l 865 972 q 899 944 899 957 q 893 929 896 933 q 187 7 197 14 l 104 0 q 71 28 71 15 q 76 43 74 39 m 314 517 q 283 486 314 486 q 207 517 207 486 l 131 769 q 88 776 96 765 q 54 833 53 821 l 215 963 l 283 972 l 314 517 m 578 64 q 583 86 578 75 q 722 185 675 154 q 838 289 825 267 q 835 376 851 360 q 726 377 743 393 q 689 330 696 335 l 624 325 q 614 399 601 374 q 703 479 671 465 q 851 481 818 493 q 944 398 931 426 q 947 274 957 303 q 853 163 890 192 l 947 100 l 978 31 l 608 0 l 578 64 z "},"¾":{"ha":1097,"x_min":50,"x_max":1039,"o":"m 50 0 m 868 946 q 888 965 878 958 l 971 972 q 1004 944 1004 957 q 999 929 1001 933 q 292 7 303 14 l 210 0 q 176 28 176 15 q 182 43 179 39 m 431 913 q 427 887 431 897 l 324 774 q 447 635 447 693 q 253 479 351 479 q 53 596 60 547 q 76 622 69 622 q 172 606 160 622 q 251 579 215 579 q 319 673 340 660 l 192 686 l 161 739 q 178 772 171 765 l 113 872 l 82 942 l 400 972 l 431 913 m 821 461 q 842 481 832 476 l 929 486 l 960 197 q 1039 167 1039 197 q 1008 97 1039 97 l 960 31 l 883 0 l 853 97 q 618 128 618 97 q 620 176 618 165 l 821 461 m 747 197 l 853 197 l 747 197 z "},"¿":{"ha":719,"x_min":44,"x_max":682,"o":"m 285 685 q 296 711 285 700 l 401 722 q 439 685 439 700 q 428 579 439 590 l 322 568 q 285 606 285 590 m 681 7 q 658 -87 678 -39 q 499 -239 558 -214 q 234 -244 292 -264 q 68 -106 92 -154 q 63 97 44 56 q 172 228 139 201 q 280 347 261 313 l 299 447 q 336 485 321 485 q 414 474 403 485 l 425 418 q 359 249 388 281 q 237 134 265 163 q 171 -1 171 42 q 229 -108 203 -90 q 360 -146 324 -146 q 554 7 535 -74 q 590 38 579 38 q 672 28 663 38 z "},"À":{"ha":944,"x_min":22,"x_max":921,"o":"m 22 0 m 713 219 l 231 219 q 143 12 154 24 l 53 0 q 22 31 22 18 l 368 926 q 431 972 403 972 q 556 957 542 972 l 915 50 q 912 9 921 18 l 839 0 q 785 35 789 24 m 279 344 l 664 344 l 279 344 m 531 1082 q 538 1064 538 1075 l 457 1042 q 399 1065 410 1056 q 238 1208 238 1199 l 374 1236 q 425 1210 410 1228 z "},"Á":{"ha":944,"x_min":22,"x_max":921,"o":"m 22 0 m 713 219 l 231 219 q 143 12 154 24 l 53 0 q 22 31 22 18 l 368 926 q 431 972 403 972 q 556 957 542 972 l 915 50 q 912 9 921 18 l 839 0 q 785 35 789 24 m 279 344 l 664 344 l 279 344 m 517 1210 q 542 1232 532 1228 l 678 1236 q 697 1192 704 1199 q 519 1049 532 1056 l 426 1042 q 411 1082 404 1075 z "},"Â":{"ha":944,"x_min":22,"x_max":921,"o":"m 22 0 m 713 219 l 231 219 q 143 12 154 24 l 53 0 q 22 31 22 18 l 368 926 q 431 972 403 972 q 556 957 542 972 l 915 50 q 912 9 921 18 l 839 0 q 785 35 789 24 m 279 344 l 664 344 l 279 344 m 493 1236 q 519 1231 508 1236 l 672 1082 q 657 1042 679 1042 q 599 1045 607 1042 l 472 1128 q 346 1045 354 1049 l 288 1042 q 272 1082 265 1075 q 425 1231 414 1225 l 493 1236 z "},"Ã":{"ha":944,"x_min":22,"x_max":921,"o":"m 22 0 m 713 219 l 231 219 q 143 12 154 24 l 53 0 q 22 31 22 18 l 368 926 q 431 972 403 972 q 556 957 542 972 l 915 50 q 912 9 921 18 l 839 0 q 785 35 789 24 m 279 344 l 664 344 l 279 344 m 561 1035 q 508 1042 529 1035 q 436 1072 451 1065 q 379 1074 386 1079 q 359 1047 364 1053 l 292 1042 q 265 1068 265 1057 q 292 1150 278 1129 q 385 1201 353 1201 q 476 1179 460 1188 q 543 1157 524 1157 q 578 1176 574 1168 q 603 1194 592 1194 q 674 1187 667 1194 q 674 1130 681 1153 q 616 1050 639 1065 z "},"Ä":{"ha":944,"x_min":22,"x_max":921,"o":"m 22 0 m 713 219 l 231 219 q 143 12 154 24 l 53 0 q 22 31 22 18 l 368 926 q 431 972 403 972 q 556 957 542 972 l 915 50 q 912 9 921 18 l 839 0 q 785 35 789 24 m 279 344 l 664 344 l 279 344 m 403 1079 q 392 1053 403 1064 l 286 1042 q 249 1079 249 1064 q 260 1185 249 1174 l 365 1196 q 403 1158 403 1174 m 696 1079 q 685 1053 696 1064 l 579 1042 q 542 1079 542 1064 q 553 1185 542 1174 l 658 1196 q 696 1158 696 1174 z "},"Å":{"ha":944,"x_min":22,"x_max":921,"o":"m 22 0 m 713 219 l 231 219 q 143 12 154 24 l 53 0 q 22 31 22 18 l 368 926 q 431 972 403 972 q 556 957 542 972 l 915 50 q 912 9 921 18 l 839 0 q 785 35 789 24 m 279 344 l 664 344 l 279 344 m 431 1139 q 442 1109 431 1121 q 502 1109 490 1097 q 502 1169 514 1157 q 442 1169 454 1181 m 354 1139 q 389 1219 354 1188 q 556 1219 521 1250 q 556 1059 590 1090 q 389 1059 424 1028 z "},"Æ":{"ha":1332,"x_min":1,"x_max":1265,"o":"m 1228 125 q 1254 114 1243 125 l 1265 38 q 1228 0 1243 0 q 640 11 651 0 l 629 219 l 149 35 q 94 0 118 0 q 10 9 19 0 q 7 47 1 38 q 548 957 535 942 l 1217 972 q 1254 935 1254 950 q 1243 858 1254 869 l 761 847 l 1186 554 q 1224 517 1224 532 q 1213 440 1224 451 l 761 429 l 1228 125 m 629 344 l 629 847 l 629 344 z "},"Ç":{"ha":926,"x_min":79,"x_max":864,"o":"m 215 603 q 213 486 213 540 q 285 183 219 254 q 588 128 542 111 q 709 231 693 197 q 747 323 736 315 l 833 331 q 864 300 864 313 q 774 100 819 147 q 482 -14 583 -12 q 501 -67 471 -67 q 607 -183 607 -133 q 469 -306 543 -306 q 382 -279 399 -290 q 363 -235 353 -244 q 401 -208 393 -207 q 438 -228 426 -222 q 529 -186 529 -235 q 442 -141 453 -137 q 409 -149 415 -150 l 371 -115 q 374 -74 369 -85 q 270 35 328 3 q 108 226 131 164 q 83 610 79 486 q 192 879 142 829 q 475 986 385 986 q 772 874 725 922 q 864 672 863 718 q 833 642 846 642 q 747 649 758 642 q 709 741 725 707 q 588 844 633 828 q 285 790 351 861 z "},"È":{"ha":822,"x_min":119,"x_max":756,"o":"m 119 0 m 718 125 q 744 114 733 125 l 756 38 q 718 0 733 0 q 131 11 142 0 l 119 935 q 157 972 142 972 q 733 961 722 972 l 744 885 q 707 847 722 847 l 251 554 q 703 543 692 554 l 714 467 q 676 429 692 429 l 251 125 m 497 1082 q 504 1064 504 1075 l 424 1042 q 365 1065 376 1056 q 204 1208 204 1199 l 340 1236 q 392 1210 376 1228 z "},"É":{"ha":822,"x_min":119,"x_max":756,"o":"m 119 0 m 718 125 q 744 114 733 125 l 756 38 q 718 0 733 0 q 131 11 142 0 l 119 935 q 157 972 142 972 q 733 961 722 972 l 744 885 q 707 847 722 847 l 251 554 q 703 543 692 554 l 714 467 q 676 429 692 429 l 251 125 m 460 1210 q 485 1232 475 1228 l 621 1236 q 640 1192 647 1199 q 463 1049 475 1056 l 369 1042 q 354 1082 347 1075 z "},"Ê":{"ha":822,"x_min":119,"x_max":756,"o":"m 119 0 m 718 125 q 744 114 733 125 l 756 38 q 718 0 733 0 q 131 11 142 0 l 119 935 q 157 972 142 972 q 733 961 722 972 l 744 885 q 707 847 722 847 l 251 554 q 703 543 692 554 l 714 467 q 676 429 692 429 l 251 125 m 458 1236 q 485 1231 474 1236 l 638 1082 q 622 1042 644 1042 q 564 1045 572 1042 l 438 1128 q 311 1045 319 1049 l 253 1042 q 238 1082 231 1075 q 390 1231 379 1225 l 458 1236 z "},"Ë":{"ha":822,"x_min":119,"x_max":756,"o":"m 119 0 m 718 125 q 744 114 733 125 l 756 38 q 718 0 733 0 q 131 11 142 0 l 119 935 q 157 972 142 972 q 733 961 722 972 l 744 885 q 707 847 722 847 l 251 554 q 703 543 692 554 l 714 467 q 676 429 692 429 l 251 125 m 368 1079 q 357 1053 368 1064 l 251 1042 q 214 1079 214 1064 q 225 1185 214 1174 l 331 1196 q 368 1158 368 1174 m 661 1079 q 650 1053 661 1064 l 544 1042 q 507 1079 507 1064 q 518 1185 507 1174 l 624 1196 q 661 1158 661 1174 z "},"Ì":{"ha":371,"x_min":-50,"x_max":251,"o":"m 0 0 m 157 0 q 131 11 142 0 l 119 935 q 157 972 142 972 q 240 961 229 972 l 251 38 q 214 0 229 0 m 243 1082 q 250 1064 250 1075 l 169 1042 q 111 1065 122 1056 q -50 1208 -50 1199 l 86 1236 q 138 1210 122 1228 z "},"Í":{"ha":371,"x_min":118,"x_max":418,"o":"m 118 0 m 157 0 q 131 11 142 0 l 119 935 q 157 972 142 972 q 240 961 229 972 l 251 38 q 214 0 229 0 m 231 1210 q 256 1232 246 1228 l 392 1236 q 411 1192 418 1199 q 233 1049 246 1056 l 140 1042 q 125 1082 118 1075 z "},"Î":{"ha":371,"x_min":-21,"x_max":393,"o":"m 0 0 m 157 0 q 131 11 142 0 l 119 935 q 157 972 142 972 q 240 961 229 972 l 251 38 q 214 0 229 0 m 207 1236 q 233 1231 222 1236 l 386 1082 q 371 1042 393 1042 q 313 1045 321 1042 l 186 1128 q 60 1045 68 1049 l 1 1042 q -14 1082 -21 1075 q 139 1231 128 1225 l 207 1236 z "},"Ï":{"ha":371,"x_min":-37,"x_max":410,"o":"m 0 0 m 157 0 q 131 11 142 0 l 119 935 q 157 972 142 972 q 240 961 229 972 l 251 38 q 214 0 229 0 m 117 1079 q 106 1053 117 1064 l 0 1042 q -37 1079 -37 1064 q -26 1185 -37 1174 l 79 1196 q 117 1158 117 1174 m 410 1079 q 399 1053 410 1064 l 293 1042 q 256 1079 256 1064 q 267 1185 256 1174 l 372 1196 q 410 1158 410 1174 z "},"Ð":{"ha":975,"x_min":21,"x_max":894,"o":"m 893 596 q 894 486 894 533 q 863 219 892 289 q 660 26 731 51 l 176 0 q 139 38 139 22 l 58 433 q 21 471 21 456 q 32 540 21 529 l 139 551 q 150 961 139 950 l 494 972 q 779 872 726 921 q 893 596 892 683 m 761 589 q 745 685 760 639 q 615 826 667 804 l 271 847 l 458 551 q 496 514 496 529 q 485 444 496 456 l 271 433 l 496 125 q 703 204 672 168 q 761 383 760 333 q 763 485 763 463 q 761 589 761 557 z "},"Ñ":{"ha":964,"x_min":119,"x_max":844,"o":"m 119 0 m 758 0 q 726 13 739 0 l 251 721 q 240 11 251 22 l 157 0 q 119 38 119 22 q 131 961 119 950 l 206 972 q 261 931 251 946 l 713 935 q 750 972 735 972 q 833 961 822 972 l 844 38 q 807 0 822 0 m 571 1035 q 517 1042 539 1035 q 446 1072 461 1065 q 389 1074 396 1079 q 369 1047 374 1053 l 301 1042 q 275 1068 275 1057 q 302 1150 288 1129 q 394 1201 363 1201 q 486 1179 469 1188 q 553 1157 533 1157 q 588 1176 583 1168 q 613 1194 601 1194 q 683 1187 676 1194 q 684 1130 690 1153 q 626 1050 649 1065 z "},"Ò":{"ha":933,"x_min":79,"x_max":854,"o":"m 79 0 m 83 610 q 110 756 85 688 q 304 956 233 926 q 629 956 558 986 q 823 756 797 825 q 850 363 854 486 q 747 96 796 147 q 467 -14 558 -14 q 186 96 235 44 q 83 363 86 285 m 718 603 q 697 717 715 668 q 566 845 611 829 q 367 845 413 861 q 236 717 256 765 q 213 486 213 540 q 236 256 217 304 q 367 127 322 143 q 566 127 521 111 q 697 256 678 207 q 721 486 721 432 m 526 1082 q 533 1064 533 1075 l 453 1042 q 394 1065 406 1056 q 233 1208 233 1199 l 369 1236 q 421 1210 406 1228 z "},"Ó":{"ha":933,"x_min":79,"x_max":854,"o":"m 79 0 m 83 610 q 110 756 85 688 q 304 956 233 926 q 629 956 558 986 q 823 756 797 825 q 850 363 854 486 q 747 96 796 147 q 467 -14 558 -14 q 186 96 235 44 q 83 363 86 285 m 718 603 q 697 717 715 668 q 566 845 611 829 q 367 845 413 861 q 236 717 256 765 q 213 486 213 540 q 236 256 217 304 q 367 127 322 143 q 566 127 521 111 q 697 256 678 207 q 721 486 721 432 m 517 1210 q 542 1232 532 1228 l 678 1236 q 697 1192 704 1199 q 519 1049 532 1056 l 426 1042 q 411 1082 404 1075 z "},"Ô":{"ha":933,"x_min":79,"x_max":854,"o":"m 79 0 m 83 610 q 110 756 85 688 q 304 956 233 926 q 629 956 558 986 q 823 756 797 825 q 850 363 854 486 q 747 96 796 147 q 467 -14 558 -14 q 186 96 235 44 q 83 363 86 285 m 718 603 q 697 717 715 668 q 566 845 611 829 q 367 845 413 861 q 236 717 256 765 q 213 486 213 540 q 236 256 217 304 q 367 127 322 143 q 566 127 521 111 q 697 256 678 207 q 721 486 721 432 m 488 1236 q 514 1231 503 1236 l 667 1082 q 651 1042 674 1042 q 593 1045 601 1042 l 467 1128 q 340 1045 349 1049 l 282 1042 q 267 1082 260 1075 q 419 1231 408 1225 l 488 1236 z "},"Õ":{"ha":933,"x_min":79,"x_max":854,"o":"m 79 0 m 83 610 q 110 756 85 688 q 304 956 233 926 q 629 956 558 986 q 823 756 797 825 q 850 363 854 486 q 747 96 796 147 q 467 -14 558 -14 q 186 96 235 44 q 83 363 86 285 m 718 603 q 697 717 715 668 q 566 845 611 829 q 367 845 413 861 q 236 717 256 765 q 213 486 213 540 q 236 256 217 304 q 367 127 322 143 q 566 127 521 111 q 697 256 678 207 q 721 486 721 432 m 556 1035 q 502 1042 524 1035 q 431 1072 446 1065 q 374 1074 381 1079 q 353 1047 358 1053 l 286 1042 q 260 1068 260 1057 q 287 1150 272 1129 q 379 1201 347 1201 q 471 1179 454 1188 q 538 1157 518 1157 q 572 1176 568 1168 q 597 1194 586 1194 q 668 1187 661 1194 q 669 1130 675 1153 q 610 1050 633 1065 z "},"Ö":{"ha":933,"x_min":79,"x_max":854,"o":"m 79 0 m 83 610 q 110 756 85 688 q 304 956 233 926 q 629 956 558 986 q 823 756 797 825 q 850 363 854 486 q 747 96 796 147 q 467 -14 558 -14 q 186 96 235 44 q 83 363 86 285 m 718 603 q 697 717 715 668 q 566 845 611 829 q 367 845 413 861 q 236 717 256 765 q 213 486 213 540 q 236 256 217 304 q 367 127 322 143 q 566 127 521 111 q 697 256 678 207 q 721 486 721 432 m 397 1079 q 386 1053 397 1064 l 281 1042 q 243 1079 243 1064 q 254 1185 243 1174 l 360 1196 q 397 1158 397 1174 m 690 1079 q 679 1053 690 1064 l 574 1042 q 536 1079 536 1064 q 547 1185 536 1174 l 653 1196 q 690 1158 690 1174 z "},"×":{"ha":771,"x_min":82,"x_max":689,"o":"m 296 461 l 93 665 q 93 718 82 707 q 156 765 140 765 l 385 550 q 615 765 600 765 l 678 718 q 678 665 689 676 l 678 258 q 678 206 689 217 q 615 158 631 158 l 385 372 q 156 158 171 158 l 93 206 q 93 258 82 247 z "},"Ø":{"ha":957,"x_min":11,"x_max":944,"o":"m 96 603 q 123 753 97 683 q 317 956 246 926 q 622 964 558 986 q 810 808 779 863 l 900 708 q 936 704 928 713 l 944 644 l 863 579 q 863 369 865 426 q 760 97 808 149 q 479 -14 571 -14 q 226 69 274 31 q 106 282 119 217 q 40 258 44 258 q 11 288 11 275 q 42 372 11 361 q 93 496 93 447 m 228 603 q 225 522 225 560 l 728 640 q 479 861 579 861 q 301 797 335 829 q 228 603 229 668 m 731 369 q 733 450 732 413 l 231 331 q 479 111 379 111 q 657 175 624 143 q 731 369 728 304 z "},"Ù":{"ha":969,"x_min":111,"x_max":858,"o":"m 111 0 m 821 972 q 847 961 836 972 l 858 379 q 770 97 815 150 q 485 -14 583 -14 q 198 97 243 44 q 111 379 111 293 q 122 961 111 950 l 206 972 q 243 935 243 950 q 307 170 243 236 q 663 170 599 104 l 728 935 q 765 972 750 972 m 550 1082 q 557 1064 557 1075 l 476 1042 q 418 1065 429 1056 q 257 1208 257 1199 l 393 1236 q 444 1210 429 1228 z "},"Ú":{"ha":969,"x_min":111,"x_max":858,"o":"m 111 0 m 821 972 q 847 961 836 972 l 858 379 q 770 97 815 150 q 485 -14 583 -14 q 198 97 243 44 q 111 379 111 293 q 122 961 111 950 l 206 972 q 243 935 243 950 q 307 170 243 236 q 663 170 599 104 l 728 935 q 765 972 750 972 m 532 1210 q 558 1232 547 1228 l 693 1236 q 713 1192 719 1199 q 535 1049 547 1056 l 442 1042 q 426 1082 419 1075 z "},"Û":{"ha":969,"x_min":111,"x_max":858,"o":"m 111 0 m 821 972 q 847 961 836 972 l 858 379 q 770 97 815 150 q 485 -14 583 -14 q 198 97 243 44 q 111 379 111 293 q 122 961 111 950 l 206 972 q 243 935 243 950 q 307 170 243 236 q 663 170 599 104 l 728 935 q 765 972 750 972 m 506 1236 q 532 1231 521 1236 l 685 1082 q 669 1042 692 1042 q 611 1045 619 1042 l 485 1128 q 358 1045 367 1049 l 300 1042 q 285 1082 278 1075 q 438 1231 426 1225 l 506 1236 z "},"Ü":{"ha":969,"x_min":111,"x_max":858,"o":"m 111 0 m 821 972 q 847 961 836 972 l 858 379 q 770 97 815 150 q 485 -14 583 -14 q 198 97 243 44 q 111 379 111 293 q 122 961 111 950 l 206 972 q 243 935 243 950 q 307 170 243 236 q 663 170 599 104 l 728 935 q 765 972 750 972 m 415 1079 q 404 1053 415 1064 l 299 1042 q 261 1079 261 1064 q 272 1185 261 1174 l 378 1196 q 415 1158 415 1174 m 708 1079 q 697 1053 708 1064 l 592 1042 q 554 1079 554 1064 q 565 1185 554 1174 l 671 1196 q 708 1158 708 1174 z "},"Ý":{"ha":893,"x_min":42,"x_max":851,"o":"m 42 0 m 513 38 q 501 11 513 22 l 418 0 q 381 38 381 22 l 49 922 q 51 963 42 954 l 132 972 q 190 938 183 950 l 703 938 q 761 972 733 972 q 842 963 833 972 q 844 922 851 935 l 513 38 m 489 1210 q 515 1232 504 1228 l 650 1236 q 669 1192 676 1199 q 492 1049 504 1056 l 399 1042 q 383 1082 376 1075 z "},"Þ":{"ha":894,"x_min":119,"x_max":842,"o":"m 251 781 l 507 781 q 742 710 696 746 q 842 486 842 563 q 742 260 788 297 q 507 186 575 186 l 251 38 q 214 0 229 0 q 131 11 142 0 l 119 935 q 157 972 142 972 q 240 961 229 972 l 251 781 m 251 311 l 500 311 q 710 486 710 397 q 500 656 600 656 l 251 311 z "},"ß":{"ha":814,"x_min":104,"x_max":746,"o":"m 421 119 q 515 132 476 119 q 610 222 600 190 q 610 356 619 325 q 515 448 553 435 l 344 461 l 314 550 l 414 581 q 545 622 525 603 q 583 722 583 693 q 407 867 490 867 q 231 654 231 761 q 219 11 231 22 l 142 0 q 104 38 104 22 q 126 796 104 738 q 283 963 228 939 q 531 965 475 986 q 688 825 665 871 q 683 607 710 656 q 716 428 686 485 q 729 180 746 235 q 576 23 638 46 l 351 0 q 314 38 314 22 q 325 108 314 97 l 421 119 z "},"à":{"ha":758,"x_min":53,"x_max":660,"o":"m 53 0 m 53 182 q 75 279 53 238 q 227 397 175 379 l 533 457 q 487 581 533 546 q 278 594 310 617 q 207 526 217 531 l 139 522 q 101 560 100 544 q 184 679 147 654 q 371 736 317 736 q 578 665 540 700 q 660 461 660 528 q 649 11 660 22 l 571 0 q 533 38 533 22 q 494 48 521 68 q 363 -7 400 0 q 195 1 240 -14 q 70 104 88 68 m 308 106 q 400 121 358 106 q 517 228 501 190 l 533 346 q 231 275 282 306 q 186 165 179 181 q 248 114 224 122 m 433 867 q 440 849 440 860 l 367 826 q 308 850 319 840 q 147 993 147 983 l 276 1021 q 328 994 313 1013 z "},"á":{"ha":758,"x_min":53,"x_max":660,"o":"m 53 0 m 53 182 q 75 279 53 238 q 227 397 175 379 l 533 457 q 487 581 533 546 q 278 594 310 617 q 207 526 217 531 l 139 522 q 101 560 100 544 q 184 679 147 654 q 371 736 317 736 q 578 665 540 700 q 660 461 660 528 q 649 11 660 22 l 571 0 q 533 38 533 22 q 494 48 521 68 q 363 -7 400 0 q 195 1 240 -14 q 70 104 88 68 m 308 106 q 400 121 358 106 q 517 228 501 190 l 533 346 q 231 275 282 306 q 186 165 179 181 q 248 114 224 122 m 414 994 q 440 1017 429 1013 l 568 1021 q 588 976 594 983 q 410 833 422 840 l 324 826 q 308 867 301 860 z "},"â":{"ha":758,"x_min":53,"x_max":660,"o":"m 53 0 m 53 182 q 75 279 53 238 q 227 397 175 379 l 533 457 q 487 581 533 546 q 278 594 310 617 q 207 526 217 531 l 139 522 q 101 560 100 544 q 184 679 147 654 q 371 736 317 736 q 578 665 540 700 q 660 461 660 528 q 649 11 660 22 l 571 0 q 533 38 533 22 q 494 48 521 68 q 363 -7 400 0 q 195 1 240 -14 q 70 104 88 68 m 308 106 q 400 121 358 106 q 517 228 501 190 l 533 346 q 231 275 282 306 q 186 165 179 181 q 248 114 224 122 m 383 1021 q 410 1015 399 1021 l 563 867 q 547 826 569 826 q 496 830 504 826 l 369 913 q 243 830 251 833 l 192 826 q 176 867 169 860 q 329 1015 318 1010 l 383 1021 z "},"ã":{"ha":758,"x_min":53,"x_max":660,"o":"m 53 0 m 53 182 q 75 279 53 238 q 227 397 175 379 l 533 457 q 487 581 533 546 q 278 594 310 617 q 207 526 217 531 l 139 522 q 101 560 100 544 q 184 679 147 654 q 371 736 317 736 q 578 665 540 700 q 660 461 660 528 q 649 11 660 22 l 571 0 q 533 38 533 22 q 494 48 521 68 q 363 -7 400 0 q 195 1 240 -14 q 70 104 88 68 m 308 106 q 400 121 358 106 q 517 228 501 190 l 533 346 q 231 275 282 306 q 186 165 179 181 q 248 114 224 122 m 454 819 q 403 826 424 819 q 335 857 349 850 q 281 858 288 864 q 260 832 265 838 l 193 826 q 167 853 167 842 q 194 935 179 914 q 286 986 254 986 q 374 964 358 972 q 436 942 418 942 q 471 960 467 953 q 496 979 485 979 q 567 972 560 979 q 567 915 574 938 q 509 835 532 850 z "},"ä":{"ha":758,"x_min":53,"x_max":660,"o":"m 53 0 m 53 182 q 75 279 53 238 q 227 397 175 379 l 533 457 q 487 581 533 546 q 278 594 310 617 q 207 526 217 531 l 139 522 q 101 560 100 544 q 184 679 147 654 q 371 736 317 736 q 578 665 540 700 q 660 461 660 528 q 649 11 660 22 l 571 0 q 533 38 533 22 q 494 48 521 68 q 363 -7 400 0 q 195 1 240 -14 q 70 104 88 68 m 308 106 q 400 121 358 106 q 517 228 501 190 l 533 346 q 231 275 282 306 q 186 165 179 181 q 248 114 224 122 m 321 871 q 310 844 321 856 l 204 833 q 167 871 167 856 q 178 976 167 965 l 283 988 q 321 950 321 965 m 572 871 q 561 844 572 856 l 456 833 q 418 871 418 856 q 429 976 418 965 l 535 988 q 572 950 572 965 z "},"å":{"ha":758,"x_min":53,"x_max":660,"o":"m 53 0 m 53 182 q 75 279 53 238 q 227 397 175 379 l 533 457 q 487 581 533 546 q 278 594 310 617 q 207 526 217 531 l 139 522 q 101 560 100 544 q 184 679 147 654 q 371 736 317 736 q 578 665 540 700 q 660 461 660 528 q 649 11 660 22 l 571 0 q 533 38 533 22 q 494 48 521 68 q 363 -7 400 0 q 195 1 240 -14 q 70 104 88 68 m 308 106 q 400 121 358 106 q 517 228 501 190 l 533 346 q 231 275 282 306 q 186 165 179 181 q 248 114 224 122 m 328 931 q 340 901 328 913 q 399 901 388 889 q 399 960 411 949 q 340 960 351 972 m 251 931 q 286 1010 251 979 q 453 1010 418 1042 q 453 851 488 882 q 286 851 321 819 z "},"æ":{"ha":1240,"x_min":53,"x_max":1176,"o":"m 53 182 q 75 279 53 238 q 227 397 175 379 l 533 457 q 487 581 533 546 q 278 594 310 617 q 207 526 217 531 l 139 522 q 101 560 100 544 q 184 679 147 654 q 371 736 317 736 q 614 625 576 679 q 856 736 776 736 q 1090 642 1049 688 q 1176 385 1176 465 q 1165 321 1176 332 l 661 310 q 719 156 664 207 q 970 127 932 106 q 1051 190 1043 186 l 1118 194 q 1156 157 1158 172 q 1076 47 1113 72 q 856 -14 929 -14 q 594 126 636 61 q 294 -14 407 -14 q 119 42 150 17 q 53 182 53 140 m 308 106 q 400 121 358 106 q 517 228 501 190 l 533 346 q 231 275 282 306 q 186 165 179 181 q 248 114 224 122 m 661 426 l 1051 426 q 998 566 1051 515 q 781 603 815 617 q 678 507 693 542 l 661 426 z "},"ç":{"ha":771,"x_min":68,"x_max":710,"o":"m 197 313 q 222 218 203 257 q 328 117 294 129 q 510 131 463 106 q 603 244 593 236 l 671 251 q 708 214 710 229 q 629 70 667 104 q 406 -14 479 -12 q 425 -67 394 -67 q 531 -183 531 -133 q 393 -306 467 -306 q 306 -279 322 -290 q 286 -235 276 -244 q 324 -208 317 -207 q 362 -228 350 -222 q 453 -186 453 -235 q 365 -141 376 -137 q 333 -149 339 -150 l 294 -115 q 297 -74 293 -85 q 219 30 265 1 q 91 194 108 142 q 69 360 69 328 q 99 542 76 483 q 261 711 203 686 q 530 713 472 736 q 687 581 667 621 q 698 482 710 493 l 629 471 q 583 508 593 486 q 396 617 463 617 q 266 568 293 593 q 197 410 201 465 z "},"è":{"ha":774,"x_min":64,"x_max":710,"o":"m 64 0 m 71 431 q 101 550 76 494 q 263 713 207 689 q 523 712 464 736 q 688 531 665 596 l 710 347 q 672 310 688 310 l 194 301 q 389 106 307 106 q 565 175 542 149 q 610 194 593 194 q 679 183 667 194 q 665 102 685 132 q 517 3 572 21 q 264 10 319 -14 q 101 177 126 119 q 71 431 64 367 m 194 426 l 585 426 q 531 566 585 515 q 314 603 349 617 q 211 507 226 542 l 194 426 m 456 867 q 463 849 463 860 l 389 826 q 331 850 342 840 q 169 993 169 983 l 299 1021 q 350 994 335 1013 z "},"é":{"ha":774,"x_min":64,"x_max":710,"o":"m 64 0 m 71 431 q 101 550 76 494 q 263 713 207 689 q 523 712 464 736 q 688 531 665 596 l 710 347 q 672 310 688 310 l 194 301 q 389 106 307 106 q 565 175 542 149 q 610 194 593 194 q 679 183 667 194 q 665 102 685 132 q 517 3 572 21 q 264 10 319 -14 q 101 177 126 119 q 71 431 64 367 m 194 426 l 585 426 q 531 566 585 515 q 314 603 349 617 q 211 507 226 542 l 194 426 m 432 994 q 458 1017 447 1013 l 586 1021 q 606 976 613 983 q 428 833 440 840 l 342 826 q 326 867 319 860 z "},"ê":{"ha":774,"x_min":64,"x_max":710,"o":"m 64 0 m 71 431 q 101 550 76 494 q 263 713 207 689 q 523 712 464 736 q 688 531 665 596 l 710 347 q 672 310 688 310 l 194 301 q 389 106 307 106 q 565 175 542 149 q 610 194 593 194 q 679 183 667 194 q 665 102 685 132 q 517 3 572 21 q 264 10 319 -14 q 101 177 126 119 q 71 431 64 367 m 194 426 l 585 426 q 531 566 585 515 q 314 603 349 617 q 211 507 226 542 l 194 426 m 401 1021 q 428 1015 417 1021 l 581 867 q 565 826 588 826 q 514 830 522 826 l 388 913 q 261 830 269 833 l 210 826 q 194 867 188 860 q 347 1015 336 1010 l 401 1021 z "},"ë":{"ha":774,"x_min":64,"x_max":710,"o":"m 64 0 m 71 431 q 101 550 76 494 q 263 713 207 689 q 523 712 464 736 q 688 531 665 596 l 710 347 q 672 310 688 310 l 194 301 q 389 106 307 106 q 565 175 542 149 q 610 194 593 194 q 679 183 667 194 q 665 102 685 132 q 517 3 572 21 q 264 10 319 -14 q 101 177 126 119 q 71 431 64 367 m 194 426 l 585 426 q 531 566 585 515 q 314 603 349 617 q 211 507 226 542 l 194 426 m 339 871 q 328 844 339 856 l 222 833 q 185 871 185 856 q 196 976 185 965 l 301 988 q 339 950 339 965 m 590 871 q 579 844 590 856 l 474 833 q 436 871 436 856 q 447 976 436 965 l 553 988 q 590 950 590 965 z "},"ì":{"ha":335,"x_min":-57,"x_max":236,"o":"m 0 0 m 231 38 q 219 11 231 22 l 142 0 q 104 38 104 22 q 115 711 104 700 l 193 722 q 231 685 231 700 m 229 867 q 236 849 236 860 l 163 826 q 104 850 115 840 q -57 993 -57 983 l 72 1021 q 124 994 108 1013 z "},"í":{"ha":335,"x_min":96,"x_max":389,"o":"m 96 0 m 231 38 q 219 11 231 22 l 142 0 q 104 38 104 22 q 115 711 104 700 l 193 722 q 231 685 231 700 m 208 994 q 234 1017 224 1013 l 363 1021 q 382 976 389 983 q 204 833 217 840 l 118 826 q 103 867 96 860 z "},"î":{"ha":335,"x_min":-32,"x_max":368,"o":"m 0 0 m 231 38 q 219 11 231 22 l 142 0 q 104 38 104 22 q 115 711 104 700 l 193 722 q 231 685 231 700 m 182 1021 q 208 1015 197 1021 l 361 867 q 346 826 368 826 q 294 830 303 826 l 168 913 q 42 830 50 833 l -10 826 q -25 867 -32 860 q 128 1015 117 1010 l 182 1021 z "},"ï":{"ha":335,"x_min":-35,"x_max":371,"o":"m 0 0 m 231 38 q 219 11 231 22 l 142 0 q 104 38 104 22 q 115 711 104 700 l 193 722 q 231 685 231 700 m 119 871 q 108 844 119 856 l 3 833 q -35 871 -35 856 q -24 976 -35 965 l 82 988 q 119 950 119 965 m 371 871 q 360 844 371 856 l 254 833 q 217 871 217 856 q 228 976 217 965 l 333 988 q 371 950 371 965 z "},"ð":{"ha":776,"x_min":65,"x_max":701,"o":"m 383 653 q 463 644 425 653 q 458 753 508 690 q 317 699 321 699 q 288 728 288 715 q 318 813 288 801 q 338 875 360 856 q 272 932 276 925 q 296 972 268 972 q 396 967 385 972 q 458 917 439 935 l 636 938 q 672 933 664 942 l 681 874 l 572 797 q 668 606 651 664 q 701 319 701 408 q 612 78 654 122 q 383 -14 453 -14 q 155 78 197 35 q 65 319 65 246 q 155 565 113 522 q 383 653 314 653 m 383 533 q 239 474 286 533 q 239 165 192 224 q 528 165 481 106 q 528 474 575 415 z "},"ñ":{"ha":843,"x_min":104,"x_max":746,"o":"m 104 0 m 746 38 q 735 11 746 22 l 657 0 q 619 38 619 22 q 568 564 619 511 q 284 564 338 617 l 231 38 q 193 0 208 0 q 115 11 126 0 l 104 685 q 142 722 126 722 q 219 711 208 722 l 231 642 q 446 736 361 736 q 662 653 622 693 q 746 425 746 497 m 510 819 q 458 826 479 819 q 390 857 404 850 q 336 858 343 864 q 316 832 321 838 l 249 826 q 222 853 222 842 q 249 935 235 914 q 342 986 310 986 q 429 964 414 972 q 492 942 474 942 q 526 960 522 953 q 551 979 540 979 q 622 972 615 979 q 623 915 629 938 q 565 835 588 850 z "},"ò":{"ha":801,"x_min":68,"x_max":731,"o":"m 68 0 m 400 736 q 533 713 475 736 q 699 552 675 610 q 731 397 731 414 q 731 324 731 342 q 699 169 722 226 q 533 9 592 32 q 267 9 325 -14 q 101 169 125 113 q 69 324 69 307 q 69 397 68 379 q 101 552 76 494 q 267 713 208 690 m 603 303 q 606 360 606 326 q 585 497 599 461 q 485 601 521 586 q 315 601 351 617 q 215 497 229 533 q 194 360 194 394 q 215 225 201 261 q 315 121 279 136 q 485 121 449 106 q 585 225 571 189 m 464 867 q 471 849 471 860 l 397 826 q 339 850 350 840 q 178 993 178 983 l 307 1021 q 358 994 343 1013 z "},"ó":{"ha":801,"x_min":68,"x_max":731,"o":"m 68 0 m 400 736 q 533 713 475 736 q 699 552 675 610 q 731 397 731 414 q 731 324 731 342 q 699 169 722 226 q 533 9 592 32 q 267 9 325 -14 q 101 169 125 113 q 69 324 69 307 q 69 397 68 379 q 101 552 76 494 q 267 713 208 690 m 603 303 q 606 360 606 326 q 585 497 599 461 q 485 601 521 586 q 315 601 351 617 q 215 497 229 533 q 194 360 194 394 q 215 225 201 261 q 315 121 279 136 q 485 121 449 106 q 585 225 571 189 m 442 994 q 467 1017 457 1013 l 596 1021 q 615 976 622 983 q 438 833 450 840 l 351 826 q 336 867 329 860 z "},"ô":{"ha":801,"x_min":68,"x_max":731,"o":"m 68 0 m 400 736 q 533 713 475 736 q 699 552 675 610 q 731 397 731 414 q 731 324 731 342 q 699 169 722 226 q 533 9 592 32 q 267 9 325 -14 q 101 169 125 113 q 69 324 69 307 q 69 397 68 379 q 101 552 76 494 q 267 713 208 690 m 603 303 q 606 360 606 326 q 585 497 599 461 q 485 601 521 586 q 315 601 351 617 q 215 497 229 533 q 194 360 194 394 q 215 225 201 261 q 315 121 279 136 q 485 121 449 106 q 585 225 571 189 m 414 1021 q 440 1015 429 1021 l 593 867 q 578 826 600 826 q 526 830 535 826 l 400 913 q 274 830 282 833 l 222 826 q 207 867 200 860 q 360 1015 349 1010 l 414 1021 z "},"õ":{"ha":801,"x_min":68,"x_max":731,"o":"m 68 0 m 400 736 q 533 713 475 736 q 699 552 675 610 q 731 397 731 414 q 731 324 731 342 q 699 169 722 226 q 533 9 592 32 q 267 9 325 -14 q 101 169 125 113 q 69 324 69 307 q 69 397 68 379 q 101 552 76 494 q 267 713 208 690 m 603 303 q 606 360 606 326 q 585 497 599 461 q 485 601 521 586 q 315 601 351 617 q 215 497 229 533 q 194 360 194 394 q 215 225 201 261 q 315 121 279 136 q 485 121 449 106 q 585 225 571 189 m 485 819 q 433 826 454 819 q 365 857 379 850 q 311 858 318 864 q 291 832 296 838 l 224 826 q 197 853 197 842 q 224 935 210 914 q 317 986 285 986 q 404 964 389 972 q 467 942 449 942 q 501 960 497 953 q 526 979 515 979 q 597 972 590 979 q 598 915 604 938 q 540 835 563 850 z "},"ö":{"ha":801,"x_min":68,"x_max":731,"o":"m 68 0 m 400 736 q 533 713 475 736 q 699 552 675 610 q 731 397 731 414 q 731 324 731 342 q 699 169 722 226 q 533 9 592 32 q 267 9 325 -14 q 101 169 125 113 q 69 324 69 307 q 69 397 68 379 q 101 552 76 494 q 267 713 208 690 m 603 303 q 606 360 606 326 q 585 497 599 461 q 485 601 521 586 q 315 601 351 617 q 215 497 229 533 q 194 360 194 394 q 215 225 201 261 q 315 121 279 136 q 485 121 449 106 q 585 225 571 189 m 351 871 q 340 844 351 856 l 235 833 q 197 871 197 856 q 208 976 197 965 l 314 988 q 351 950 351 965 m 603 871 q 592 844 603 856 l 486 833 q 449 871 449 856 q 460 976 449 965 l 565 988 q 603 950 603 965 z "},"÷":{"ha":743,"x_min":74,"x_max":669,"o":"m 418 744 q 444 733 433 744 l 456 614 q 418 576 433 576 q 299 588 310 576 l 288 707 q 325 744 310 744 m 418 258 q 444 247 433 258 l 456 128 q 418 90 433 90 q 299 101 310 90 l 288 221 q 325 258 310 258 m 111 357 q 85 368 96 357 l 74 439 q 111 476 96 476 q 658 465 647 476 l 669 394 q 632 357 647 357 z "},"ø":{"ha":843,"x_min":17,"x_max":826,"o":"m 422 736 q 615 683 539 736 l 782 560 q 818 556 810 564 l 826 496 l 750 432 q 751 426 751 428 q 753 360 753 379 q 751 296 753 307 q 656 72 697 113 q 422 -14 497 -14 q 117 185 151 93 q 46 158 50 158 q 17 188 17 175 q 47 272 17 261 l 93 296 q 90 360 90 342 q 93 426 92 414 q 189 650 147 610 q 422 736 347 736 m 625 303 q 627 340 626 318 l 235 231 q 422 106 347 106 q 568 163 543 136 q 625 303 621 261 m 219 419 q 217 381 217 403 l 610 492 q 422 617 497 617 q 276 560 301 586 q 219 419 224 461 z "},"ù":{"ha":829,"x_min":97,"x_max":725,"o":"m 97 0 m 97 685 q 108 711 97 700 l 186 722 q 224 685 224 700 q 272 158 224 211 q 549 158 499 106 l 599 685 q 636 722 621 722 q 714 711 703 722 l 725 38 q 688 0 703 0 q 610 11 621 0 l 599 81 q 390 -14 475 -14 q 178 69 217 29 q 97 297 97 224 m 472 867 q 479 849 479 860 l 406 826 q 347 850 358 840 q 186 993 186 983 l 315 1021 q 367 994 351 1013 z "},"ú":{"ha":829,"x_min":97,"x_max":725,"o":"m 97 0 m 97 685 q 108 711 97 700 l 186 722 q 224 685 224 700 q 272 158 224 211 q 549 158 499 106 l 599 685 q 636 722 621 722 q 714 711 703 722 l 725 38 q 688 0 703 0 q 610 11 621 0 l 599 81 q 390 -14 475 -14 q 178 69 217 29 q 97 297 97 224 m 447 994 q 473 1017 463 1013 l 601 1021 q 621 976 628 983 q 443 833 456 840 l 357 826 q 342 867 335 860 z "},"û":{"ha":829,"x_min":97,"x_max":725,"o":"m 97 0 m 97 685 q 108 711 97 700 l 186 722 q 224 685 224 700 q 272 158 224 211 q 549 158 499 106 l 599 685 q 636 722 621 722 q 714 711 703 722 l 725 38 q 688 0 703 0 q 610 11 621 0 l 599 81 q 390 -14 475 -14 q 178 69 217 29 q 97 297 97 224 m 425 1021 q 451 1015 440 1021 l 604 867 q 589 826 611 826 q 538 830 546 826 l 411 913 q 285 830 293 833 l 233 826 q 218 867 211 860 q 371 1015 360 1010 l 425 1021 z "},"ü":{"ha":829,"x_min":97,"x_max":725,"o":"m 97 0 m 97 685 q 108 711 97 700 l 186 722 q 224 685 224 700 q 272 158 224 211 q 549 158 499 106 l 599 685 q 636 722 621 722 q 714 711 703 722 l 725 38 q 688 0 703 0 q 610 11 621 0 l 599 81 q 390 -14 475 -14 q 178 69 217 29 q 97 297 97 224 m 363 871 q 351 844 363 856 l 246 833 q 208 871 208 856 q 219 976 208 965 l 325 988 q 363 950 363 965 m 614 871 q 603 844 614 856 l 497 833 q 460 871 460 856 q 471 976 460 965 l 576 988 q 614 950 614 965 z "},"ý":{"ha":774,"x_min":44,"x_max":736,"o":"m 44 0 m 317 -231 q 303 -253 313 -242 l 219 -264 q 186 -231 186 -244 l 321 69 q 44 689 44 683 q 78 722 64 722 q 161 711 151 722 l 389 217 q 619 711 610 700 l 703 722 q 736 689 736 703 l 317 -231 m 428 994 q 453 1017 443 1013 l 582 1021 q 601 976 608 983 q 424 833 436 840 l 338 826 q 322 867 315 860 z "},"þ":{"ha":832,"x_min":106,"x_max":764,"o":"m 447 -14 q 310 16 361 -14 l 232 -226 q 194 -264 210 -264 q 117 -253 128 -264 l 106 949 q 143 986 128 986 q 221 975 210 986 l 232 642 q 447 736 363 736 q 667 647 625 690 q 763 406 758 482 q 763 315 764 336 q 667 74 708 117 q 447 -14 513 -14 m 232 421 q 231 366 231 400 q 291 159 236 213 q 578 164 525 106 q 636 400 638 361 q 433 617 525 617 q 232 421 236 511 z "},"ÿ":{"ha":774,"x_min":44,"x_max":736,"o":"m 44 0 m 317 -231 q 303 -253 313 -242 l 219 -264 q 186 -231 186 -244 l 321 69 q 44 689 44 683 q 78 722 64 722 q 161 711 151 722 l 389 217 q 619 711 610 700 l 703 722 q 736 689 736 703 l 317 -231 m 340 871 q 329 844 340 856 l 224 833 q 186 871 186 856 q 197 976 186 965 l 303 988 q 340 950 340 965 m 592 871 q 581 844 592 856 l 475 833 q 438 871 438 856 q 449 976 438 965 l 554 988 q 592 950 592 965 z "},"Ā":{"ha":944,"x_min":22,"x_max":921,"o":"m 22 0 m 713 219 l 231 219 q 143 12 154 24 l 53 0 q 22 31 22 18 l 368 926 q 431 972 403 972 q 556 957 542 972 l 915 50 q 912 9 921 18 l 839 0 q 785 35 789 24 m 279 344 l 664 344 l 279 344 m 314 1042 q 288 1053 299 1042 l 276 1129 q 314 1167 299 1167 q 658 1156 647 1167 l 669 1079 q 632 1042 647 1042 z "},"ā":{"ha":758,"x_min":53,"x_max":660,"o":"m 53 0 m 53 182 q 75 279 53 238 q 227 397 175 379 l 533 457 q 487 581 533 546 q 278 594 310 617 q 207 526 217 531 l 139 522 q 101 560 100 544 q 184 679 147 654 q 371 736 317 736 q 578 665 540 700 q 660 461 660 528 q 649 11 660 22 l 571 0 q 533 38 533 22 q 494 48 521 68 q 363 -7 400 0 q 195 1 240 -14 q 70 104 88 68 m 308 106 q 400 121 358 106 q 517 228 501 190 l 533 346 q 231 275 282 306 q 186 165 179 181 q 248 114 224 122 m 218 840 q 192 851 203 840 l 181 922 q 218 960 203 960 q 549 949 538 960 l 560 878 q 522 840 538 840 z "},"Ă":{"ha":944,"x_min":22,"x_max":921,"o":"m 22 0 m 713 219 l 231 219 q 143 12 154 24 l 53 0 q 22 31 22 18 l 368 926 q 431 972 403 972 q 556 957 542 972 l 915 50 q 912 9 921 18 l 839 0 q 785 35 789 24 m 279 344 l 664 344 l 279 344 m 472 1035 q 391 1050 425 1035 q 303 1147 314 1115 q 300 1228 293 1221 l 364 1236 q 390 1210 390 1221 q 472 1126 435 1126 q 554 1210 554 1174 q 581 1236 568 1236 q 644 1228 638 1236 q 641 1147 651 1178 q 553 1050 588 1065 z "},"ă":{"ha":758,"x_min":53,"x_max":660,"o":"m 53 0 m 53 182 q 75 279 53 238 q 227 397 175 379 l 533 457 q 487 581 533 546 q 278 594 310 617 q 207 526 217 531 l 139 522 q 101 560 100 544 q 184 679 147 654 q 371 736 317 736 q 578 665 540 700 q 660 461 660 528 q 649 11 660 22 l 571 0 q 533 38 533 22 q 494 48 521 68 q 363 -7 400 0 q 195 1 240 -14 q 70 104 88 68 m 308 106 q 400 121 358 106 q 517 228 501 190 l 533 346 q 231 275 282 306 q 186 165 179 181 q 248 114 224 122 m 369 819 q 292 835 325 819 q 208 931 218 900 q 204 1013 197 1006 l 268 1021 q 294 994 294 1006 q 369 911 333 911 q 444 994 444 958 q 471 1021 458 1021 q 535 1013 528 1021 q 531 931 542 963 q 447 835 479 850 z "},"Ą":{"ha":944,"x_min":22,"x_max":921,"o":"m 846 -306 q 767 -292 804 -306 q 663 -190 678 -228 q 679 19 647 -28 l 713 219 l 158 35 q 104 0 132 0 q 31 9 40 0 q 28 50 22 38 q 389 957 375 942 l 514 972 q 576 926 569 942 q 921 31 921 38 q 890 0 903 0 q 760 -103 760 0 l 872 -206 l 903 -275 l 846 -306 m 279 344 l 664 344 l 279 344 z "},"ą":{"ha":758,"x_min":53,"x_max":660,"o":"m 53 182 q 75 279 53 238 q 227 397 175 379 l 533 457 q 487 581 533 546 q 278 594 310 617 q 207 526 217 531 l 139 522 q 101 560 100 544 q 184 679 147 654 q 371 736 317 736 q 578 665 540 700 q 660 461 660 528 q 647 0 660 10 q 582 -46 597 -33 q 546 -117 546 -92 l 628 -206 l 658 -275 l 614 -306 q 433 -117 433 -206 q 468 -18 453 -37 q 533 42 518 32 q 494 48 521 68 q 363 -7 400 0 q 195 1 240 -14 q 70 104 88 68 m 308 106 q 400 121 358 106 q 517 228 501 190 l 533 346 q 231 275 282 306 q 186 165 179 181 q 248 114 224 122 z "},"Ć":{"ha":926,"x_min":79,"x_max":864,"o":"m 79 0 m 215 603 q 213 486 213 540 q 285 183 219 254 q 588 128 542 111 q 709 231 693 197 q 747 323 736 315 l 833 331 q 864 300 864 313 q 772 98 818 146 q 475 -14 579 -14 q 192 93 243 43 q 83 363 86 281 q 114 760 86 690 q 314 958 243 929 q 652 954 579 986 q 840 772 818 826 q 855 651 864 660 l 769 642 q 733 672 736 657 q 663 801 693 775 q 475 861 542 861 q 215 603 219 718 m 508 1210 q 534 1232 524 1228 l 669 1236 q 689 1192 696 1199 q 511 1049 524 1056 l 418 1042 q 403 1082 396 1075 z "},"ć":{"ha":771,"x_min":68,"x_max":710,"o":"m 68 0 m 197 313 q 222 218 203 257 q 328 117 294 129 q 510 131 463 106 q 603 244 593 236 l 671 251 q 708 214 710 229 q 627 67 667 101 q 396 -14 472 -14 q 160 79 201 36 q 71 306 74 239 q 71 417 68 393 q 163 643 122 600 q 396 736 319 736 q 627 655 588 689 q 708 508 707 542 q 671 471 686 471 q 603 478 614 471 q 510 592 557 567 q 327 605 361 617 q 220 504 239 543 q 197 313 193 358 m 438 994 q 463 1017 453 1013 l 592 1021 q 611 976 618 983 q 433 833 446 840 l 347 826 q 332 867 325 860 z "},"Ĉ":{"ha":926,"x_min":79,"x_max":864,"o":"m 79 0 m 215 603 q 213 486 213 540 q 285 183 219 254 q 588 128 542 111 q 709 231 693 197 q 747 323 736 315 l 833 331 q 864 300 864 313 q 772 98 818 146 q 475 -14 579 -14 q 192 93 243 43 q 83 363 86 281 q 114 760 86 690 q 314 958 243 929 q 652 954 579 986 q 840 772 818 826 q 855 651 864 660 l 769 642 q 733 672 736 657 q 663 801 693 775 q 475 861 542 861 q 215 603 219 718 m 493 1236 q 519 1231 508 1236 l 672 1082 q 657 1042 679 1042 q 599 1045 607 1042 l 472 1128 q 346 1045 354 1049 l 288 1042 q 272 1082 265 1075 q 425 1231 414 1225 l 493 1236 z "},"ĉ":{"ha":771,"x_min":68,"x_max":710,"o":"m 68 0 m 197 313 q 222 218 203 257 q 328 117 294 129 q 510 131 463 106 q 603 244 593 236 l 671 251 q 708 214 710 229 q 627 67 667 101 q 396 -14 472 -14 q 160 79 201 36 q 71 306 74 239 q 71 417 68 393 q 163 643 122 600 q 396 736 319 736 q 627 655 588 689 q 708 508 707 542 q 671 471 686 471 q 603 478 614 471 q 510 592 557 567 q 327 605 361 617 q 220 504 239 543 q 197 313 193 358 m 403 1021 q 429 1015 418 1021 l 582 867 q 567 826 589 826 q 515 830 524 826 l 389 913 q 263 830 271 833 l 211 826 q 196 867 189 860 q 349 1015 338 1010 l 403 1021 z "},"Ċ":{"ha":926,"x_min":79,"x_max":864,"o":"m 79 0 m 215 603 q 213 486 213 540 q 285 183 219 254 q 588 128 542 111 q 709 231 693 197 q 747 323 736 315 l 833 331 q 864 300 864 313 q 772 98 818 146 q 475 -14 579 -14 q 192 93 243 43 q 83 363 86 281 q 114 760 86 690 q 314 958 243 929 q 652 954 579 986 q 840 772 818 826 q 855 651 864 660 l 769 642 q 733 672 736 657 q 663 801 693 775 q 475 861 542 861 q 215 603 219 718 m 542 1079 q 531 1053 542 1064 l 425 1042 q 388 1079 388 1064 q 399 1185 388 1174 l 504 1196 q 542 1158 542 1174 z "},"ċ":{"ha":771,"x_min":68,"x_max":710,"o":"m 68 0 m 197 313 q 222 218 203 257 q 328 117 294 129 q 510 131 463 106 q 603 244 593 236 l 671 251 q 708 214 710 229 q 627 67 667 101 q 396 -14 472 -14 q 160 79 201 36 q 71 306 74 239 q 71 417 68 393 q 163 643 122 600 q 396 736 319 736 q 627 655 588 689 q 708 508 707 542 q 671 471 686 471 q 603 478 614 471 q 510 592 557 567 q 327 605 361 617 q 220 504 239 543 q 197 313 193 358 m 467 871 q 456 844 467 856 l 350 833 q 313 871 313 856 q 324 976 313 965 l 429 988 q 467 950 467 965 z "},"Č":{"ha":926,"x_min":79,"x_max":864,"o":"m 79 0 m 215 603 q 213 486 213 540 q 285 183 219 254 q 588 128 542 111 q 709 231 693 197 q 747 323 736 315 l 833 331 q 864 300 864 313 q 772 98 818 146 q 475 -14 579 -14 q 192 93 243 43 q 83 363 86 281 q 114 760 86 690 q 314 958 243 929 q 652 954 579 986 q 840 772 818 826 q 855 651 864 660 l 769 642 q 733 672 736 657 q 663 801 693 775 q 475 861 542 861 q 215 603 219 718 m 451 1042 q 425 1047 436 1042 l 272 1196 q 288 1236 265 1236 q 346 1233 338 1236 l 472 1150 q 599 1233 590 1229 l 657 1236 q 672 1196 679 1203 q 519 1047 531 1053 l 451 1042 z "},"č":{"ha":771,"x_min":68,"x_max":710,"o":"m 68 0 m 197 313 q 222 218 203 257 q 328 117 294 129 q 510 131 463 106 q 603 244 593 236 l 671 251 q 708 214 710 229 q 627 67 667 101 q 396 -14 472 -14 q 160 79 201 36 q 71 306 74 239 q 71 417 68 393 q 163 643 122 600 q 396 736 319 736 q 627 655 588 689 q 708 508 707 542 q 671 471 686 471 q 603 478 614 471 q 510 592 557 567 q 327 605 361 617 q 220 504 239 543 q 197 313 193 358 m 375 826 q 349 832 360 826 l 196 981 q 211 1021 189 1021 q 263 1017 254 1021 l 389 935 q 515 1017 507 1014 l 567 1021 q 582 981 589 988 q 429 832 440 838 l 375 826 z "},"Ď":{"ha":956,"x_min":119,"x_max":875,"o":"m 119 0 m 874 596 q 875 486 875 533 q 843 219 872 289 q 640 26 711 51 l 157 0 q 119 38 119 22 q 131 961 119 950 l 475 972 q 760 872 707 921 q 874 596 872 683 m 742 589 q 726 685 740 639 q 596 826 647 804 l 251 847 l 476 125 q 683 204 653 168 q 742 383 740 333 q 743 485 743 463 q 742 589 742 557 m 435 1042 q 408 1047 419 1042 l 256 1196 q 271 1236 249 1236 q 329 1233 321 1236 l 456 1150 q 582 1233 574 1229 l 640 1236 q 656 1196 663 1203 q 503 1047 514 1053 l 435 1042 z "},"ď":{"ha":911,"x_min":68,"x_max":992,"o":"m 68 0 m 385 736 q 522 706 471 736 l 600 949 q 638 986 622 986 q 715 975 704 986 l 726 38 q 689 0 704 0 q 611 11 622 0 l 600 81 q 385 -14 469 -14 q 165 75 207 32 q 69 317 74 240 q 69 407 68 386 q 165 648 124 606 q 385 736 319 736 m 600 301 q 601 356 601 322 q 541 563 596 510 q 254 558 307 617 q 196 322 194 361 q 399 106 307 106 q 600 301 596 211 m 829 932 q 847 969 832 951 l 961 986 q 992 956 992 968 l 915 753 q 856 708 883 708 q 809 717 818 708 l 800 742 z "},"Đ":{"ha":975,"x_min":21,"x_max":894,"o":"m 893 596 q 894 486 894 533 q 863 219 892 289 q 660 26 731 51 l 176 0 q 139 38 139 22 l 58 433 q 21 471 21 456 q 32 540 21 529 l 139 551 q 150 961 139 950 l 494 972 q 779 872 726 921 q 893 596 892 683 m 761 589 q 745 685 760 639 q 615 826 667 804 l 271 847 l 458 551 q 496 514 496 529 q 485 444 496 456 l 271 433 l 496 125 q 703 204 672 168 q 761 383 760 333 q 763 485 763 463 q 761 589 761 557 z "},"đ":{"ha":831,"x_min":68,"x_max":838,"o":"m 385 736 q 522 706 471 736 l 600 785 q 489 815 489 785 q 519 882 489 882 l 600 949 q 638 986 622 986 q 715 975 704 986 l 726 882 q 838 851 838 882 q 807 785 838 785 l 726 38 q 689 0 704 0 q 611 11 622 0 l 600 81 q 385 -14 469 -14 q 165 75 207 32 q 69 317 74 240 q 69 407 68 386 q 165 648 124 606 q 385 736 319 736 m 600 301 q 601 356 601 322 q 541 563 596 510 q 254 558 307 617 q 196 322 194 361 q 399 106 307 106 q 600 301 596 211 z "},"Ē":{"ha":822,"x_min":119,"x_max":756,"o":"m 119 0 m 718 125 q 744 114 733 125 l 756 38 q 718 0 733 0 q 131 11 142 0 l 119 935 q 157 972 142 972 q 733 961 722 972 l 744 885 q 707 847 722 847 l 251 554 q 703 543 692 554 l 714 467 q 676 429 692 429 l 251 125 m 279 1042 q 253 1053 264 1042 l 242 1129 q 279 1167 264 1167 q 624 1156 613 1167 l 635 1079 q 597 1042 613 1042 z "},"ē":{"ha":774,"x_min":64,"x_max":710,"o":"m 64 0 m 71 431 q 101 550 76 494 q 263 713 207 689 q 523 712 464 736 q 688 531 665 596 l 710 347 q 672 310 688 310 l 194 301 q 389 106 307 106 q 565 175 542 149 q 610 194 593 194 q 679 183 667 194 q 665 102 685 132 q 517 3 572 21 q 264 10 319 -14 q 101 177 126 119 q 71 431 64 367 m 194 426 l 585 426 q 531 566 585 515 q 314 603 349 617 q 211 507 226 542 l 194 426 m 236 840 q 210 851 221 840 l 199 922 q 236 960 221 960 q 567 949 556 960 l 578 878 q 540 840 556 840 z "},"Ĕ":{"ha":822,"x_min":119,"x_max":756,"o":"m 119 0 m 718 125 q 744 114 733 125 l 756 38 q 718 0 733 0 q 131 11 142 0 l 119 935 q 157 972 142 972 q 733 961 722 972 l 744 885 q 707 847 722 847 l 251 554 q 703 543 692 554 l 714 467 q 676 429 692 429 l 251 125 m 438 1035 q 356 1050 390 1035 q 269 1147 279 1115 q 265 1228 258 1221 l 329 1236 q 356 1210 356 1221 q 438 1126 400 1126 q 519 1210 519 1174 q 546 1236 533 1236 q 610 1228 603 1236 q 606 1147 617 1178 q 519 1050 553 1065 z "},"ĕ":{"ha":774,"x_min":64,"x_max":710,"o":"m 64 0 m 71 431 q 101 550 76 494 q 263 713 207 689 q 523 712 464 736 q 688 531 665 596 l 710 347 q 672 310 688 310 l 194 301 q 389 106 307 106 q 565 175 542 149 q 610 194 593 194 q 679 183 667 194 q 665 102 685 132 q 517 3 572 21 q 264 10 319 -14 q 101 177 126 119 q 71 431 64 367 m 194 426 l 585 426 q 531 566 585 515 q 314 603 349 617 q 211 507 226 542 l 194 426 m 388 819 q 310 835 343 819 q 226 931 236 900 q 222 1013 215 1006 l 286 1021 q 313 994 313 1006 q 388 911 351 911 q 463 994 463 958 q 489 1021 476 1021 q 553 1013 546 1021 q 549 931 560 963 q 465 835 497 850 z "},"Ė":{"ha":822,"x_min":119,"x_max":756,"o":"m 119 0 m 718 125 q 744 114 733 125 l 756 38 q 718 0 733 0 q 131 11 142 0 l 119 935 q 157 972 142 972 q 733 961 722 972 l 744 885 q 707 847 722 847 l 251 554 q 703 543 692 554 l 714 467 q 676 429 692 429 l 251 125 m 515 1079 q 504 1053 515 1064 l 399 1042 q 361 1079 361 1064 q 372 1185 361 1174 l 478 1196 q 515 1158 515 1174 z "},"ė":{"ha":774,"x_min":64,"x_max":710,"o":"m 64 0 m 71 431 q 101 550 76 494 q 263 713 207 689 q 523 712 464 736 q 688 531 665 596 l 710 347 q 672 310 688 310 l 194 301 q 389 106 307 106 q 565 175 542 149 q 610 194 593 194 q 679 183 667 194 q 665 102 685 132 q 517 3 572 21 q 264 10 319 -14 q 101 177 126 119 q 71 431 64 367 m 194 426 l 585 426 q 531 566 585 515 q 314 603 349 617 q 211 507 226 542 l 194 426 m 465 871 q 454 844 465 856 l 349 833 q 311 871 311 856 q 322 976 311 965 l 428 988 q 465 950 465 965 z "},"Ę":{"ha":822,"x_min":119,"x_max":756,"o":"m 699 -306 q 620 -292 657 -306 q 515 -190 531 -228 q 521 0 500 -42 q 131 11 142 0 l 119 935 q 157 972 142 972 q 733 961 722 972 l 744 885 q 707 847 722 847 l 251 554 q 703 543 692 554 l 714 467 q 676 429 692 429 l 251 125 q 744 114 733 125 l 756 38 q 718 0 733 0 q 613 -103 613 0 l 725 -206 l 756 -275 l 699 -306 z "},"ę":{"ha":774,"x_min":64,"x_max":710,"o":"m 71 431 q 101 550 76 494 q 263 713 207 689 q 523 712 464 736 q 688 531 665 596 l 710 347 q 672 310 688 310 l 194 301 q 389 106 307 106 q 565 175 542 149 q 610 194 593 194 q 679 183 667 194 q 668 106 685 133 q 543 13 589 31 q 372 -36 393 -18 q 442 -206 350 -206 q 493 -236 493 -206 q 463 -306 493 -306 q 358 -292 394 -306 q 253 -190 268 -228 q 264 10 238 -39 q 71 303 81 200 m 194 426 l 585 426 q 531 566 585 515 q 314 603 349 617 q 211 507 226 542 l 194 426 z "},"Ě":{"ha":822,"x_min":119,"x_max":756,"o":"m 119 0 m 718 125 q 744 114 733 125 l 756 38 q 718 0 733 0 q 131 11 142 0 l 119 935 q 157 972 142 972 q 733 961 722 972 l 744 885 q 707 847 722 847 l 251 554 q 703 543 692 554 l 714 467 q 676 429 692 429 l 251 125 m 417 1042 q 390 1047 401 1042 l 238 1196 q 253 1236 231 1236 q 311 1233 303 1236 l 438 1150 q 564 1233 556 1229 l 622 1236 q 638 1196 644 1203 q 485 1047 496 1053 l 417 1042 z "},"ě":{"ha":774,"x_min":64,"x_max":710,"o":"m 64 0 m 71 431 q 101 550 76 494 q 263 713 207 689 q 523 712 464 736 q 688 531 665 596 l 710 347 q 672 310 688 310 l 194 301 q 389 106 307 106 q 565 175 542 149 q 610 194 593 194 q 679 183 667 194 q 665 102 685 132 q 517 3 572 21 q 264 10 319 -14 q 101 177 126 119 q 71 431 64 367 m 194 426 l 585 426 q 531 566 585 515 q 314 603 349 617 q 211 507 226 542 l 194 426 m 374 826 q 347 832 358 826 l 194 981 q 210 1021 188 1021 q 261 1017 253 1021 l 388 935 q 514 1017 506 1014 l 565 1021 q 581 981 588 988 q 428 832 439 838 l 374 826 z "},"Ĝ":{"ha":950,"x_min":79,"x_max":878,"o":"m 79 0 m 83 613 q 110 757 86 689 q 307 957 233 928 q 647 958 575 986 q 838 802 814 849 q 856 697 865 706 l 776 688 q 698 765 719 736 q 577 849 618 836 q 376 845 424 861 q 238 717 258 765 q 213 490 213 543 q 238 258 217 308 q 376 127 328 143 q 585 125 536 111 q 726 251 706 201 l 746 413 q 519 424 531 413 l 508 500 q 546 538 531 538 q 867 526 856 538 l 878 368 q 774 94 825 144 q 481 -14 575 -14 q 185 97 233 46 q 83 368 86 288 m 500 1236 q 526 1231 515 1236 l 679 1082 q 664 1042 686 1042 q 606 1045 614 1042 l 479 1128 q 353 1045 361 1049 l 294 1042 q 279 1082 272 1075 q 432 1231 421 1225 l 500 1236 z "},"ĝ":{"ha":831,"x_min":68,"x_max":726,"o":"m 68 0 m 69 407 q 99 544 74 483 q 263 713 207 690 q 522 706 471 736 l 600 685 q 638 722 622 722 q 715 711 704 722 l 726 10 q 399 -306 563 -306 q 159 -235 197 -265 q 82 -99 83 -132 q 119 -61 104 -61 q 187 -69 176 -61 q 220 -122 211 -107 q 302 -176 269 -165 q 470 -177 431 -186 q 584 -92 568 -126 l 600 81 q 385 -14 469 -14 q 165 74 207 32 q 69 315 74 239 q 69 407 68 386 m 600 411 q 541 563 596 510 q 254 558 307 617 q 196 322 194 361 q 399 106 307 106 q 600 311 596 214 q 600 411 601 390 m 411 1021 q 438 1015 426 1021 l 590 867 q 575 826 597 826 q 524 830 532 826 l 397 913 q 271 830 279 833 l 219 826 q 204 867 197 860 q 357 1015 346 1010 l 411 1021 z "},"Ğ":{"ha":950,"x_min":79,"x_max":878,"o":"m 79 0 m 83 613 q 110 757 86 689 q 307 957 233 928 q 647 958 575 986 q 838 802 814 849 q 856 697 865 706 l 776 688 q 698 765 719 736 q 577 849 618 836 q 376 845 424 861 q 238 717 258 765 q 213 490 213 543 q 238 258 217 308 q 376 127 328 143 q 585 125 536 111 q 726 251 706 201 l 746 413 q 519 424 531 413 l 508 500 q 546 538 531 538 q 867 526 856 538 l 878 368 q 774 94 825 144 q 481 -14 575 -14 q 185 97 233 46 q 83 368 86 288 m 479 1035 q 398 1050 432 1035 q 310 1147 321 1115 q 307 1228 300 1221 l 371 1236 q 397 1210 397 1221 q 479 1126 442 1126 q 561 1210 561 1174 q 588 1236 575 1236 q 651 1228 644 1236 q 648 1147 658 1178 q 560 1050 594 1065 z "},"ğ":{"ha":831,"x_min":68,"x_max":726,"o":"m 68 0 m 69 407 q 99 544 74 483 q 263 713 207 690 q 522 706 471 736 l 600 685 q 638 722 622 722 q 715 711 704 722 l 726 10 q 399 -306 563 -306 q 159 -235 197 -265 q 82 -99 83 -132 q 119 -61 104 -61 q 187 -69 176 -61 q 220 -122 211 -107 q 302 -176 269 -165 q 470 -177 431 -186 q 584 -92 568 -126 l 600 81 q 385 -14 469 -14 q 165 74 207 32 q 69 315 74 239 q 69 407 68 386 m 600 411 q 541 563 596 510 q 254 558 307 617 q 196 322 194 361 q 399 106 307 106 q 600 311 596 214 q 600 411 601 390 m 397 819 q 320 835 353 819 q 235 931 246 900 q 232 1013 225 1006 l 296 1021 q 322 994 322 1006 q 397 911 361 911 q 472 994 472 958 q 499 1021 486 1021 q 563 1013 556 1021 q 559 931 569 963 q 474 835 507 850 z "},"Ġ":{"ha":950,"x_min":79,"x_max":878,"o":"m 79 0 m 83 613 q 110 757 86 689 q 307 957 233 928 q 647 958 575 986 q 838 802 814 849 q 856 697 865 706 l 776 688 q 698 765 719 736 q 577 849 618 836 q 376 845 424 861 q 238 717 258 765 q 213 490 213 543 q 238 258 217 308 q 376 127 328 143 q 585 125 536 111 q 726 251 706 201 l 746 413 q 519 424 531 413 l 508 500 q 546 538 531 538 q 867 526 856 538 l 878 368 q 774 94 825 144 q 481 -14 575 -14 q 185 97 233 46 q 83 368 86 288 m 557 1079 q 546 1053 557 1064 l 440 1042 q 403 1079 403 1064 q 414 1185 403 1174 l 519 1196 q 557 1158 557 1174 z "},"ġ":{"ha":831,"x_min":68,"x_max":726,"o":"m 68 0 m 69 407 q 99 544 74 483 q 263 713 207 690 q 522 706 471 736 l 600 685 q 638 722 622 722 q 715 711 704 722 l 726 10 q 399 -306 563 -306 q 159 -235 197 -265 q 82 -99 83 -132 q 119 -61 104 -61 q 187 -69 176 -61 q 220 -122 211 -107 q 302 -176 269 -165 q 470 -177 431 -186 q 584 -92 568 -126 l 600 81 q 385 -14 469 -14 q 165 74 207 32 q 69 315 74 239 q 69 407 68 386 m 600 411 q 541 563 596 510 q 254 558 307 617 q 196 322 194 361 q 399 106 307 106 q 600 311 596 214 q 600 411 601 390 m 475 871 q 464 844 475 856 l 358 833 q 321 871 321 856 q 332 976 321 965 l 438 988 q 475 950 475 965 z "},"Ģ":{"ha":950,"x_min":79,"x_max":878,"o":"m 79 0 m 83 613 q 110 757 86 689 q 307 957 233 928 q 647 958 575 986 q 838 802 814 849 q 856 697 865 706 l 776 688 q 698 765 719 736 q 577 849 618 836 q 376 845 424 861 q 238 717 258 765 q 213 490 213 543 q 238 258 217 308 q 376 127 328 143 q 585 125 536 111 q 726 251 706 201 l 746 413 q 519 424 531 413 l 508 500 q 546 538 531 538 q 867 526 856 538 l 878 368 q 774 94 825 144 q 481 -14 575 -14 q 185 97 233 46 q 83 368 86 288 m 389 -124 q 406 -87 392 -104 l 529 -69 q 560 -100 560 -87 l 483 -303 q 424 -347 451 -347 q 369 -338 378 -347 l 360 -314 z "},"ģ":{"ha":831,"x_min":68,"x_max":726,"o":"m 69 407 q 99 544 74 483 q 263 713 207 690 q 522 706 471 736 l 600 685 q 638 722 622 722 q 715 711 704 722 l 726 10 q 399 -306 563 -306 q 159 -235 197 -265 q 82 -99 83 -132 q 119 -61 104 -61 q 187 -69 176 -61 q 220 -122 211 -107 q 302 -176 269 -165 q 470 -177 431 -186 q 584 -92 568 -126 l 600 81 q 385 -14 469 -14 q 165 74 207 32 q 69 315 74 239 q 69 407 68 386 m 600 411 q 541 563 596 510 q 254 558 307 617 q 196 322 194 361 q 399 106 307 106 q 600 311 596 214 q 600 411 601 390 m 488 881 q 470 844 485 861 l 356 826 q 325 857 325 844 l 401 1060 q 461 1104 433 1104 q 508 1095 499 1104 l 517 1071 z "},"Ĥ":{"ha":992,"x_min":119,"x_max":872,"o":"m 119 0 m 835 972 q 861 961 850 972 l 872 38 q 835 0 850 0 q 751 11 763 0 l 740 429 l 251 38 q 214 0 229 0 q 131 10 142 0 l 119 935 q 157 972 142 972 q 240 961 229 972 l 251 554 l 740 935 q 778 972 763 972 m 517 1236 q 543 1231 532 1236 l 696 1082 q 681 1042 703 1042 q 622 1045 631 1042 l 496 1128 q 369 1045 378 1049 l 311 1042 q 296 1082 289 1075 q 449 1231 438 1225 l 517 1236 z "},"ĥ":{"ha":843,"x_min":104,"x_max":746,"o":"m 104 0 m 746 38 q 735 11 746 22 l 657 0 q 619 38 619 22 q 568 564 619 511 q 284 564 338 617 l 231 38 q 193 0 208 0 q 115 11 126 0 l 104 949 q 142 986 126 986 q 219 975 208 986 l 231 642 q 446 736 361 736 q 662 653 622 693 q 746 425 746 497 m 439 1236 q 465 1231 454 1236 l 618 1082 q 603 1042 625 1042 q 551 1045 560 1042 l 425 1128 q 299 1045 307 1049 l 247 1042 q 232 1082 225 1075 q 385 1231 374 1225 l 439 1236 z "},"Ħ":{"ha":1011,"x_min":32,"x_max":979,"o":"m 844 972 q 871 961 860 972 l 882 825 q 968 814 957 825 l 979 738 q 942 700 957 700 l 882 38 q 844 0 860 0 q 761 11 772 0 l 750 429 l 261 38 q 224 0 239 0 q 140 10 151 0 l 129 700 q 43 711 54 700 l 32 788 q 69 825 54 825 l 129 935 q 167 972 151 972 q 250 961 239 972 l 261 825 l 750 935 q 788 972 772 972 m 750 554 l 750 700 l 261 554 z "},"ħ":{"ha":843,"x_min":-7,"x_max":746,"o":"m 746 38 q 735 11 746 22 l 657 0 q 619 38 619 22 q 568 564 619 511 q 284 564 338 617 l 231 38 q 193 0 208 0 q 115 11 126 0 l 104 785 q -7 815 -7 785 q 24 882 -7 882 l 104 949 q 142 986 126 986 q 219 975 208 986 l 231 882 q 342 851 342 882 q 311 785 342 785 l 231 642 q 446 736 361 736 q 662 653 622 693 q 746 425 746 497 z "},"Ĩ":{"ha":371,"x_min":-21,"x_max":394,"o":"m 0 0 m 157 0 q 131 11 142 0 l 119 935 q 157 972 142 972 q 240 961 229 972 l 251 38 q 214 0 229 0 m 275 1035 q 222 1042 243 1035 q 150 1072 165 1065 q 93 1074 100 1079 q 73 1047 78 1053 l 6 1042 q -21 1068 -21 1057 q 6 1150 -8 1129 q 99 1201 67 1201 q 190 1179 174 1188 q 257 1157 238 1157 q 292 1176 288 1168 q 317 1194 306 1194 q 388 1187 381 1194 q 388 1130 394 1153 q 330 1050 353 1065 z "},"ĩ":{"ha":335,"x_min":-35,"x_max":372,"o":"m 0 0 m 231 38 q 219 11 231 22 l 142 0 q 104 38 104 22 q 115 711 104 700 l 193 722 q 231 685 231 700 m 253 819 q 201 826 222 819 q 133 857 147 850 q 79 858 86 864 q 59 832 64 838 l -8 826 q -35 853 -35 842 q -8 935 -22 914 q 85 986 53 986 q 172 964 157 972 q 235 942 217 942 q 269 960 265 953 q 294 979 283 979 q 365 972 358 979 q 366 915 372 938 q 308 835 331 850 z "},"Ī":{"ha":371,"x_min":-10,"x_max":383,"o":"m 0 0 m 157 0 q 131 11 142 0 l 119 935 q 157 972 142 972 q 240 961 229 972 l 251 38 q 214 0 229 0 m 28 1042 q 1 1053 13 1042 l -10 1129 q 28 1167 13 1167 q 372 1156 361 1167 l 383 1079 q 346 1042 361 1042 z "},"ī":{"ha":335,"x_min":-21,"x_max":358,"o":"m 0 0 m 231 38 q 219 11 231 22 l 142 0 q 104 38 104 22 q 115 711 104 700 l 193 722 q 231 685 231 700 m 17 840 q -10 851 1 840 l -21 922 q 17 960 1 960 q 347 949 336 960 l 358 878 q 321 840 336 840 z "},"Ĭ":{"ha":371,"x_min":7,"x_max":365,"o":"m 7 0 m 157 0 q 131 11 142 0 l 119 935 q 157 972 142 972 q 240 961 229 972 l 251 38 q 214 0 229 0 m 186 1035 q 105 1050 139 1035 q 17 1147 28 1115 q 14 1228 7 1221 l 78 1236 q 104 1210 104 1221 q 186 1126 149 1126 q 268 1210 268 1174 q 294 1236 282 1236 q 358 1228 351 1236 q 355 1147 365 1178 q 267 1050 301 1065 z "},"ĭ":{"ha":335,"x_min":-4,"x_max":340,"o":"m 0 0 m 231 38 q 219 11 231 22 l 142 0 q 104 38 104 22 q 115 711 104 700 l 193 722 q 231 685 231 700 m 168 819 q 91 835 124 819 q 6 931 17 900 q 3 1013 -4 1006 l 67 1021 q 93 994 93 1006 q 168 911 132 911 q 243 994 243 958 q 269 1021 257 1021 q 333 1013 326 1021 q 330 931 340 963 q 245 835 278 850 z "},"Į":{"ha":396,"x_min":21,"x_max":276,"o":"m 215 0 q 133 -103 133 -4 l 246 -206 l 276 -275 l 219 -306 q 78 -253 104 -279 q 21 -103 21 -153 q 144 88 89 68 q 156 961 144 950 l 239 972 q 276 935 276 950 q 265 11 276 22 l 215 0 z "},"į":{"ha":372,"x_min":13,"x_max":278,"o":"m 268 38 q 257 11 268 22 l 207 0 q 217 -206 125 -206 q 268 -236 268 -206 q 238 -306 268 -306 q 133 -292 169 -306 q 28 -190 43 -228 q 48 24 13 -25 l 142 685 q 179 722 164 722 q 257 711 246 722 l 268 38 m 278 869 q 267 843 278 854 l 161 832 q 124 869 124 854 q 135 975 124 964 l 240 986 q 278 949 278 964 z "},"İ":{"ha":371,"x_min":108,"x_max":263,"o":"m 108 0 m 157 0 q 131 11 142 0 l 119 935 q 157 972 142 972 q 240 961 229 972 l 251 38 q 214 0 229 0 m 263 1079 q 251 1053 263 1064 l 146 1042 q 108 1079 108 1064 q 119 1185 108 1174 l 225 1196 q 263 1158 263 1174 z "},"ı":{"ha":335,"x_min":104,"x_max":231,"o":"m 231 38 q 219 11 231 22 l 142 0 q 104 38 104 22 q 115 711 104 700 l 193 722 q 231 685 231 700 z "},"Ĳ":{"ha":868,"x_min":119,"x_max":757,"o":"m 363 74 q 374 100 363 89 q 572 175 521 111 l 625 935 q 663 972 647 972 q 746 961 735 972 l 757 340 q 666 85 711 132 q 400 -14 488 -14 q 363 24 363 8 m 157 0 q 131 11 142 0 l 119 935 q 157 972 142 972 q 240 961 229 972 l 251 38 q 214 0 229 0 z "},"ĳ":{"ha":682,"x_min":90,"x_max":592,"o":"m 90 0 m 231 38 q 219 11 231 22 l 142 0 q 104 38 104 22 q 115 711 104 700 l 193 722 q 231 685 231 700 m 244 869 q 233 843 244 854 l 128 832 q 90 869 90 854 q 101 975 90 964 l 207 986 q 244 949 244 964 m 451 685 q 463 711 451 700 l 540 722 q 578 685 578 700 q 524 -201 578 -139 l 322 -264 q 285 -226 285 -242 q 296 -156 285 -167 l 335 -144 q 429 -110 417 -126 q 451 -21 451 -47 m 592 869 q 581 843 592 854 l 475 832 q 438 869 438 854 q 449 975 438 964 l 554 986 q 592 949 592 964 z "},"Ĵ":{"ha":553,"x_min":44,"x_max":444,"o":"m 44 0 m 47 74 q 58 100 47 89 q 257 175 206 111 l 310 935 q 347 972 332 972 q 431 961 419 972 l 442 340 q 351 85 396 132 q 85 -14 172 -14 q 47 24 47 8 m 258 1271 q 285 1265 274 1271 l 438 1117 q 422 1076 444 1076 q 371 1080 379 1076 l 244 1163 q 118 1080 126 1083 l 67 1076 q 51 1117 44 1110 q 204 1265 193 1260 l 258 1271 z "},"ĵ":{"ha":410,"x_min":-19,"x_max":381,"o":"m 0 0 m 179 603 l 64 603 q 26 640 26 625 q 38 711 26 700 l 268 722 q 306 685 306 700 q 251 -201 306 -139 l 50 -264 q 13 -226 13 -242 q 24 -156 13 -167 l 63 -144 q 157 -110 144 -126 q 179 -21 179 -47 m 194 1021 q 221 1015 210 1021 l 374 867 q 358 826 381 826 q 307 830 315 826 l 181 913 q 54 830 63 833 l 3 826 q -12 867 -19 860 q 140 1015 129 1010 l 194 1021 z "},"Ķ":{"ha":832,"x_min":119,"x_max":811,"o":"m 119 0 m 324 507 l 797 56 q 811 31 811 35 q 781 0 793 0 q 663 8 675 0 l 251 396 q 240 11 251 22 l 157 0 q 119 38 119 22 q 131 961 119 950 l 214 972 q 251 935 251 950 l 622 951 q 672 972 653 972 q 774 963 765 972 q 781 931 783 938 l 324 507 m 319 -124 q 337 -87 322 -104 l 460 -69 q 490 -100 490 -87 l 414 -303 q 354 -347 382 -347 q 299 -338 308 -347 l 290 -314 z "},"ķ":{"ha":710,"x_min":104,"x_max":692,"o":"m 104 0 m 231 306 l 231 38 q 193 0 208 0 q 115 11 126 0 l 104 949 q 142 986 126 986 q 219 975 208 986 l 231 489 q 523 714 510 706 l 625 722 q 658 689 658 703 q 643 661 654 669 l 678 60 q 692 33 692 40 q 658 0 672 0 q 558 8 572 0 l 231 306 m 286 -124 q 303 -87 289 -104 l 418 -69 q 449 -100 449 -87 l 372 -303 q 313 -347 340 -347 q 266 -338 275 -347 l 257 -314 z "},"ĸ":{"ha":711,"x_min":104,"x_max":693,"o":"m 231 454 l 513 699 q 567 722 547 722 q 650 713 640 722 q 658 676 660 682 l 308 367 q 693 33 693 49 q 660 0 674 0 q 551 8 565 0 l 231 271 q 219 11 231 22 l 142 0 q 104 38 104 22 q 115 711 104 700 l 193 722 q 231 685 231 700 z "},"Ĺ":{"ha":786,"x_min":117,"x_max":760,"o":"m 117 0 m 722 125 q 749 114 738 125 l 760 38 q 722 0 738 0 q 131 11 142 0 l 119 935 q 157 972 142 972 q 240 961 229 972 l 251 125 m 229 1210 q 255 1232 244 1228 l 390 1236 q 410 1192 417 1199 q 232 1049 244 1056 l 139 1042 q 124 1082 117 1075 z "},"ĺ":{"ha":335,"x_min":104,"x_max":397,"o":"m 104 0 m 231 38 q 219 11 231 22 l 142 0 q 104 38 104 22 q 115 975 104 964 l 193 986 q 231 949 231 964 m 217 1210 q 242 1232 232 1228 l 371 1236 q 390 1192 397 1199 q 213 1049 225 1056 l 126 1042 q 111 1082 104 1075 z "},"Ļ":{"ha":786,"x_min":119,"x_max":760,"o":"m 119 0 m 722 125 q 749 114 738 125 l 760 38 q 722 0 738 0 q 131 11 142 0 l 119 935 q 157 972 142 972 q 240 961 229 972 l 251 125 m 357 -124 q 374 -87 360 -104 l 497 -69 q 528 -100 528 -87 l 451 -303 q 392 -347 419 -347 q 337 -338 346 -347 l 328 -314 z "},"ļ":{"ha":335,"x_min":47,"x_max":239,"o":"m 47 0 m 231 38 q 219 11 231 22 l 142 0 q 104 38 104 22 q 115 975 104 964 l 193 986 q 231 949 231 964 m 76 -124 q 94 -87 79 -104 l 208 -69 q 239 -100 239 -87 l 163 -303 q 103 -347 131 -347 q 56 -338 65 -347 l 47 -314 z "},"Ľ":{"ha":786,"x_min":119,"x_max":760,"o":"m 119 0 m 722 125 q 749 114 738 125 l 760 38 q 722 0 738 0 q 131 11 142 0 l 119 935 q 157 972 142 972 q 240 961 229 972 l 251 125 m 446 931 q 463 967 449 950 l 586 985 q 617 954 617 967 l 540 751 q 481 707 508 707 q 426 716 435 707 l 417 740 z "},"ľ":{"ha":414,"x_min":104,"x_max":496,"o":"m 104 0 m 231 38 q 219 11 231 22 l 142 0 q 104 38 104 22 q 115 975 104 964 l 193 986 q 231 949 231 964 m 333 933 q 351 970 336 953 l 465 988 q 496 957 496 969 l 419 754 q 360 710 388 710 q 313 719 322 710 l 304 743 z "},"Ŀ":{"ha":786,"x_min":119,"x_max":760,"o":"m 119 0 m 722 125 q 749 114 738 125 l 760 38 q 722 0 738 0 q 131 11 142 0 l 119 935 q 157 972 142 972 q 240 961 229 972 l 251 125 m 567 463 q 556 436 567 447 l 450 425 q 413 463 413 447 q 424 568 413 557 l 529 579 q 567 542 567 557 z "},"ŀ":{"ha":419,"x_min":104,"x_max":454,"o":"m 104 0 m 231 38 q 219 11 231 22 l 142 0 q 104 38 104 22 q 115 975 104 964 l 193 986 q 231 949 231 964 m 454 464 q 443 438 454 449 l 338 426 q 300 464 300 449 q 311 569 300 558 l 417 581 q 454 543 454 558 z "},"Ł":{"ha":804,"x_min":26,"x_max":778,"o":"m 740 125 q 767 114 756 125 l 778 38 q 740 0 756 0 q 149 11 160 0 l 138 374 q 56 344 60 344 q 26 374 26 361 q 57 458 26 447 l 138 935 q 175 972 160 972 q 258 961 247 972 l 269 540 q 496 628 490 628 q 525 599 525 611 q 494 514 525 525 l 269 125 z "},"ł":{"ha":360,"x_min":33,"x_max":326,"o":"m 243 578 l 282 593 q 318 589 310 597 l 326 529 l 243 463 q 232 11 243 22 l 154 0 q 117 38 117 22 l 78 397 q 42 401 50 393 l 33 461 l 117 528 q 128 975 117 964 l 206 986 q 243 949 243 964 z "},"Ń":{"ha":964,"x_min":119,"x_max":844,"o":"m 119 0 m 758 0 q 726 13 739 0 l 251 721 q 240 11 251 22 l 157 0 q 119 38 119 22 q 131 961 119 950 l 206 972 q 261 931 251 946 l 713 935 q 750 972 735 972 q 833 961 822 972 l 844 38 q 807 0 822 0 m 528 1210 q 553 1232 543 1228 l 689 1236 q 708 1192 715 1199 q 531 1049 543 1056 l 438 1042 q 422 1082 415 1075 z "},"ń":{"ha":843,"x_min":104,"x_max":746,"o":"m 104 0 m 746 38 q 735 11 746 22 l 657 0 q 619 38 619 22 q 568 564 619 511 q 284 564 338 617 l 231 38 q 193 0 208 0 q 115 11 126 0 l 104 685 q 142 722 126 722 q 219 711 208 722 l 231 642 q 446 736 361 736 q 662 653 622 693 q 746 425 746 497 m 469 994 q 495 1017 485 1013 l 624 1021 q 643 976 650 983 q 465 833 478 840 l 379 826 q 364 867 357 860 z "},"Ņ":{"ha":964,"x_min":119,"x_max":844,"o":"m 119 0 m 758 0 q 726 13 739 0 l 251 721 q 240 11 251 22 l 157 0 q 119 38 119 22 q 131 961 119 950 l 206 972 q 261 931 251 946 l 713 935 q 750 972 735 972 q 833 961 822 972 l 844 38 q 807 0 822 0 m 399 -124 q 416 -87 401 -104 l 539 -69 q 569 -100 569 -87 l 493 -303 q 433 -347 461 -347 q 378 -338 388 -347 l 369 -314 z "},"ņ":{"ha":843,"x_min":104,"x_max":746,"o":"m 104 0 m 746 38 q 735 11 746 22 l 657 0 q 619 38 619 22 q 568 564 619 511 q 284 564 338 617 l 231 38 q 193 0 208 0 q 115 11 126 0 l 104 685 q 142 722 126 722 q 219 711 208 722 l 231 642 q 446 736 361 736 q 662 653 622 693 q 746 425 746 497 m 333 -124 q 351 -87 336 -104 l 465 -69 q 496 -100 496 -87 l 419 -303 q 360 -347 388 -347 q 313 -338 322 -347 l 304 -314 z "},"Ň":{"ha":964,"x_min":119,"x_max":844,"o":"m 119 0 m 758 0 q 726 13 739 0 l 251 721 q 240 11 251 22 l 157 0 q 119 38 119 22 q 131 961 119 950 l 206 972 q 261 931 251 946 l 713 935 q 750 972 735 972 q 833 961 822 972 l 844 38 q 807 0 822 0 m 461 1042 q 435 1047 446 1042 l 282 1196 q 297 1236 275 1236 q 356 1233 347 1236 l 482 1150 q 608 1233 600 1229 l 667 1236 q 682 1196 689 1203 q 529 1047 540 1053 l 461 1042 z "},"ň":{"ha":843,"x_min":104,"x_max":746,"o":"m 104 0 m 746 38 q 735 11 746 22 l 657 0 q 619 38 619 22 q 568 564 619 511 q 284 564 338 617 l 231 38 q 193 0 208 0 q 115 11 126 0 l 104 685 q 142 722 126 722 q 219 711 208 722 l 231 642 q 446 736 361 736 q 662 653 622 693 q 746 425 746 497 m 411 826 q 385 832 396 826 l 232 981 q 247 1021 225 1021 q 299 1017 290 1021 l 425 935 q 551 1017 543 1014 l 603 1021 q 618 981 625 988 q 465 832 476 838 l 411 826 z "},"ŉ":{"ha":843,"x_min":104,"x_max":746,"o":"m 104 0 m 746 38 q 735 11 746 22 l 657 0 q 619 38 619 22 q 568 564 619 511 q 284 564 338 617 l 231 38 q 193 0 208 0 q 115 11 126 0 l 104 685 q 142 722 126 722 q 219 711 208 722 l 231 642 q 446 736 361 736 q 662 653 622 693 q 746 425 746 497 m 149 1050 q 166 1087 151 1069 l 281 1104 q 311 1074 311 1086 l 235 871 q 175 826 203 826 q 128 835 138 826 l 119 860 z "},"Ŋ":{"ha":964,"x_min":119,"x_max":844,"o":"m 713 26 l 251 721 q 240 11 251 22 l 157 0 q 119 38 119 22 q 131 961 119 950 l 206 972 q 261 931 251 946 l 713 935 q 750 972 735 972 q 833 961 822 972 l 844 -64 q 615 -312 736 -312 q 557 -301 568 -312 l 546 -225 q 583 -187 568 -187 q 655 -178 632 -187 q 708 -113 703 -136 l 713 26 z "},"ŋ":{"ha":843,"x_min":104,"x_max":746,"o":"m 746 -69 q 692 -250 746 -187 l 490 -312 q 453 -275 453 -290 q 464 -204 453 -215 l 503 -193 q 597 -158 585 -175 q 619 -69 619 -96 q 568 564 619 511 q 284 564 338 617 l 231 38 q 193 0 208 0 q 115 11 126 0 l 104 685 q 142 722 126 722 q 219 711 208 722 l 231 642 q 446 736 361 736 q 662 653 622 693 q 746 425 746 497 z "},"Ō":{"ha":933,"x_min":79,"x_max":854,"o":"m 79 0 m 83 610 q 110 756 85 688 q 304 956 233 926 q 629 956 558 986 q 823 756 797 825 q 850 363 854 486 q 747 96 796 147 q 467 -14 558 -14 q 186 96 235 44 q 83 363 86 285 m 718 603 q 697 717 715 668 q 566 845 611 829 q 367 845 413 861 q 236 717 256 765 q 213 486 213 540 q 236 256 217 304 q 367 127 322 143 q 566 127 521 111 q 697 256 678 207 q 721 486 721 432 m 308 1042 q 282 1053 293 1042 l 271 1129 q 308 1167 293 1167 q 653 1156 642 1167 l 664 1079 q 626 1042 642 1042 z "},"ō":{"ha":801,"x_min":68,"x_max":731,"o":"m 68 0 m 400 736 q 533 713 475 736 q 699 552 675 610 q 731 397 731 414 q 731 324 731 342 q 699 169 722 226 q 533 9 592 32 q 267 9 325 -14 q 101 169 125 113 q 69 324 69 307 q 69 397 68 379 q 101 552 76 494 q 267 713 208 690 m 603 303 q 606 360 606 326 q 585 497 599 461 q 485 601 521 586 q 315 601 351 617 q 215 497 229 533 q 194 360 194 394 q 215 225 201 261 q 315 121 279 136 q 485 121 449 106 q 585 225 571 189 m 249 840 q 222 851 233 840 l 211 922 q 249 960 233 960 q 579 949 568 960 l 590 878 q 553 840 568 840 z "},"Ŏ":{"ha":933,"x_min":79,"x_max":854,"o":"m 79 0 m 83 610 q 110 756 85 688 q 304 956 233 926 q 629 956 558 986 q 823 756 797 825 q 850 363 854 486 q 747 96 796 147 q 467 -14 558 -14 q 186 96 235 44 q 83 363 86 285 m 718 603 q 697 717 715 668 q 566 845 611 829 q 367 845 413 861 q 236 717 256 765 q 213 486 213 540 q 236 256 217 304 q 367 127 322 143 q 566 127 521 111 q 697 256 678 207 q 721 486 721 432 m 467 1035 q 385 1050 419 1035 q 298 1147 308 1115 q 294 1228 288 1221 l 358 1236 q 385 1210 385 1221 q 467 1126 429 1126 q 549 1210 549 1174 q 575 1236 563 1236 q 639 1228 632 1236 q 635 1147 646 1178 q 548 1050 582 1065 z "},"ŏ":{"ha":801,"x_min":68,"x_max":731,"o":"m 68 0 m 400 736 q 533 713 475 736 q 699 552 675 610 q 731 397 731 414 q 731 324 731 342 q 699 169 722 226 q 533 9 592 32 q 267 9 325 -14 q 101 169 125 113 q 69 324 69 307 q 69 397 68 379 q 101 552 76 494 q 267 713 208 690 m 603 303 q 606 360 606 326 q 585 497 599 461 q 485 601 521 586 q 315 601 351 617 q 215 497 229 533 q 194 360 194 394 q 215 225 201 261 q 315 121 279 136 q 485 121 449 106 q 585 225 571 189 m 400 819 q 323 835 356 819 q 238 931 249 900 q 235 1013 228 1006 l 299 1021 q 325 994 325 1006 q 400 911 364 911 q 475 994 475 958 q 501 1021 489 1021 q 565 1013 558 1021 q 562 931 572 963 q 477 835 510 850 z "},"Ő":{"ha":933,"x_min":79,"x_max":854,"o":"m 79 0 m 83 610 q 110 756 85 688 q 304 956 233 926 q 629 956 558 986 q 823 756 797 825 q 850 363 854 486 q 747 96 796 147 q 467 -14 558 -14 q 186 96 235 44 q 83 363 86 285 m 718 603 q 697 717 715 668 q 566 845 611 829 q 367 845 413 861 q 236 717 256 765 q 213 486 213 540 q 236 256 217 304 q 367 127 322 143 q 566 127 521 111 q 697 256 678 207 q 721 486 721 432 m 336 1210 q 354 1230 343 1224 l 490 1236 q 510 1192 518 1200 q 342 1042 372 1042 q 274 1064 274 1042 q 281 1085 278 1081 m 589 1210 q 607 1230 596 1224 l 743 1236 q 763 1192 771 1200 q 594 1042 625 1042 q 526 1064 526 1042 q 533 1085 531 1081 z "},"ő":{"ha":801,"x_min":68,"x_max":731,"o":"m 68 0 m 400 736 q 533 713 475 736 q 699 552 675 610 q 731 397 731 414 q 731 324 731 342 q 699 169 722 226 q 533 9 592 32 q 267 9 325 -14 q 101 169 125 113 q 69 324 69 307 q 69 397 68 379 q 101 552 76 494 q 267 713 208 690 m 603 303 q 606 360 606 326 q 585 497 599 461 q 485 601 521 586 q 315 601 351 617 q 215 497 229 533 q 194 360 194 394 q 215 225 201 261 q 315 121 279 136 q 485 121 449 106 q 585 225 571 189 m 275 994 q 293 1015 282 1008 l 422 1021 q 442 976 450 985 q 274 826 304 826 q 213 849 213 826 q 219 869 217 865 m 521 994 q 539 1015 528 1008 l 668 1021 q 688 976 696 985 q 519 826 550 826 q 458 849 458 826 q 465 869 463 865 z "},"Œ":{"ha":1278,"x_min":81,"x_max":1211,"o":"m 1174 125 q 1200 114 1189 125 l 1211 38 q 1174 0 1189 0 q 315 26 386 0 q 113 219 142 149 q 81 486 81 439 q 113 753 83 683 q 322 947 249 921 l 1163 972 q 1200 935 1200 950 q 1189 858 1200 869 l 707 847 l 1132 554 q 1169 517 1169 532 q 1158 440 1169 451 l 707 429 l 1174 125 m 214 589 q 213 533 214 557 q 213 438 213 463 q 228 287 215 333 q 353 147 303 168 l 575 125 l 486 847 q 276 768 308 804 q 214 589 215 639 z "},"œ":{"ha":1313,"x_min":68,"x_max":1247,"o":"m 400 736 q 561 701 493 736 q 776 701 711 665 q 1060 712 1001 736 q 1225 531 1203 596 l 1247 347 q 1210 310 1225 310 l 732 301 q 926 106 844 106 q 1103 175 1079 149 q 1147 194 1131 194 q 1217 183 1204 194 q 1203 102 1222 132 q 1055 3 1110 21 q 776 22 842 -14 q 562 21 629 56 q 267 9 325 -14 q 101 169 125 113 q 69 324 69 307 q 69 397 68 379 q 101 552 76 494 q 267 713 208 690 m 603 303 q 606 360 606 326 q 585 497 599 461 q 485 601 521 586 q 315 601 351 617 q 215 497 229 533 q 194 360 194 394 q 215 225 201 261 q 315 121 279 136 q 485 121 449 106 q 585 225 571 189 m 732 426 l 1122 426 q 1069 566 1122 515 q 851 603 886 617 q 749 507 764 542 l 732 426 z "},"Ŕ":{"ha":904,"x_min":119,"x_max":842,"o":"m 119 0 m 493 972 q 622 956 561 972 q 801 815 774 869 q 772 506 828 572 l 838 46 q 833 9 842 18 l 751 0 q 692 38 697 28 l 251 392 q 240 11 251 22 l 157 0 q 119 38 119 22 q 131 961 119 950 l 493 972 m 251 517 l 486 517 q 696 685 696 596 q 486 847 586 847 l 251 517 m 446 1210 q 472 1232 461 1228 l 607 1236 q 626 1192 633 1199 q 449 1049 461 1056 l 356 1042 q 340 1082 333 1075 z "},"ŕ":{"ha":525,"x_min":104,"x_max":511,"o":"m 104 0 m 471 722 q 497 711 486 722 l 508 640 q 471 603 486 603 q 231 443 231 603 q 219 11 231 22 l 142 0 q 104 38 104 22 q 115 711 104 700 l 193 722 q 231 685 231 700 q 297 703 258 683 l 471 722 m 331 994 q 356 1017 346 1013 l 485 1021 q 504 976 511 983 q 326 833 339 840 l 240 826 q 225 867 218 860 z "},"Ŗ":{"ha":904,"x_min":119,"x_max":842,"o":"m 119 0 m 493 972 q 622 956 561 972 q 801 815 774 869 q 772 506 828 572 l 838 46 q 833 9 842 18 l 751 0 q 692 38 697 28 l 251 392 q 240 11 251 22 l 157 0 q 119 38 119 22 q 131 961 119 950 l 493 972 m 251 517 l 486 517 q 696 685 696 596 q 486 847 586 847 l 251 517 m 357 -124 q 374 -87 360 -104 l 497 -69 q 528 -100 528 -87 l 451 -303 q 392 -347 419 -347 q 337 -338 346 -347 l 328 -314 z "},"ŗ":{"ha":525,"x_min":56,"x_max":508,"o":"m 56 0 m 471 722 q 497 711 486 722 l 508 640 q 471 603 486 603 q 231 443 231 603 q 219 11 231 22 l 142 0 q 104 38 104 22 q 115 711 104 700 l 193 722 q 231 685 231 700 q 297 703 258 683 l 471 722 m 85 -124 q 102 -87 88 -104 l 217 -69 q 247 -100 247 -87 l 171 -303 q 111 -347 139 -347 q 65 -338 74 -347 l 56 -314 z "},"Ř":{"ha":904,"x_min":119,"x_max":842,"o":"m 119 0 m 493 972 q 622 956 561 972 q 801 815 774 869 q 772 506 828 572 l 838 46 q 833 9 842 18 l 751 0 q 692 38 697 28 l 251 392 q 240 11 251 22 l 157 0 q 119 38 119 22 q 131 961 119 950 l 493 972 m 251 517 l 486 517 q 696 685 696 596 q 486 847 586 847 l 251 517 m 410 1042 q 383 1047 394 1042 l 231 1196 q 246 1236 224 1236 q 304 1233 296 1236 l 431 1150 q 557 1233 549 1229 l 615 1236 q 631 1196 638 1203 q 478 1047 489 1053 l 410 1042 z "},"ř":{"ha":525,"x_min":83,"x_max":508,"o":"m 83 0 m 471 722 q 497 711 486 722 l 508 640 q 471 603 486 603 q 231 443 231 603 q 219 11 231 22 l 142 0 q 104 38 104 22 q 115 711 104 700 l 193 722 q 231 685 231 700 q 297 703 258 683 l 471 722 m 269 826 q 243 832 254 826 l 90 981 q 106 1021 83 1021 q 157 1017 149 1021 l 283 935 q 410 1017 401 1014 l 461 1021 q 476 981 483 988 q 324 832 335 838 l 269 826 z "},"Ś":{"ha":858,"x_min":53,"x_max":799,"o":"m 53 0 m 418 986 q 567 960 503 986 q 746 813 722 857 q 763 713 772 722 l 683 704 q 640 735 650 715 q 574 812 601 792 q 418 861 469 861 q 281 825 308 843 q 219 717 219 753 q 287 610 251 631 q 508 536 431 557 q 732 434 697 465 q 799 269 799 321 q 696 65 744 103 q 425 -14 510 -14 q 160 71 208 33 q 53 244 54 200 q 83 275 71 275 q 165 269 154 275 q 209 202 192 225 q 326 125 285 139 q 517 122 474 111 q 647 204 628 175 q 644 331 667 306 q 478 416 539 399 q 224 497 272 471 q 101 629 114 589 q 108 817 88 768 q 273 963 211 940 m 471 1210 q 497 1232 486 1228 l 632 1236 q 651 1192 658 1199 q 474 1049 486 1056 l 381 1042 q 365 1082 358 1075 z "},"ś":{"ha":703,"x_min":60,"x_max":642,"o":"m 60 0 m 515 200 q 501 244 515 226 q 383 297 428 286 q 120 399 165 344 q 92 607 75 569 q 226 719 175 703 q 463 721 413 736 q 601 631 583 658 q 610 553 622 564 l 538 542 q 496 561 506 549 q 344 617 407 617 q 201 528 201 569 q 249 458 224 469 q 417 413 356 426 q 593 328 567 356 q 642 200 642 236 q 564 51 601 81 q 351 -14 419 -14 q 140 44 178 19 q 61 150 63 125 q 99 188 82 188 q 168 185 157 188 q 250 122 211 139 q 412 113 382 106 q 501 162 488 144 m 403 994 q 428 1017 418 1013 l 557 1021 q 576 976 583 983 q 399 833 411 840 l 313 826 q 297 867 290 860 z "},"Ŝ":{"ha":858,"x_min":53,"x_max":799,"o":"m 53 0 m 418 986 q 567 960 503 986 q 746 813 722 857 q 763 713 772 722 l 683 704 q 640 735 650 715 q 574 812 601 792 q 418 861 469 861 q 281 825 308 843 q 219 717 219 753 q 287 610 251 631 q 508 536 431 557 q 732 434 697 465 q 799 269 799 321 q 696 65 744 103 q 425 -14 510 -14 q 160 71 208 33 q 53 244 54 200 q 83 275 71 275 q 165 269 154 275 q 209 202 192 225 q 326 125 285 139 q 517 122 474 111 q 647 204 628 175 q 644 331 667 306 q 478 416 539 399 q 224 497 272 471 q 101 629 114 589 q 108 817 88 768 q 273 963 211 940 m 446 1236 q 472 1231 461 1236 l 625 1082 q 610 1042 632 1042 q 551 1045 560 1042 l 425 1128 q 299 1045 307 1049 l 240 1042 q 225 1082 218 1075 q 378 1231 367 1225 l 446 1236 z "},"ŝ":{"ha":703,"x_min":60,"x_max":642,"o":"m 60 0 m 515 200 q 501 244 515 226 q 383 297 428 286 q 120 399 165 344 q 92 607 75 569 q 226 719 175 703 q 463 721 413 736 q 601 631 583 658 q 610 553 622 564 l 538 542 q 496 561 506 549 q 344 617 407 617 q 201 528 201 569 q 249 458 224 469 q 417 413 356 426 q 593 328 567 356 q 642 200 642 236 q 564 51 601 81 q 351 -14 419 -14 q 140 44 178 19 q 61 150 63 125 q 99 188 82 188 q 168 185 157 188 q 250 122 211 139 q 412 113 382 106 q 501 162 488 144 m 364 1021 q 390 1015 379 1021 l 543 867 q 528 826 550 826 q 476 830 485 826 l 350 913 q 224 830 232 833 l 172 826 q 157 867 150 860 q 310 1015 299 1010 l 364 1021 z "},"Ş":{"ha":858,"x_min":53,"x_max":799,"o":"m 418 986 q 567 960 503 986 q 746 813 722 857 q 763 713 772 722 l 683 704 q 640 735 650 715 q 574 812 601 792 q 418 861 469 861 q 281 825 308 843 q 219 717 219 753 q 287 610 251 631 q 508 536 431 557 q 732 434 697 465 q 799 269 799 321 q 697 67 746 104 q 429 -14 513 -14 q 449 -67 418 -67 q 554 -183 554 -133 q 417 -306 490 -306 q 329 -279 346 -290 q 310 -235 300 -244 q 348 -208 340 -207 q 385 -228 374 -222 q 476 -186 476 -235 q 389 -141 400 -137 q 356 -149 363 -150 l 318 -115 q 321 -74 317 -85 q 229 29 283 3 q 76 165 97 125 q 62 266 53 257 l 140 275 q 183 244 175 264 q 256 159 226 179 q 425 111 368 111 q 594 154 561 133 q 667 269 667 233 q 581 378 622 357 q 342 453 418 433 q 144 556 175 522 q 88 717 88 669 q 170 903 129 865 q 418 986 335 986 z "},"ş":{"ha":701,"x_min":60,"x_max":642,"o":"m 515 200 q 501 244 515 226 q 383 297 428 286 q 120 399 165 344 q 92 607 75 569 q 226 719 175 703 q 463 721 413 736 q 601 631 583 658 q 610 553 622 564 l 538 542 q 496 561 506 549 q 344 617 407 617 q 201 528 201 569 q 249 458 224 469 q 417 413 356 426 q 593 328 567 356 q 642 200 642 236 q 567 54 603 83 q 363 -14 428 -12 q 382 -67 351 -67 q 488 -183 488 -133 q 350 -306 424 -306 q 263 -279 279 -290 q 243 -235 233 -244 q 281 -208 274 -207 q 319 -228 307 -222 q 410 -186 410 -235 q 322 -141 333 -137 q 290 -149 296 -150 l 251 -115 q 254 -74 250 -85 q 190 17 231 -1 q 78 104 93 79 q 71 176 60 165 l 149 188 q 189 169 179 183 q 351 106 289 106 q 465 132 442 119 q 515 200 515 179 z "},"Š":{"ha":858,"x_min":53,"x_max":799,"o":"m 53 0 m 418 986 q 567 960 503 986 q 746 813 722 857 q 763 713 772 722 l 683 704 q 640 735 650 715 q 574 812 601 792 q 418 861 469 861 q 281 825 308 843 q 219 717 219 753 q 287 610 251 631 q 508 536 431 557 q 732 434 697 465 q 799 269 799 321 q 696 65 744 103 q 425 -14 510 -14 q 160 71 208 33 q 53 244 54 200 q 83 275 71 275 q 165 269 154 275 q 209 202 192 225 q 326 125 285 139 q 517 122 474 111 q 647 204 628 175 q 644 331 667 306 q 478 416 539 399 q 224 497 272 471 q 101 629 114 589 q 108 817 88 768 q 273 963 211 940 m 404 1042 q 378 1047 389 1042 l 225 1196 q 240 1236 218 1236 q 299 1233 290 1236 l 425 1150 q 551 1233 543 1229 l 610 1236 q 625 1196 632 1203 q 472 1047 483 1053 l 404 1042 z "},"š":{"ha":703,"x_min":60,"x_max":642,"o":"m 60 0 m 515 200 q 501 244 515 226 q 383 297 428 286 q 120 399 165 344 q 92 607 75 569 q 226 719 175 703 q 463 721 413 736 q 601 631 583 658 q 610 553 622 564 l 538 542 q 496 561 506 549 q 344 617 407 617 q 201 528 201 569 q 249 458 224 469 q 417 413 356 426 q 593 328 567 356 q 642 200 642 236 q 564 51 601 81 q 351 -14 419 -14 q 140 44 178 19 q 61 150 63 125 q 99 188 82 188 q 168 185 157 188 q 250 122 211 139 q 412 113 382 106 q 501 162 488 144 m 336 826 q 310 832 321 826 l 157 981 q 172 1021 150 1021 q 224 1017 215 1021 l 350 935 q 476 1017 468 1014 l 528 1021 q 543 981 550 988 q 390 832 401 838 l 336 826 z "},"Ţ":{"ha":790,"x_min":32,"x_max":758,"o":"m 32 0 m 721 972 q 747 961 736 972 l 758 885 q 721 847 736 847 l 461 38 q 424 0 439 0 q 340 11 351 0 l 329 847 q 43 858 54 847 l 32 935 q 69 972 54 972 m 307 -124 q 324 -87 310 -104 l 447 -69 q 478 -100 478 -87 l 401 -303 q 342 -347 369 -347 q 287 -338 296 -347 l 278 -314 z "},"ţ":{"ha":556,"x_min":26,"x_max":521,"o":"m 26 0 m 293 243 q 298 194 293 217 q 351 128 328 138 l 483 119 q 521 82 521 97 q 510 11 521 22 l 396 0 q 167 243 167 125 l 64 603 q 26 640 26 625 q 38 711 26 700 l 167 722 q 178 975 167 964 l 256 986 q 293 949 293 964 l 469 722 q 507 685 507 700 q 496 614 507 625 l 293 603 m 168 -124 q 185 -87 171 -104 l 300 -69 q 331 -100 331 -87 l 254 -303 q 194 -347 222 -347 q 148 -338 157 -347 l 139 -314 z "},"Ť":{"ha":790,"x_min":32,"x_max":758,"o":"m 32 0 m 721 972 q 747 961 736 972 l 758 885 q 721 847 736 847 l 461 38 q 424 0 439 0 q 340 11 351 0 l 329 847 q 43 858 54 847 l 32 935 q 69 972 54 972 m 374 1042 q 347 1047 358 1042 l 194 1196 q 210 1236 188 1236 q 268 1233 260 1236 l 394 1150 q 521 1233 513 1229 l 579 1236 q 594 1196 601 1203 q 442 1047 453 1053 l 374 1042 z "},"ť":{"ha":600,"x_min":26,"x_max":726,"o":"m 26 0 m 293 243 q 298 194 293 217 q 351 128 328 138 l 483 119 q 521 82 521 97 q 510 11 521 22 l 396 0 q 167 243 167 125 l 64 603 q 26 640 26 625 q 38 711 26 700 l 167 722 q 178 975 167 964 l 256 986 q 293 949 293 964 l 469 722 q 507 685 507 700 q 496 614 507 625 l 293 603 m 564 932 q 581 969 567 951 l 696 986 q 726 956 726 968 l 650 753 q 590 708 618 708 q 544 717 553 708 l 535 742 z "},"Ŧ":{"ha":804,"x_min":39,"x_max":765,"o":"m 728 972 q 754 961 743 972 l 765 885 q 728 847 743 847 l 468 574 q 643 563 632 574 l 654 493 q 617 456 632 456 l 468 38 q 431 0 446 0 q 347 11 358 0 l 336 456 q 161 467 172 456 l 150 536 q 188 574 172 574 l 336 847 q 50 858 61 847 l 39 935 q 76 972 61 972 z "},"ŧ":{"ha":564,"x_min":32,"x_max":526,"o":"m 299 519 l 475 519 q 513 482 513 497 q 501 411 513 422 l 299 400 q 303 194 299 217 q 356 128 333 138 l 489 119 q 526 82 526 97 q 515 11 526 22 l 401 0 q 172 243 172 125 l 69 400 q 32 438 32 422 q 43 508 32 497 l 172 519 l 69 603 q 32 640 32 625 q 43 711 32 700 l 172 722 q 183 975 172 964 l 261 986 q 299 949 299 964 l 475 722 q 513 685 513 700 q 501 614 513 625 l 299 603 z "},"Ũ":{"ha":969,"x_min":111,"x_max":858,"o":"m 111 0 m 821 972 q 847 961 836 972 l 858 379 q 770 97 815 150 q 485 -14 583 -14 q 198 97 243 44 q 111 379 111 293 q 122 961 111 950 l 206 972 q 243 935 243 950 q 307 170 243 236 q 663 170 599 104 l 728 935 q 765 972 750 972 m 574 1035 q 520 1042 542 1035 q 449 1072 464 1065 q 392 1074 399 1079 q 372 1047 376 1053 l 304 1042 q 278 1068 278 1057 q 305 1150 290 1129 q 397 1201 365 1201 q 489 1179 472 1188 q 556 1157 536 1157 q 590 1176 586 1168 q 615 1194 604 1194 q 686 1187 679 1194 q 687 1130 693 1153 q 628 1050 651 1065 z "},"ũ":{"ha":829,"x_min":97,"x_max":725,"o":"m 97 0 m 97 685 q 108 711 97 700 l 186 722 q 224 685 224 700 q 272 158 224 211 q 549 158 499 106 l 599 685 q 636 722 621 722 q 714 711 703 722 l 725 38 q 688 0 703 0 q 610 11 621 0 l 599 81 q 390 -14 475 -14 q 178 69 217 29 q 97 297 97 224 m 496 819 q 444 826 465 819 q 376 857 390 850 q 322 858 329 864 q 302 832 307 838 l 235 826 q 208 853 208 842 q 235 935 221 914 q 328 986 296 986 q 415 964 400 972 q 478 942 460 942 q 513 960 508 953 q 538 979 526 979 q 608 972 601 979 q 609 915 615 938 q 551 835 574 850 z "},"Ū":{"ha":969,"x_min":111,"x_max":858,"o":"m 111 0 m 821 972 q 847 961 836 972 l 858 379 q 770 97 815 150 q 485 -14 583 -14 q 198 97 243 44 q 111 379 111 293 q 122 961 111 950 l 206 972 q 243 935 243 950 q 307 170 243 236 q 663 170 599 104 l 728 935 q 765 972 750 972 m 326 1042 q 300 1053 311 1042 l 289 1129 q 326 1167 311 1167 q 671 1156 660 1167 l 682 1079 q 644 1042 660 1042 z "},"ū":{"ha":829,"x_min":97,"x_max":725,"o":"m 97 0 m 97 685 q 108 711 97 700 l 186 722 q 224 685 224 700 q 272 158 224 211 q 549 158 499 106 l 599 685 q 636 722 621 722 q 714 711 703 722 l 725 38 q 688 0 703 0 q 610 11 621 0 l 599 81 q 390 -14 475 -14 q 178 69 217 29 q 97 297 97 224 m 260 840 q 233 851 244 840 l 222 922 q 260 960 244 960 q 590 949 579 960 l 601 878 q 564 840 579 840 z "},"Ŭ":{"ha":969,"x_min":111,"x_max":858,"o":"m 111 0 m 821 972 q 847 961 836 972 l 858 379 q 770 97 815 150 q 485 -14 583 -14 q 198 97 243 44 q 111 379 111 293 q 122 961 111 950 l 206 972 q 243 935 243 950 q 307 170 243 236 q 663 170 599 104 l 728 935 q 765 972 750 972 m 485 1035 q 403 1050 438 1035 q 316 1147 326 1115 q 313 1228 306 1221 l 376 1236 q 403 1210 403 1221 q 485 1126 447 1126 q 567 1210 567 1174 q 593 1236 581 1236 q 657 1228 650 1236 q 653 1147 664 1178 q 566 1050 600 1065 z "},"ŭ":{"ha":829,"x_min":97,"x_max":725,"o":"m 97 0 m 97 685 q 108 711 97 700 l 186 722 q 224 685 224 700 q 272 158 224 211 q 549 158 499 106 l 599 685 q 636 722 621 722 q 714 711 703 722 l 725 38 q 688 0 703 0 q 610 11 621 0 l 599 81 q 390 -14 475 -14 q 178 69 217 29 q 97 297 97 224 m 411 819 q 334 835 367 819 q 249 931 260 900 q 246 1013 239 1006 l 310 1021 q 336 994 336 1006 q 411 911 375 911 q 486 994 486 958 q 513 1021 500 1021 q 576 1013 569 1021 q 573 931 583 963 q 488 835 521 850 z "},"Ů":{"ha":969,"x_min":111,"x_max":858,"o":"m 111 0 m 821 972 q 847 961 836 972 l 858 379 q 770 97 815 150 q 485 -14 583 -14 q 198 97 243 44 q 111 379 111 293 q 122 961 111 950 l 206 972 q 243 935 243 950 q 307 170 243 236 q 663 170 599 104 l 728 935 q 765 972 750 972 m 443 1139 q 455 1109 443 1121 q 515 1109 503 1097 q 515 1169 526 1157 q 455 1169 467 1181 m 367 1139 q 401 1219 367 1188 q 568 1219 533 1250 q 568 1059 603 1090 q 401 1059 436 1028 z "},"ů":{"ha":829,"x_min":97,"x_max":725,"o":"m 97 0 m 97 685 q 108 711 97 700 l 186 722 q 224 685 224 700 q 272 158 224 211 q 549 158 499 106 l 599 685 q 636 722 621 722 q 714 711 703 722 l 725 38 q 688 0 703 0 q 610 11 621 0 l 599 81 q 390 -14 475 -14 q 178 69 217 29 q 97 297 97 224 m 369 931 q 381 901 369 913 q 441 901 429 889 q 441 960 453 949 q 381 960 393 972 m 293 931 q 328 1010 293 979 q 494 1010 460 1042 q 494 851 529 882 q 328 851 363 819 z "},"Ű":{"ha":969,"x_min":111,"x_max":858,"o":"m 111 0 m 821 972 q 847 961 836 972 l 858 379 q 770 97 815 150 q 485 -14 583 -14 q 198 97 243 44 q 111 379 111 293 q 122 961 111 950 l 206 972 q 243 935 243 950 q 307 170 243 236 q 663 170 599 104 l 728 935 q 765 972 750 972 m 343 1210 q 361 1230 350 1224 l 497 1236 q 517 1192 525 1200 q 349 1042 379 1042 q 281 1064 281 1042 q 288 1085 285 1081 m 596 1210 q 614 1230 603 1224 l 750 1236 q 769 1192 778 1200 q 601 1042 632 1042 q 533 1064 533 1042 q 540 1085 538 1081 z "},"ű":{"ha":829,"x_min":97,"x_max":725,"o":"m 97 0 m 97 685 q 108 711 97 700 l 186 722 q 224 685 224 700 q 272 158 224 211 q 549 158 499 106 l 599 685 q 636 722 621 722 q 714 711 703 722 l 725 38 q 688 0 703 0 q 610 11 621 0 l 599 81 q 390 -14 475 -14 q 178 69 217 29 q 97 297 97 224 m 290 994 q 308 1015 297 1008 l 438 1021 q 457 976 465 985 q 289 826 319 826 q 228 849 228 826 q 235 869 232 865 m 536 994 q 554 1015 543 1008 l 683 1021 q 703 976 711 985 q 535 826 565 826 q 474 849 474 826 q 481 869 478 865 z "},"Ų":{"ha":969,"x_min":111,"x_max":858,"o":"m 821 972 q 847 961 836 972 l 858 379 q 790 125 825 175 q 575 -6 649 7 q 493 -103 493 -56 l 606 -206 l 636 -275 l 579 -306 q 438 -253 464 -279 q 381 -103 381 -153 q 399 -7 390 -28 q 178 123 213 72 q 111 379 111 304 q 122 961 111 950 l 206 972 q 243 935 243 950 q 307 170 243 236 q 663 170 599 104 l 728 935 q 765 972 750 972 z "},"ų":{"ha":829,"x_min":97,"x_max":725,"o":"m 97 685 q 108 711 97 700 l 186 722 q 224 685 224 700 q 272 158 224 211 q 549 158 499 106 l 599 685 q 636 722 621 722 q 714 711 703 722 l 725 28 q 680 -24 697 -14 q 623 -75 633 -58 q 686 -206 613 -206 q 725 -236 725 -206 q 694 -306 725 -306 q 548 -256 596 -306 q 510 -63 500 -87 q 566 15 549 0 l 599 81 q 390 -14 475 -14 q 178 69 217 29 q 97 297 97 224 z "},"Ŵ":{"ha":1100,"x_min":56,"x_max":1044,"o":"m 56 0 m 574 757 q 608 742 599 757 l 774 167 q 932 964 919 956 l 1014 972 q 1044 942 1044 954 l 872 72 q 804 0 838 0 q 701 20 717 0 l 550 536 q 399 20 414 40 l 296 0 q 228 72 235 38 q 56 942 56 938 q 86 972 74 972 q 168 964 156 972 l 326 167 q 492 742 482 726 l 574 757 m 571 1236 q 597 1231 586 1236 l 750 1082 q 735 1042 757 1042 q 676 1045 685 1042 l 550 1128 q 424 1045 432 1049 l 365 1042 q 350 1082 343 1075 q 503 1231 492 1225 l 571 1236 z "},"ŵ":{"ha":1117,"x_min":51,"x_max":1065,"o":"m 51 0 m 783 225 l 939 689 q 986 722 965 722 q 1056 713 1046 722 q 1064 678 1065 683 q 837 11 846 22 l 767 0 q 724 39 731 24 l 393 39 q 350 0 368 0 q 280 11 289 0 l 53 678 q 61 713 51 703 l 131 722 q 178 689 174 700 l 500 689 q 543 722 522 722 q 603 711 594 722 l 783 225 m 572 1021 q 599 1015 588 1021 l 751 867 q 736 826 758 826 q 685 830 693 826 l 558 913 q 432 830 440 833 l 381 826 q 365 867 358 860 q 518 1015 507 1010 l 572 1021 z "},"Ŷ":{"ha":893,"x_min":42,"x_max":851,"o":"m 42 0 m 513 38 q 501 11 513 22 l 418 0 q 381 38 381 22 l 49 922 q 51 963 42 954 l 132 972 q 190 938 183 950 l 703 938 q 761 972 733 972 q 842 963 833 972 q 844 922 851 935 l 513 38 m 467 1236 q 493 1231 482 1236 l 646 1082 q 631 1042 653 1042 q 572 1045 581 1042 l 446 1128 q 319 1045 328 1049 l 261 1042 q 246 1082 239 1075 q 399 1231 388 1225 l 467 1236 z "},"ŷ":{"ha":774,"x_min":44,"x_max":736,"o":"m 44 0 m 317 -231 q 303 -253 313 -242 l 219 -264 q 186 -231 186 -244 l 321 69 q 44 689 44 683 q 78 722 64 722 q 161 711 151 722 l 389 217 q 619 711 610 700 l 703 722 q 736 689 736 703 l 317 -231 m 403 1021 q 429 1015 418 1021 l 582 867 q 567 826 589 826 q 515 830 524 826 l 389 913 q 263 830 271 833 l 211 826 q 196 867 189 860 q 349 1015 338 1010 l 403 1021 z "},"Ÿ":{"ha":893,"x_min":42,"x_max":851,"o":"m 42 0 m 513 38 q 501 11 513 22 l 418 0 q 381 38 381 22 l 49 922 q 51 963 42 954 l 132 972 q 190 938 183 950 l 703 938 q 761 972 733 972 q 842 963 833 972 q 844 922 851 935 l 513 38 m 376 1079 q 365 1053 376 1064 l 260 1042 q 222 1079 222 1064 q 233 1185 222 1174 l 339 1196 q 376 1158 376 1174 m 669 1079 q 658 1053 669 1064 l 553 1042 q 515 1079 515 1064 q 526 1185 515 1174 l 632 1196 q 669 1158 669 1174 z "},"Ź":{"ha":831,"x_min":54,"x_max":776,"o":"m 54 0 m 739 125 q 765 114 754 125 l 776 38 q 739 0 754 0 q 65 11 76 0 l 54 88 q 75 136 71 129 l 106 847 q 68 885 68 869 q 79 961 68 950 l 725 972 q 763 935 763 950 q 757 859 763 869 l 226 125 m 458 1210 q 484 1232 474 1228 l 619 1236 q 639 1192 646 1199 q 461 1049 474 1056 l 368 1042 q 353 1082 346 1075 z "},"ź":{"ha":710,"x_min":58,"x_max":658,"o":"m 58 0 m 621 119 q 647 108 636 119 l 658 38 q 621 0 636 0 q 69 11 81 0 l 58 92 q 78 132 68 121 l 110 603 q 72 640 72 625 q 83 711 72 700 l 593 722 q 631 685 631 700 q 624 610 631 618 l 226 119 m 401 994 q 427 1017 417 1013 l 556 1021 q 575 976 582 983 q 397 833 410 840 l 311 826 q 296 867 289 860 z "},"Ż":{"ha":831,"x_min":54,"x_max":776,"o":"m 54 0 m 739 125 q 765 114 754 125 l 776 38 q 739 0 754 0 q 65 11 76 0 l 54 88 q 75 136 71 129 l 106 847 q 68 885 68 869 q 79 961 68 950 l 725 972 q 763 935 763 950 q 757 859 763 869 l 226 125 m 493 1079 q 482 1053 493 1064 l 376 1042 q 339 1079 339 1064 q 350 1185 339 1174 l 456 1196 q 493 1158 493 1174 z "},"ż":{"ha":710,"x_min":58,"x_max":658,"o":"m 58 0 m 621 119 q 647 108 636 119 l 658 38 q 621 0 636 0 q 69 11 81 0 l 58 92 q 78 132 68 121 l 110 603 q 72 640 72 625 q 83 711 72 700 l 593 722 q 631 685 631 700 q 624 610 631 618 l 226 119 m 436 871 q 425 844 436 856 l 319 833 q 282 871 282 856 q 293 976 282 965 l 399 988 q 436 950 436 965 z "},"Ž":{"ha":831,"x_min":54,"x_max":776,"o":"m 54 0 m 739 125 q 765 114 754 125 l 776 38 q 739 0 754 0 q 65 11 76 0 l 54 88 q 75 136 71 129 l 106 847 q 68 885 68 869 q 79 961 68 950 l 725 972 q 763 935 763 950 q 757 859 763 869 l 226 125 m 394 1042 q 368 1047 379 1042 l 215 1196 q 231 1236 208 1236 q 289 1233 281 1236 l 415 1150 q 542 1233 533 1229 l 600 1236 q 615 1196 622 1203 q 463 1047 474 1053 l 394 1042 z "},"ž":{"ha":710,"x_min":58,"x_max":658,"o":"m 58 0 m 621 119 q 647 108 636 119 l 658 38 q 621 0 636 0 q 69 11 81 0 l 58 92 q 78 132 68 121 l 110 603 q 72 640 72 625 q 83 711 72 700 l 593 722 q 631 685 631 700 q 624 610 631 618 l 226 119 m 344 826 q 318 832 329 826 l 165 981 q 181 1021 158 1021 q 232 1017 224 1021 l 358 935 q 485 1017 476 1014 l 536 1021 q 551 981 558 988 q 399 832 410 838 l 344 826 z "},"ſ":{"ha":411,"x_min":26,"x_max":535,"o":"m 307 38 q 296 11 307 22 l 218 0 q 181 38 181 22 l 64 603 q 26 640 26 625 q 38 711 26 700 l 181 722 q 235 969 181 910 l 497 1028 q 535 990 535 1006 q 524 919 535 931 l 424 908 q 329 874 342 890 q 307 785 307 811 z "},"ƒ":{"ha":578,"x_min":21,"x_max":549,"o":"m 194 603 l 78 603 q 40 640 40 625 q 51 711 40 700 l 194 722 q 249 969 194 910 l 511 1028 q 549 990 549 1006 q 538 919 549 931 l 438 908 q 343 874 356 890 q 321 785 321 811 l 497 722 q 535 685 535 700 q 524 614 535 625 l 321 603 q 267 -250 321 -187 l 58 -312 q 21 -275 21 -290 q 32 -204 21 -215 l 78 -193 q 172 -158 160 -175 q 194 -69 194 -96 z "},"Ǽ":{"ha":1332,"x_min":1,"x_max":1265,"o":"m 1 0 m 1228 125 q 1254 114 1243 125 l 1265 38 q 1228 0 1243 0 q 640 11 651 0 l 629 219 l 149 35 q 94 0 118 0 q 10 9 19 0 q 7 47 1 38 q 548 957 535 942 l 1217 972 q 1254 935 1254 950 q 1243 858 1254 869 l 761 847 l 1186 554 q 1224 517 1224 532 q 1213 440 1224 451 l 761 429 l 1228 125 m 629 344 l 629 847 l 629 344 m 733 1210 q 759 1232 749 1228 l 894 1236 q 914 1192 921 1199 q 736 1049 749 1056 l 643 1042 q 628 1082 621 1075 z "},"ǽ":{"ha":1240,"x_min":53,"x_max":1176,"o":"m 53 0 m 53 182 q 75 279 53 238 q 227 397 175 379 l 533 457 q 487 581 533 546 q 278 594 310 617 q 207 526 217 531 l 139 522 q 101 560 100 544 q 184 679 147 654 q 371 736 317 736 q 614 625 576 679 q 856 736 776 736 q 1090 642 1049 688 q 1176 385 1176 465 q 1165 321 1176 332 l 661 310 q 719 156 664 207 q 970 127 932 106 q 1051 190 1043 186 l 1118 194 q 1156 157 1158 172 q 1076 47 1113 72 q 856 -14 929 -14 q 594 126 636 61 q 294 -14 407 -14 q 119 42 150 17 q 53 182 53 140 m 308 106 q 400 121 358 106 q 517 228 501 190 l 533 346 q 231 275 282 306 q 186 165 179 181 q 248 114 224 122 m 661 426 l 1051 426 q 998 566 1051 515 q 781 603 815 617 q 678 507 693 542 l 661 426 m 658 994 q 684 1017 674 1013 l 813 1021 q 832 976 839 983 q 654 833 667 840 l 568 826 q 553 867 546 860 z "},"Ǿ":{"ha":957,"x_min":11,"x_max":944,"o":"m 11 0 m 518 1210 q 544 1232 533 1228 l 679 1236 q 699 1192 706 1199 q 521 1049 533 1056 l 428 1042 q 413 1082 406 1075 m 96 603 q 123 753 97 683 q 317 956 246 926 q 622 964 558 986 q 810 808 779 863 l 900 708 q 936 704 928 713 l 944 644 l 863 579 q 863 369 865 426 q 760 97 808 149 q 479 -14 571 -14 q 226 69 274 31 q 106 282 119 217 q 40 258 44 258 q 11 288 11 275 q 42 372 11 361 q 93 496 93 447 m 228 603 q 225 522 225 560 l 728 640 q 479 861 579 861 q 301 797 335 829 q 228 603 229 668 m 731 369 q 733 450 732 413 l 231 331 q 479 111 379 111 q 657 175 624 143 q 731 369 728 304 z "},"ǿ":{"ha":843,"x_min":17,"x_max":826,"o":"m 17 0 m 467 994 q 492 1017 482 1013 l 621 1021 q 640 976 647 983 q 463 833 475 840 l 376 826 q 361 867 354 860 m 422 736 q 615 683 539 736 l 782 560 q 818 556 810 564 l 826 496 l 750 432 q 751 426 751 428 q 753 360 753 379 q 751 296 753 307 q 656 72 697 113 q 422 -14 497 -14 q 117 185 151 93 q 46 158 50 158 q 17 188 17 175 q 47 272 17 261 l 93 296 q 90 360 90 342 q 93 426 92 414 q 189 650 147 610 q 422 736 347 736 m 625 303 q 627 340 626 318 l 235 231 q 422 106 347 106 q 568 163 543 136 q 625 303 621 261 m 219 419 q 217 381 217 403 l 610 492 q 422 617 497 617 q 276 560 301 586 q 219 419 224 461 z "},"Ș":{"ha":858,"x_min":53,"x_max":799,"o":"m 53 0 m 418 986 q 567 960 503 986 q 746 813 722 857 q 763 713 772 722 l 683 704 q 640 735 650 715 q 574 812 601 792 q 418 861 469 861 q 281 825 308 843 q 219 717 219 753 q 287 610 251 631 q 508 536 431 557 q 732 434 697 465 q 799 269 799 321 q 696 65 744 103 q 425 -14 510 -14 q 160 71 208 33 q 53 244 54 200 q 83 275 71 275 q 165 269 154 275 q 209 202 192 225 q 326 125 285 139 q 517 122 474 111 q 647 204 628 175 q 644 331 667 306 q 478 416 539 399 q 224 497 272 471 q 101 629 114 589 q 108 817 88 768 q 273 963 211 940 m 338 -124 q 355 -87 340 -104 l 478 -69 q 508 -100 508 -87 l 432 -303 q 372 -347 400 -347 q 317 -338 326 -347 l 308 -314 z "},"ș":{"ha":703,"x_min":60,"x_max":642,"o":"m 60 0 m 515 200 q 501 244 515 226 q 383 297 428 286 q 120 399 165 344 q 92 607 75 569 q 226 719 175 703 q 463 721 413 736 q 601 631 583 658 q 610 553 622 564 l 538 542 q 496 561 506 549 q 344 617 407 617 q 201 528 201 569 q 249 458 224 469 q 417 413 356 426 q 593 328 567 356 q 642 200 642 236 q 564 51 601 81 q 351 -14 419 -14 q 140 44 178 19 q 61 150 63 125 q 99 188 82 188 q 168 185 157 188 q 250 122 211 139 q 412 113 382 106 q 501 162 488 144 m 257 -124 q 274 -87 260 -104 l 389 -69 q 419 -100 419 -87 l 343 -303 q 283 -347 311 -347 q 237 -338 246 -347 l 228 -314 z "},"ȷ":{"ha":410,"x_min":13,"x_max":306,"o":"m 179 603 l 64 603 q 26 640 26 625 q 38 711 26 700 l 268 722 q 306 685 306 700 q 251 -201 306 -139 l 50 -264 q 13 -226 13 -242 q 24 -156 13 -167 l 63 -144 q 157 -110 144 -126 q 179 -21 179 -47 z "},"ˆ":{"ha":594,"x_min":97,"x_max":497,"o":"m 311 1021 q 338 1015 326 1021 l 490 867 q 475 826 497 826 q 424 830 432 826 l 297 913 q 171 830 179 833 l 119 826 q 104 867 97 860 q 257 1015 246 1010 l 311 1021 z "},"ˇ":{"ha":581,"x_min":90,"x_max":490,"o":"m 276 826 q 250 832 261 826 l 97 981 q 113 1021 90 1021 q 164 1017 156 1021 l 290 935 q 417 1017 408 1014 l 468 1021 q 483 981 490 988 q 331 832 342 838 l 276 826 z "},"˘":{"ha":525,"x_min":90,"x_max":435,"o":"m 263 819 q 185 835 218 819 q 101 931 111 900 q 97 1013 90 1006 l 161 1021 q 188 994 188 1006 q 263 911 226 911 q 338 994 338 958 q 364 1021 351 1021 q 428 1013 421 1021 q 424 931 435 963 q 340 835 372 850 z "},"˙":{"ha":335,"x_min":89,"x_max":243,"o":"m 243 871 q 232 844 243 856 l 126 833 q 89 871 89 856 q 100 976 89 965 l 206 988 q 243 950 243 965 z "},"˚":{"ha":417,"x_min":90,"x_max":326,"o":"m 167 931 q 178 901 167 913 q 238 901 226 889 q 238 960 250 949 q 178 960 190 972 m 90 931 q 125 1010 90 979 q 292 1010 257 1042 q 292 851 326 882 q 125 851 160 819 z "},"˛":{"ha":436,"x_min":90,"x_max":346,"o":"m 289 -306 q 210 -292 247 -306 q 106 -190 121 -228 q 106 -15 90 -53 q 210 87 174 74 l 315 100 l 346 31 l 294 0 q 294 -206 203 -206 q 346 -236 346 -206 q 315 -306 346 -306 z "},"˜":{"ha":588,"x_min":90,"x_max":497,"o":"m 378 819 q 326 826 347 819 q 258 857 272 850 q 204 858 211 864 q 184 832 189 838 l 117 826 q 90 853 90 842 q 117 935 103 914 q 210 986 178 986 q 297 964 282 972 q 360 942 342 942 q 394 960 390 953 q 419 979 408 979 q 490 972 483 979 q 491 915 497 938 q 433 835 456 850 z "},"˝":{"ha":664,"x_min":90,"x_max":574,"o":"m 153 994 q 171 1015 160 1008 l 300 1021 q 319 976 328 985 q 151 826 182 826 q 90 849 90 826 q 97 869 94 865 m 399 994 q 417 1015 406 1008 l 546 1021 q 565 976 574 985 q 397 826 428 826 q 336 849 336 826 q 343 869 340 865 z "},"Ѐ":{"ha":822,"x_min":119,"x_max":756,"o":"m 119 0 m 718 125 q 744 114 733 125 l 756 38 q 718 0 733 0 q 131 11 142 0 l 119 935 q 157 972 142 972 q 733 961 722 972 l 744 885 q 707 847 722 847 l 251 554 q 703 543 692 554 l 714 467 q 676 429 692 429 l 251 125 m 504 1082 q 511 1064 511 1075 l 431 1042 q 372 1065 383 1056 q 211 1208 211 1199 l 347 1236 q 399 1210 383 1228 z "},"Ё":{"ha":822,"x_min":119,"x_max":756,"o":"m 119 0 m 368 1079 q 357 1053 368 1064 l 251 1042 q 214 1079 214 1064 q 225 1185 214 1174 l 331 1196 q 368 1158 368 1174 m 661 1079 q 650 1053 661 1064 l 544 1042 q 507 1079 507 1064 q 518 1185 507 1174 l 624 1196 q 661 1158 661 1174 m 718 125 q 744 114 733 125 l 756 38 q 718 0 733 0 q 131 11 142 0 l 119 935 q 157 972 142 972 q 733 961 722 972 l 744 885 q 707 847 722 847 l 251 554 q 703 543 692 554 l 714 467 q 676 429 692 429 l 251 125 z "},"Ђ":{"ha":1013,"x_min":29,"x_max":940,"o":"m 808 375 q 758 524 808 479 l 376 569 q 365 11 376 22 l 282 0 q 244 38 244 22 l 67 847 q 29 885 29 869 q 40 961 29 950 l 563 972 q 600 935 600 950 q 589 858 600 869 l 376 847 l 626 694 q 940 382 940 542 q 886 -249 940 -186 l 679 -312 q 642 -275 642 -290 q 653 -199 642 -210 l 692 -187 q 786 -153 774 -169 q 808 -64 808 -90 z "},"Ѓ":{"ha":776,"x_min":119,"x_max":753,"o":"m 119 0 m 715 972 q 742 961 731 972 l 753 885 q 715 847 731 847 l 251 38 q 214 0 229 0 q 131 11 142 0 l 119 935 q 157 972 142 972 m 486 1210 q 512 1232 501 1228 l 647 1236 q 667 1192 674 1199 q 489 1049 501 1056 l 396 1042 q 381 1082 374 1075 z "},"Є":{"ha":883,"x_min":78,"x_max":821,"o":"m 458 111 q 549 123 510 111 q 663 196 644 172 q 725 275 700 275 q 811 266 801 275 q 797 165 818 210 q 619 13 688 40 q 306 15 374 -14 q 113 224 140 150 q 78 444 79 422 q 78 528 78 506 q 113 748 85 674 q 306 958 238 929 q 619 959 551 986 q 797 808 775 853 q 811 706 821 715 l 725 697 q 663 776 681 753 q 549 849 589 838 q 342 833 389 861 q 224 663 236 718 l 540 551 q 578 514 578 529 q 567 438 578 449 l 211 426 q 270 203 240 246 q 458 111 393 111 z "},"Ѕ":{"ha":858,"x_min":53,"x_max":799,"o":"m 53 0 m 418 986 q 567 960 503 986 q 746 813 722 857 q 763 713 772 722 l 683 704 q 640 735 650 715 q 574 812 601 792 q 418 861 469 861 q 281 825 308 843 q 219 717 219 753 q 287 610 251 631 q 508 536 431 557 q 732 434 697 465 q 799 269 799 321 q 696 65 744 103 q 425 -14 510 -14 q 160 71 208 33 q 53 244 54 200 q 83 275 71 275 q 165 269 154 275 q 209 202 192 225 q 326 125 285 139 q 517 122 474 111 q 647 204 628 175 q 644 331 667 306 q 478 416 539 399 q 224 497 272 471 q 101 629 114 589 q 108 817 88 768 q 273 963 211 940 z "},"І":{"ha":371,"x_min":119,"x_max":251,"o":"m 119 0 m 157 0 q 131 11 142 0 l 119 935 q 157 972 142 972 q 240 961 229 972 l 251 38 q 214 0 229 0 z "},"Ї":{"ha":371,"x_min":-37,"x_max":410,"o":"m 0 0 m 157 0 q 131 11 142 0 l 119 935 q 157 972 142 972 q 240 961 229 972 l 251 38 q 214 0 229 0 m 117 1079 q 106 1053 117 1064 l 0 1042 q -37 1079 -37 1064 q -26 1185 -37 1174 l 79 1196 q 117 1158 117 1174 m 410 1079 q 399 1053 410 1064 l 293 1042 q 256 1079 256 1064 q 267 1185 256 1174 l 372 1196 q 410 1158 410 1174 z "},"Ј":{"ha":553,"x_min":47,"x_max":442,"o":"m 47 0 m 47 74 q 58 100 47 89 q 257 175 206 111 l 310 935 q 347 972 332 972 q 431 961 419 972 l 442 340 q 351 85 396 132 q 85 -14 172 -14 q 47 24 47 8 z "},"Љ":{"ha":1374,"x_min":19,"x_max":1326,"o":"m 200 935 q 211 961 200 950 l 704 972 q 742 935 742 950 l 1032 589 q 1250 503 1213 543 q 1326 294 1326 356 q 1250 86 1288 126 q 1032 0 1103 0 q 621 11 632 0 l 610 847 l 332 250 q 272 67 303 104 q 74 -14 143 -14 q 31 -3 42 -14 l 19 74 q 57 111 42 111 q 167 146 133 111 l 200 935 m 1194 294 q 1183 360 1194 329 q 1091 451 1125 438 l 742 464 l 1011 125 q 1148 174 1125 151 q 1194 294 1194 260 z "},"Њ":{"ha":1349,"x_min":119,"x_max":1301,"o":"m 585 935 q 595 961 585 950 l 681 972 q 717 935 717 950 l 1007 589 q 1225 503 1188 543 q 1301 294 1301 356 q 1225 86 1263 126 q 1007 0 1078 0 q 596 11 607 0 l 585 429 l 251 38 q 214 0 229 0 q 131 10 142 0 l 119 935 q 157 972 142 972 q 240 961 229 972 l 251 554 l 585 935 m 1169 294 q 1158 360 1169 329 q 1066 451 1100 438 l 717 464 l 986 125 q 1123 174 1100 151 q 1169 294 1169 260 z "},"Ћ":{"ha":1013,"x_min":29,"x_max":940,"o":"m 282 0 q 256 11 267 0 l 244 847 q 40 858 51 847 l 29 935 q 67 972 51 972 q 589 961 578 972 l 600 885 q 563 847 578 847 l 376 694 q 862 618 783 694 l 940 38 q 903 0 918 0 q 819 11 831 0 l 808 375 q 614 569 708 569 l 376 38 q 339 0 354 0 l 282 0 z "},"Ќ":{"ha":832,"x_min":119,"x_max":811,"o":"m 119 0 m 475 1210 q 501 1232 490 1228 l 636 1236 q 656 1192 663 1199 q 478 1049 490 1056 l 385 1042 q 369 1082 363 1075 m 324 507 l 797 56 q 811 31 811 35 q 781 0 793 0 q 663 8 675 0 l 251 396 q 240 11 251 22 l 157 0 q 119 38 119 22 q 131 961 119 950 l 214 972 q 251 935 251 950 l 622 951 q 672 972 653 972 q 774 963 765 972 q 781 931 783 938 l 324 507 z "},"Ѝ":{"ha":964,"x_min":119,"x_max":844,"o":"m 206 0 q 238 13 225 0 l 713 721 q 724 11 713 22 l 807 0 q 844 38 844 22 q 833 961 844 950 l 758 972 q 703 931 713 946 l 251 935 q 214 972 229 972 q 131 961 142 972 l 119 38 q 157 0 142 0 m 533 1082 q 540 1064 540 1075 l 460 1042 q 401 1065 413 1056 q 240 1208 240 1199 l 376 1236 q 428 1210 413 1228 z "},"Ў":{"ha":838,"x_min":33,"x_max":832,"o":"m 33 0 m 40 921 q 33 942 33 933 q 64 972 51 972 q 163 961 151 972 l 432 456 q 702 961 690 950 l 801 972 q 832 942 832 954 l 492 282 q 373 92 408 132 q 194 0 250 0 q 96 11 107 0 l 85 88 q 122 125 107 125 q 233 141 210 125 q 318 244 299 211 l 40 921 m 432 1035 q 351 1050 385 1035 q 263 1147 274 1115 q 260 1228 253 1221 l 324 1236 q 350 1210 350 1221 q 432 1126 394 1126 q 514 1210 514 1174 q 540 1236 528 1236 q 604 1228 597 1236 q 601 1147 611 1178 q 513 1050 547 1065 z "},"Џ":{"ha":924,"x_min":119,"x_max":804,"o":"m 528 0 l 528 -115 q 490 -153 506 -153 q 407 -142 418 -153 l 396 0 q 131 11 142 0 l 119 935 q 157 972 142 972 q 240 961 229 972 l 251 125 l 672 935 q 710 972 694 972 q 793 961 782 972 l 804 38 q 767 0 782 0 z "},"А":{"ha":944,"x_min":22,"x_max":921,"o":"m 22 0 m 713 219 l 231 219 q 143 12 154 24 l 53 0 q 22 31 22 18 l 368 926 q 431 972 403 972 q 556 957 542 972 l 915 50 q 912 9 921 18 l 839 0 q 785 35 789 24 m 279 344 l 664 344 l 279 344 z "},"Б":{"ha":893,"x_min":119,"x_max":836,"o":"m 542 589 q 667 566 613 589 q 817 409 797 463 q 817 180 836 233 q 667 23 722 46 l 157 0 q 119 38 119 22 q 131 961 119 950 l 738 972 q 774 935 774 950 q 763 858 774 869 l 251 847 l 542 589 m 704 294 q 692 360 704 329 q 601 451 635 438 l 251 464 l 521 125 q 658 174 635 151 q 704 294 704 260 z "},"В":{"ha":928,"x_min":119,"x_max":854,"o":"m 119 0 m 251 442 l 251 125 q 616 138 581 125 q 710 222 699 194 q 711 342 722 313 q 619 428 654 415 l 251 442 m 251 847 l 251 567 q 655 603 608 567 q 655 811 701 775 l 251 847 m 157 0 q 131 11 142 0 l 119 935 q 157 972 142 972 q 676 945 618 972 q 819 793 804 839 q 819 631 833 665 q 749 535 768 549 q 815 420 775 479 q 835 179 854 229 q 681 24 739 49 l 157 0 z "},"Г":{"ha":776,"x_min":119,"x_max":753,"o":"m 715 972 q 742 961 731 972 l 753 885 q 715 847 731 847 l 251 38 q 214 0 229 0 q 131 11 142 0 l 119 935 q 157 972 142 972 z "},"Д":{"ha":979,"x_min":22,"x_max":910,"o":"m 193 935 q 204 961 193 950 l 803 972 q 840 935 840 950 l 872 125 q 910 88 910 103 q 899 -142 910 -131 l 815 -153 q 778 -115 778 -131 l 154 0 q 143 -142 154 -131 l 60 -153 q 22 -115 22 -131 q 33 114 22 103 l 82 125 q 167 159 154 140 q 193 290 193 242 m 325 267 q 319 192 325 233 l 708 125 l 325 847 z "},"Е":{"ha":822,"x_min":119,"x_max":756,"o":"m 119 0 m 718 125 q 744 114 733 125 l 756 38 q 718 0 733 0 q 131 11 142 0 l 119 935 q 157 972 142 972 q 733 961 722 972 l 744 885 q 707 847 722 847 l 251 554 q 703 543 692 554 l 714 467 q 676 429 692 429 l 251 125 z "},"Ж":{"ha":985,"x_min":32,"x_max":953,"o":"m 464 0 q 438 11 449 0 l 426 371 q 161 12 172 24 l 63 0 q 32 31 32 18 q 36 46 33 40 l 50 926 q 55 963 46 954 l 142 972 q 200 938 194 944 l 426 935 q 464 972 449 972 q 547 961 536 972 l 558 626 q 803 958 790 944 l 908 972 q 939 942 939 954 l 621 496 q 952 37 951 40 q 944 9 953 18 l 863 0 q 806 32 813 24 l 558 38 q 521 0 536 0 l 464 0 z "},"З":{"ha":882,"x_min":50,"x_max":810,"o":"m 428 986 q 566 969 501 986 q 754 831 726 882 q 753 592 782 643 q 773 412 736 469 q 780 151 810 204 q 576 5 646 24 q 263 13 332 -14 q 76 165 100 119 q 60 266 50 257 l 146 275 q 210 196 190 219 q 333 123 292 135 q 524 122 478 111 q 658 204 638 174 q 659 344 678 314 q 531 426 575 415 l 356 439 q 318 476 318 461 q 329 553 318 542 l 428 564 q 585 602 554 583 q 650 713 650 676 q 585 823 615 804 q 428 861 474 861 q 281 819 308 838 q 211 728 219 753 l 111 697 q 81 728 79 715 q 167 892 125 853 q 428 986 339 986 z "},"И":{"ha":964,"x_min":119,"x_max":844,"o":"m 206 0 q 238 13 225 0 l 713 721 q 724 11 713 22 l 807 0 q 844 38 844 22 q 833 961 844 950 l 758 972 q 703 931 713 946 l 251 935 q 214 972 229 972 q 131 961 142 972 l 119 38 q 157 0 142 0 z "},"Й":{"ha":964,"x_min":119,"x_max":844,"o":"m 482 1035 q 401 1050 435 1035 q 313 1147 324 1115 q 310 1228 303 1221 l 374 1236 q 400 1210 400 1221 q 482 1126 444 1126 q 564 1210 564 1174 q 590 1236 578 1236 q 654 1228 647 1236 q 651 1147 661 1178 q 563 1050 597 1065 m 206 0 q 238 13 225 0 l 713 721 q 724 11 713 22 l 807 0 q 844 38 844 22 q 833 961 844 950 l 758 972 q 703 931 713 946 l 251 935 q 214 972 229 972 q 131 961 142 972 l 119 38 q 157 0 142 0 z "},"К":{"ha":832,"x_min":119,"x_max":811,"o":"m 119 0 m 324 507 l 797 56 q 811 31 811 35 q 781 0 793 0 q 663 8 675 0 l 251 396 q 240 11 251 22 l 157 0 q 119 38 119 22 q 131 961 119 950 l 214 972 q 251 935 251 950 l 622 951 q 672 972 653 972 q 774 963 765 972 q 781 931 783 938 l 324 507 z "},"Л":{"ha":969,"x_min":19,"x_max":850,"o":"m 200 935 q 211 961 200 950 l 813 972 q 850 935 850 950 q 839 11 850 22 l 756 0 q 718 38 718 22 l 332 847 q 317 151 332 199 q 192 8 240 31 l 57 -14 q 19 24 19 8 q 31 100 19 89 l 68 111 q 200 256 200 181 l 200 935 z "},"М":{"ha":1103,"x_min":119,"x_max":983,"o":"m 119 0 m 551 385 l 832 928 q 893 972 869 972 q 972 961 961 972 l 983 38 q 946 0 961 0 q 863 11 874 0 l 851 696 q 611 245 624 257 l 525 233 q 468 278 479 257 l 251 38 q 214 0 229 0 q 131 11 142 0 l 119 935 q 157 972 142 972 q 248 958 233 972 l 551 385 z "},"Н":{"ha":992,"x_min":119,"x_max":872,"o":"m 119 0 m 835 972 q 861 961 850 972 l 872 38 q 835 0 850 0 q 751 11 763 0 l 740 429 l 251 38 q 214 0 229 0 q 131 10 142 0 l 119 935 q 157 972 142 972 q 240 961 229 972 l 251 554 l 740 935 q 778 972 763 972 z "},"О":{"ha":933,"x_min":79,"x_max":854,"o":"m 79 0 m 83 610 q 110 756 85 688 q 304 956 233 926 q 629 956 558 986 q 823 756 797 825 q 850 363 854 486 q 747 96 796 147 q 467 -14 558 -14 q 186 96 235 44 q 83 363 86 285 m 718 603 q 697 717 715 668 q 566 845 611 829 q 367 845 413 861 q 236 717 256 765 q 213 486 213 540 q 236 256 217 304 q 367 127 322 143 q 566 127 521 111 q 697 256 678 207 q 721 486 721 432 z "},"П":{"ha":992,"x_min":119,"x_max":872,"o":"m 835 972 q 861 961 850 972 l 872 38 q 835 0 850 0 q 751 11 763 0 l 740 847 l 251 38 q 214 0 229 0 q 131 11 142 0 l 119 935 q 157 972 142 972 z "},"Р":{"ha":889,"x_min":119,"x_max":842,"o":"m 119 0 m 507 972 q 635 955 575 972 q 815 810 788 865 q 815 545 842 601 q 635 396 696 414 l 251 378 q 240 11 251 22 l 157 0 q 119 38 119 22 q 131 961 119 950 l 507 972 m 251 503 l 500 503 q 710 678 710 589 q 500 847 600 847 l 251 503 z "},"С":{"ha":926,"x_min":79,"x_max":864,"o":"m 79 0 m 215 603 q 213 486 213 540 q 285 183 219 254 q 588 128 542 111 q 709 231 693 197 q 747 323 736 315 l 833 331 q 864 300 864 313 q 772 98 818 146 q 475 -14 579 -14 q 192 93 243 43 q 83 363 86 281 q 114 760 86 690 q 314 958 243 929 q 652 954 579 986 q 840 772 818 826 q 855 651 864 660 l 769 642 q 733 672 736 657 q 663 801 693 775 q 475 861 542 861 q 215 603 219 718 z "},"Т":{"ha":790,"x_min":32,"x_max":758,"o":"m 32 0 m 721 972 q 747 961 736 972 l 758 885 q 721 847 736 847 l 461 38 q 424 0 439 0 q 340 11 351 0 l 329 847 q 43 858 54 847 l 32 935 q 69 972 54 972 z "},"У":{"ha":838,"x_min":33,"x_max":832,"o":"m 40 921 q 33 942 33 933 q 64 972 51 972 q 163 961 151 972 l 432 456 q 702 961 690 950 l 801 972 q 832 942 832 954 l 492 282 q 373 92 408 132 q 194 0 250 0 q 96 11 107 0 l 85 88 q 122 125 107 125 q 233 141 210 125 q 318 244 299 211 l 40 921 z "},"Ф":{"ha":1038,"x_min":40,"x_max":997,"o":"m 547 1000 q 574 989 563 1000 l 585 838 q 876 729 819 776 q 997 486 997 557 q 876 243 932 290 q 585 135 669 139 q 574 -17 585 -6 l 490 -28 q 453 10 453 -6 q 293 167 368 139 q 73 353 106 290 q 73 619 40 557 q 293 805 218 776 l 453 963 q 490 1000 475 1000 m 865 486 q 844 572 865 532 q 697 691 749 672 l 585 260 q 786 330 749 300 q 865 486 865 440 m 453 713 q 340 691 392 710 q 193 572 214 613 q 193 400 172 440 q 340 281 289 300 l 453 713 z "},"Х":{"ha":886,"x_min":32,"x_max":854,"o":"m 32 0 m 440 390 l 179 32 q 122 0 150 0 q 41 9 50 0 q 33 37 32 33 l 364 496 q 46 942 46 935 q 76 972 64 972 q 182 958 169 972 l 447 599 q 707 958 694 943 l 807 972 q 838 942 838 954 l 524 493 q 853 37 853 40 q 845 9 854 18 l 758 0 q 701 32 708 24 z "},"Ц":{"ha":1004,"x_min":119,"x_max":939,"o":"m 858 125 l 901 125 q 939 88 939 103 q 928 -142 939 -131 l 844 -153 q 807 -115 807 -131 l 157 0 q 119 38 119 22 q 131 961 119 950 l 214 972 q 251 935 251 950 l 726 125 q 738 961 726 950 l 821 972 q 858 935 858 950 z "},"Ч":{"ha":878,"x_min":63,"x_max":758,"o":"m 194 692 q 244 542 194 588 l 626 497 q 638 961 626 950 l 721 972 q 758 935 758 950 q 747 11 758 22 l 664 0 q 626 38 626 22 l 376 372 q 63 685 63 525 q 74 961 63 950 l 157 972 q 194 935 194 950 z "},"Ш":{"ha":1235,"x_min":119,"x_max":1115,"o":"m 157 0 q 131 11 142 0 l 119 935 q 157 972 142 972 q 240 961 229 972 l 251 125 l 551 935 q 589 972 574 972 q 672 961 661 972 l 683 125 l 983 935 q 1021 972 1006 972 q 1104 961 1093 972 l 1115 38 q 1078 0 1093 0 z "},"Щ":{"ha":1261,"x_min":119,"x_max":1196,"o":"m 157 0 q 131 11 142 0 l 119 935 q 157 972 142 972 q 240 961 229 972 l 251 125 l 551 935 q 589 972 574 972 q 672 961 661 972 l 683 125 l 983 935 q 1021 972 1006 972 q 1104 961 1093 972 l 1115 125 q 1185 114 1174 125 l 1196 -115 q 1158 -153 1174 -153 q 1075 -142 1086 -153 l 1064 0 l 157 0 z "},"Ъ":{"ha":958,"x_min":28,"x_max":911,"o":"m 28 935 q 38 961 28 950 l 290 972 q 326 935 326 950 l 617 589 q 835 503 797 543 q 911 294 911 356 q 835 86 872 126 q 617 0 688 0 q 206 11 217 0 l 194 847 q 38 858 49 847 l 28 935 m 779 294 q 767 360 779 329 q 676 451 710 438 l 326 464 l 596 125 q 733 174 710 151 q 779 294 779 260 z "},"Ы":{"ha":1143,"x_min":119,"x_max":1024,"o":"m 119 935 q 130 961 119 950 l 215 972 q 251 935 251 950 l 542 589 q 760 503 722 543 q 836 294 836 356 q 760 86 797 126 q 542 0 613 0 q 131 11 142 0 l 119 935 m 704 294 q 692 360 704 329 q 601 451 635 438 l 251 464 l 521 125 q 658 174 635 151 q 704 294 704 260 m 986 972 q 1013 961 1001 972 l 1024 38 q 986 0 1001 0 q 903 11 914 0 l 892 935 q 929 972 914 972 z "},"Ь":{"ha":883,"x_min":119,"x_max":836,"o":"m 119 935 q 130 961 119 950 l 215 972 q 251 935 251 950 l 542 589 q 760 503 722 543 q 836 294 836 356 q 760 86 797 126 q 542 0 613 0 q 131 11 142 0 l 119 935 m 704 294 q 692 360 704 329 q 601 451 635 438 l 251 464 l 521 125 q 658 174 635 151 q 704 294 704 260 z "},"Э":{"ha":883,"x_min":63,"x_max":806,"o":"m 425 111 q 537 135 490 111 q 657 303 643 246 l 343 426 q 306 464 306 449 q 317 540 306 529 l 672 551 q 618 762 647 718 q 425 861 494 861 q 267 819 294 838 q 194 728 203 753 l 94 697 q 64 728 63 715 q 152 892 108 853 q 425 986 331 986 q 694 876 646 929 q 803 582 799 674 q 806 486 806 506 q 803 390 804 422 q 694 97 743 150 q 425 -14 510 -14 q 152 80 196 40 q 64 244 65 210 q 94 275 82 275 q 194 244 183 275 q 267 153 239 172 q 425 111 374 111 z "},"Ю":{"ha":1318,"x_min":119,"x_max":1239,"o":"m 468 610 q 495 756 469 688 q 689 956 618 926 q 1014 956 943 986 q 1208 756 1182 825 q 1235 363 1239 486 q 1132 96 1181 147 q 851 -14 943 -14 q 571 96 619 44 q 468 363 471 285 q 465 429 465 411 l 244 38 q 207 0 222 0 q 131 11 142 0 l 119 935 q 157 972 142 972 q 233 961 222 972 l 244 554 q 467 582 467 568 m 1103 603 q 1081 717 1100 668 q 951 845 996 829 q 752 845 797 861 q 621 717 640 765 q 597 486 597 540 q 621 256 601 304 q 752 127 707 143 q 951 127 906 111 q 1081 256 1063 207 q 1106 486 1106 432 z "},"Я":{"ha":904,"x_min":63,"x_max":785,"o":"m 411 972 q 283 956 343 972 q 103 815 131 869 q 133 506 76 572 l 67 46 q 72 9 63 18 l 153 0 q 213 38 207 28 l 653 392 q 664 11 653 22 l 747 0 q 785 38 785 22 q 774 961 785 950 l 411 972 m 653 517 l 418 517 q 208 685 208 596 q 418 847 318 847 l 653 517 z "},"а":{"ha":758,"x_min":53,"x_max":660,"o":"m 53 0 m 53 182 q 75 279 53 238 q 227 397 175 379 l 533 457 q 487 581 533 546 q 278 594 310 617 q 207 526 217 531 l 139 522 q 101 560 100 544 q 184 679 147 654 q 371 736 317 736 q 578 665 540 700 q 660 461 660 528 q 649 11 660 22 l 571 0 q 533 38 533 22 q 494 48 521 68 q 363 -7 400 0 q 195 1 240 -14 q 70 104 88 68 m 308 106 q 400 121 358 106 q 517 228 501 190 l 533 346 q 231 275 282 306 q 186 165 179 181 q 248 114 224 122 z "},"б":{"ha":769,"x_min":68,"x_max":704,"o":"m 535 976 q 513 888 535 928 q 387 731 426 771 q 386 653 344 653 q 615 565 572 608 q 704 319 704 399 q 615 78 657 122 q 386 -14 456 -14 q 158 78 200 35 q 68 319 68 246 q 156 646 118 586 q 320 832 282 794 q 408 976 408 938 q 446 1014 431 1014 q 524 1003 513 1014 m 386 533 q 242 474 289 533 q 242 165 194 224 q 531 165 483 106 q 531 474 578 415 z "},"в":{"ha":817,"x_min":104,"x_max":744,"o":"m 231 304 l 231 121 q 576 141 535 121 q 578 285 618 267 l 231 304 m 231 601 l 231 425 q 565 444 528 425 q 562 585 603 568 l 231 601 m 132 0 q 113 8 121 0 l 104 694 q 132 722 121 722 q 663 669 596 722 q 722 474 729 497 q 676 400 690 414 q 724 301 703 343 q 676 53 744 106 l 132 0 z "},"г":{"ha":689,"x_min":104,"x_max":672,"o":"m 635 722 q 661 711 650 722 l 672 640 q 635 603 650 603 l 231 38 q 193 0 208 0 q 115 11 126 0 l 104 685 q 142 722 126 722 z "},"д":{"ha":758,"x_min":29,"x_max":693,"o":"m 168 685 q 178 711 168 700 l 592 722 q 629 685 629 700 l 656 119 q 693 82 693 97 q 682 -142 693 -131 l 604 -153 q 567 -115 567 -131 l 156 0 q 144 -142 156 -131 l 67 -153 q 29 -115 29 -131 q 40 108 29 97 l 99 119 q 156 161 149 142 q 168 257 168 229 m 503 603 l 294 603 q 268 119 294 158 l 503 603 z "},"е":{"ha":774,"x_min":64,"x_max":710,"o":"m 64 0 m 71 431 q 101 550 76 494 q 263 713 207 689 q 523 712 464 736 q 688 531 665 596 l 710 347 q 672 310 688 310 l 194 301 q 389 106 307 106 q 565 175 542 149 q 610 194 593 194 q 679 183 667 194 q 665 102 685 132 q 517 3 572 21 q 264 10 319 -14 q 101 177 126 119 q 71 431 64 367 m 194 426 l 585 426 q 531 566 585 515 q 314 603 349 617 q 211 507 226 542 l 194 426 z "},"ж":{"ha":882,"x_min":40,"x_max":842,"o":"m 154 722 q 183 713 172 722 l 378 471 q 389 711 378 700 l 467 722 q 504 685 504 700 l 683 696 q 728 722 710 722 q 818 713 808 722 q 822 671 828 679 l 836 51 q 832 10 842 19 l 744 0 q 700 26 706 19 l 504 38 q 467 0 482 0 q 389 11 400 0 l 378 272 q 166 10 176 19 l 74 0 q 40 32 40 19 l 300 369 q 54 690 54 679 q 88 722 74 722 l 154 722 z "},"з":{"ha":713,"x_min":56,"x_max":640,"o":"m 182 172 q 249 117 206 128 q 413 110 383 106 q 501 157 488 138 q 469 280 514 257 l 251 303 q 214 340 214 325 q 225 411 214 400 l 361 422 q 501 519 501 471 q 349 617 413 617 q 196 536 217 579 q 150 499 165 499 q 81 510 93 499 q 91 610 72 574 q 231 719 179 703 q 458 723 407 736 q 606 615 583 656 q 610 433 628 471 q 619 302 599 342 q 617 101 640 143 q 462 -3 515 8 q 222 1 275 -14 q 77 102 96 68 q 67 199 56 188 l 136 210 q 182 172 171 194 z "},"и":{"ha":853,"x_min":104,"x_max":749,"o":"m 660 0 q 633 11 644 0 l 622 503 q 188 0 207 0 q 115 11 125 0 l 104 685 q 142 722 126 722 q 219 711 208 722 l 231 215 q 648 718 642 714 l 711 722 q 749 685 749 700 q 738 11 749 22 l 660 0 z "},"й":{"ha":853,"x_min":104,"x_max":749,"o":"m 104 0 m 660 0 q 633 11 644 0 l 622 503 q 188 0 207 0 q 115 11 125 0 l 104 685 q 142 722 126 722 q 219 711 208 722 l 231 215 q 648 718 642 714 l 711 722 q 749 685 749 700 q 738 11 749 22 l 660 0 m 426 819 q 349 835 382 819 q 265 931 275 900 q 261 1013 254 1006 l 325 1021 q 351 994 351 1006 q 426 911 390 911 q 501 994 501 958 q 528 1021 515 1021 q 592 1013 585 1021 q 588 931 599 963 q 503 835 536 850 z "},"к":{"ha":725,"x_min":104,"x_max":706,"o":"m 231 444 l 519 699 q 574 722 554 722 q 664 713 654 722 q 672 676 674 682 l 322 367 q 706 33 706 49 q 672 0 686 0 q 565 8 579 0 l 231 283 q 219 11 231 22 l 142 0 q 104 38 104 22 q 115 711 104 700 l 193 722 q 231 685 231 700 z "},"л":{"ha":832,"x_min":25,"x_max":728,"o":"m 185 685 q 196 711 185 700 l 690 722 q 728 685 728 700 q 717 11 728 22 l 639 0 q 601 38 601 22 l 311 603 q 299 137 311 183 q 189 5 233 24 l 63 -14 q 25 24 25 8 q 36 94 25 83 l 79 106 q 185 242 185 179 l 185 685 z "},"м":{"ha":919,"x_min":104,"x_max":815,"o":"m 460 278 l 681 694 q 732 722 708 722 q 804 711 793 722 l 815 38 q 778 0 793 0 q 700 11 711 0 l 689 456 q 508 129 518 140 l 443 118 q 394 153 401 140 l 231 38 q 193 0 208 0 q 115 11 126 0 l 104 685 q 142 722 126 722 q 223 713 211 722 l 460 278 z "},"н":{"ha":853,"x_min":104,"x_max":749,"o":"m 711 722 q 738 711 726 722 l 749 38 q 711 0 726 0 q 633 11 644 0 l 622 308 l 231 38 q 193 0 208 0 q 115 10 126 0 l 104 685 q 142 722 126 722 q 219 711 208 722 l 231 428 l 622 685 q 660 722 644 722 z "},"о":{"ha":801,"x_min":68,"x_max":731,"o":"m 68 0 m 400 736 q 533 713 475 736 q 699 552 675 610 q 731 397 731 414 q 731 324 731 342 q 699 169 722 226 q 533 9 592 32 q 267 9 325 -14 q 101 169 125 113 q 69 324 69 307 q 69 397 68 379 q 101 552 76 494 q 267 713 208 690 m 603 303 q 606 360 606 326 q 585 497 599 461 q 485 601 521 586 q 315 601 351 617 q 215 497 229 533 q 194 360 194 394 q 215 225 201 261 q 315 121 279 136 q 485 121 449 106 q 585 225 571 189 z "},"п":{"ha":853,"x_min":104,"x_max":749,"o":"m 711 722 q 738 711 726 722 l 749 38 q 711 0 726 0 q 633 11 644 0 l 622 603 l 231 38 q 193 0 208 0 q 115 11 126 0 l 104 685 q 142 722 126 722 z "},"р":{"ha":831,"x_min":104,"x_max":763,"o":"m 104 0 m 446 -14 q 308 16 360 -14 l 231 -226 q 193 -264 208 -264 q 115 -253 126 -264 l 104 685 q 142 722 126 722 q 219 711 208 722 l 231 642 q 446 736 361 736 q 665 647 624 690 q 761 406 757 482 q 761 315 763 336 q 665 74 707 117 q 446 -14 511 -14 m 231 421 q 229 366 229 400 q 290 159 235 213 q 576 164 524 106 q 635 400 636 361 q 432 617 524 617 q 231 421 235 511 z "},"с":{"ha":771,"x_min":68,"x_max":710,"o":"m 68 0 m 197 313 q 222 218 203 257 q 328 117 294 129 q 510 131 463 106 q 603 244 593 236 l 671 251 q 708 214 710 229 q 627 67 667 101 q 396 -14 472 -14 q 160 79 201 36 q 71 306 74 239 q 71 417 68 393 q 163 643 122 600 q 396 736 319 736 q 627 655 588 689 q 708 508 707 542 q 671 471 686 471 q 603 478 614 471 q 510 592 557 567 q 327 605 361 617 q 220 504 239 543 q 197 313 193 358 z "},"т":{"ha":724,"x_min":21,"x_max":703,"o":"m 665 722 q 692 711 681 722 l 703 640 q 665 603 681 603 l 425 38 q 388 0 403 0 q 310 11 321 0 l 299 603 q 32 614 43 603 l 21 685 q 58 722 43 722 z "},"у":{"ha":815,"x_min":43,"x_max":781,"o":"m 44 679 q 43 689 43 683 q 76 722 63 722 q 159 711 150 722 l 413 186 q 665 711 656 700 l 747 722 q 781 689 781 703 l 486 56 q 380 -161 410 -115 q 217 -264 272 -264 q 133 -253 144 -264 l 122 -182 q 160 -144 144 -144 q 244 -130 225 -144 q 312 -31 297 -65 l 44 679 z "},"ф":{"ha":1247,"x_min":69,"x_max":1178,"o":"m 365 -14 q 250 9 303 -14 q 98 178 121 117 q 69 360 69 336 q 98 543 75 482 q 250 713 197 690 q 488 708 444 736 l 560 942 q 597 979 582 979 q 676 968 665 979 l 688 642 q 882 736 803 736 q 1088 647 1050 690 q 1176 406 1172 482 q 1176 315 1178 336 q 1088 74 1126 117 q 882 -14 944 -14 q 758 16 781 3 q 688 81 700 64 q 676 -253 688 -242 l 597 -264 q 560 -226 560 -242 q 530 47 547 64 q 436 -6 467 3 m 560 421 q 508 564 556 511 q 248 558 293 617 q 197 322 196 361 q 379 106 288 106 q 560 311 556 213 q 560 421 561 400 m 688 421 q 686 366 686 400 q 741 159 692 213 q 1002 164 960 106 q 1050 400 1051 361 q 868 617 954 617 q 688 421 692 511 z "},"х":{"ha":761,"x_min":40,"x_max":718,"o":"m 40 0 m 378 272 l 182 26 q 138 0 156 0 q 50 10 60 0 q 46 51 40 43 l 60 671 q 64 713 54 703 l 154 722 q 199 696 193 703 l 567 696 q 611 722 593 722 q 699 713 689 722 q 703 671 708 679 l 713 51 q 708 10 718 19 l 618 0 q 574 26 579 19 z "},"ц":{"ha":871,"x_min":104,"x_max":811,"o":"m 608 119 l 608 685 q 646 722 631 722 q 724 711 713 722 l 735 119 q 800 108 789 119 l 811 -115 q 774 -153 789 -153 q 696 -142 707 -153 l 685 0 q 115 11 126 0 l 104 685 q 142 722 126 722 q 219 711 208 722 l 231 119 z "},"ч":{"ha":800,"x_min":51,"x_max":696,"o":"m 178 568 q 228 416 178 464 l 569 368 q 581 711 569 700 l 658 722 q 696 685 696 700 q 685 11 696 22 l 607 0 q 569 38 569 22 l 360 249 q 51 561 51 413 q 63 711 51 700 l 140 722 q 178 685 178 700 z "},"ш":{"ha":1065,"x_min":104,"x_max":961,"o":"m 193 722 q 219 711 208 722 l 231 119 l 469 685 q 507 722 492 722 q 585 711 574 722 l 596 119 l 835 685 q 872 722 857 722 q 950 711 939 722 l 961 38 q 924 0 939 0 q 115 11 126 0 l 104 685 q 142 722 126 722 z "},"щ":{"ha":1097,"x_min":104,"x_max":1038,"o":"m 193 722 q 219 711 208 722 l 231 119 l 469 685 q 507 722 492 722 q 585 711 574 722 l 596 119 l 835 685 q 872 722 857 722 q 950 711 939 722 l 961 119 q 1026 108 1015 119 l 1038 -115 q 1000 -153 1015 -153 q 922 -142 933 -153 l 911 0 q 115 11 126 0 l 104 685 q 142 722 126 722 z "},"ъ":{"ha":818,"x_min":26,"x_max":771,"o":"m 232 0 q 206 11 217 0 l 194 603 q 38 614 49 603 l 26 685 q 64 722 49 722 q 310 711 299 722 l 321 544 q 592 525 538 544 q 749 384 726 435 q 749 160 771 211 q 592 19 647 39 l 232 0 m 646 272 q 631 343 646 314 q 529 417 565 408 l 321 425 l 451 119 q 591 154 565 136 q 646 272 646 231 z "},"ы":{"ha":981,"x_min":104,"x_max":876,"o":"m 142 0 q 115 11 126 0 l 104 685 q 142 722 126 722 q 219 711 208 722 l 231 544 q 502 525 447 544 q 658 384 636 435 q 658 160 681 211 q 502 19 557 39 l 142 0 m 876 38 q 865 11 876 22 l 788 0 q 750 38 750 22 q 761 711 750 700 l 839 722 q 876 685 876 700 m 556 272 q 541 343 556 314 q 439 417 475 408 l 231 425 l 361 119 q 501 154 475 136 q 556 272 556 231 z "},"ь":{"ha":728,"x_min":104,"x_max":681,"o":"m 142 0 q 115 11 126 0 l 104 685 q 142 722 126 722 q 219 711 208 722 l 231 544 q 502 525 447 544 q 658 384 636 435 q 658 160 681 211 q 502 19 557 39 l 142 0 m 556 272 q 541 343 556 314 q 439 417 475 408 l 231 425 l 361 119 q 501 154 475 136 q 556 272 556 231 z "},"э":{"ha":771,"x_min":61,"x_max":703,"o":"m 375 106 q 441 117 408 106 q 547 213 528 175 l 314 303 q 276 340 276 325 q 288 411 276 400 l 572 422 q 501 571 528 547 q 375 617 408 617 q 188 508 214 567 q 142 471 157 471 q 73 482 85 471 q 84 581 64 542 q 241 713 183 689 q 510 711 451 736 q 672 542 649 600 q 702 360 703 393 q 674 181 697 239 q 510 11 569 36 q 241 10 299 -14 q 84 141 104 101 q 73 240 61 229 l 142 251 q 188 214 178 236 q 375 106 308 106 z "},"ю":{"ha":1182,"x_min":104,"x_max":1113,"o":"m 229 38 q 218 11 229 22 l 142 0 q 104 38 104 22 q 115 711 104 700 l 192 722 q 229 685 229 700 l 453 421 q 547 649 506 608 q 782 736 707 736 q 1015 650 974 690 q 1111 426 1106 494 q 1113 360 1113 379 q 1111 296 1113 307 q 1015 72 1057 113 q 782 -14 857 -14 q 547 73 589 32 q 453 301 457 231 l 229 38 m 985 303 q 988 360 988 326 q 967 497 981 461 q 867 601 903 586 q 697 601 733 617 q 597 497 611 533 q 576 360 576 394 q 597 225 583 261 q 697 121 661 136 q 867 121 831 106 q 967 225 953 189 z "},"я":{"ha":775,"x_min":64,"x_max":671,"o":"m 633 722 q 660 711 649 722 l 671 38 q 633 0 649 0 q 556 11 567 0 l 544 235 l 208 26 q 164 0 182 0 q 74 10 83 0 q 69 51 64 43 q 117 332 156 276 q 152 662 78 601 l 633 722 m 203 478 q 244 381 203 407 l 544 354 l 361 603 q 203 478 203 549 z "},"ѐ":{"ha":774,"x_min":64,"x_max":710,"o":"m 64 0 m 446 867 q 453 849 453 860 l 379 826 q 321 850 332 840 q 160 993 160 983 l 289 1021 q 340 994 325 1013 m 71 431 q 101 550 76 494 q 263 713 207 689 q 523 712 464 736 q 688 531 665 596 l 710 347 q 672 310 688 310 l 194 301 q 389 106 307 106 q 565 175 542 149 q 610 194 593 194 q 679 183 667 194 q 665 102 685 132 q 517 3 572 21 q 264 10 319 -14 q 101 177 126 119 q 71 431 64 367 m 194 426 l 585 426 q 531 566 585 515 q 314 603 349 617 q 211 507 226 542 l 194 426 z "},"ё":{"ha":774,"x_min":64,"x_max":710,"o":"m 64 0 m 339 871 q 328 844 339 856 l 222 833 q 185 871 185 856 q 196 976 185 965 l 301 988 q 339 950 339 965 m 590 871 q 579 844 590 856 l 474 833 q 436 871 436 856 q 447 976 436 965 l 553 988 q 590 950 590 965 m 71 431 q 101 550 76 494 q 263 713 207 689 q 523 712 464 736 q 688 531 665 596 l 710 347 q 672 310 688 310 l 194 301 q 389 106 307 106 q 565 175 542 149 q 610 194 593 194 q 679 183 667 194 q 665 102 685 132 q 517 3 572 21 q 264 10 319 -14 q 101 177 126 119 q 71 431 64 367 m 194 426 l 585 426 q 531 566 585 515 q 314 603 349 617 q 211 507 226 542 l 194 426 z "},"ђ":{"ha":843,"x_min":-7,"x_max":746,"o":"m 746 -69 q 692 -250 746 -187 l 490 -312 q 453 -275 453 -290 q 464 -204 453 -215 l 503 -193 q 597 -158 585 -175 q 619 -69 619 -96 q 568 564 619 511 q 284 564 338 617 l 231 38 q 193 0 208 0 q 115 11 126 0 l 104 785 q -7 815 -7 785 q 24 882 -7 882 l 104 949 q 142 986 126 986 q 219 975 208 986 l 231 882 q 342 851 342 882 q 311 785 342 785 l 231 642 q 446 736 361 736 q 662 653 622 693 q 746 425 746 497 z "},"ѓ":{"ha":689,"x_min":104,"x_max":672,"o":"m 104 0 m 635 722 q 661 711 650 722 l 672 640 q 635 603 650 603 l 231 38 q 193 0 208 0 q 115 11 126 0 l 104 685 q 142 722 126 722 m 367 994 q 392 1017 382 1013 l 521 1021 q 540 976 547 983 q 363 833 375 840 l 276 826 q 261 867 254 860 z "},"є":{"ha":771,"x_min":68,"x_max":710,"o":"m 396 106 q 510 131 463 106 q 603 244 593 236 l 671 251 q 708 214 710 229 q 627 67 667 101 q 396 -14 472 -14 q 160 79 201 36 q 71 306 74 239 q 71 417 68 393 q 163 643 122 600 q 396 736 319 736 q 627 655 588 689 q 708 508 707 542 q 671 471 686 471 q 603 478 614 471 q 510 592 557 567 q 330 606 363 617 q 224 510 243 547 l 457 422 q 494 385 494 400 q 483 314 494 325 l 199 303 q 270 151 243 175 q 396 106 363 106 z "},"ѕ":{"ha":703,"x_min":60,"x_max":642,"o":"m 60 0 m 515 200 q 501 244 515 226 q 383 297 428 286 q 120 399 165 344 q 92 607 75 569 q 226 719 175 703 q 463 721 413 736 q 601 631 583 658 q 610 553 622 564 l 538 542 q 496 561 506 549 q 344 617 407 617 q 201 528 201 569 q 249 458 224 469 q 417 413 356 426 q 593 328 567 356 q 642 200 642 236 q 564 51 601 81 q 351 -14 419 -14 q 140 44 178 19 q 61 150 63 125 q 99 188 82 188 q 168 185 157 188 q 250 122 211 139 q 412 113 382 106 q 501 162 488 144 z "},"і":{"ha":335,"x_min":90,"x_max":244,"o":"m 90 0 m 231 38 q 219 11 231 22 l 142 0 q 104 38 104 22 q 115 711 104 700 l 193 722 q 231 685 231 700 m 244 869 q 233 843 244 854 l 128 832 q 90 869 90 854 q 101 975 90 964 l 207 986 q 244 949 244 964 z "},"ї":{"ha":335,"x_min":-35,"x_max":371,"o":"m 0 0 m 231 38 q 219 11 231 22 l 142 0 q 104 38 104 22 q 115 711 104 700 l 193 722 q 231 685 231 700 m 119 871 q 108 844 119 856 l 3 833 q -35 871 -35 856 q -24 976 -35 965 l 82 988 q 119 950 119 965 m 371 871 q 360 844 371 856 l 254 833 q 217 871 217 856 q 228 976 217 965 l 333 988 q 371 950 371 965 z "},"ј":{"ha":347,"x_min":-50,"x_max":257,"o":"m 0 0 m 117 685 q 128 711 117 700 l 206 722 q 243 685 243 700 q 189 -201 243 -139 l -12 -264 q -50 -226 -50 -242 q -39 -156 -50 -167 l 0 -144 q 94 -110 82 -126 q 117 -21 117 -47 m 257 869 q 246 843 257 854 l 140 832 q 103 869 103 854 q 114 975 103 964 l 219 986 q 257 949 257 964 z "},"љ":{"ha":1157,"x_min":25,"x_max":1110,"o":"m 185 685 q 196 711 185 700 l 622 722 q 660 685 660 700 l 810 544 q 1026 470 986 506 q 1110 272 1110 333 q 1026 74 1065 110 q 810 0 876 0 q 544 11 556 0 l 533 603 l 311 240 q 260 57 288 90 q 79 -14 144 -14 q 36 -3 47 -14 l 25 68 q 63 106 47 106 q 164 142 143 106 l 185 685 m 985 272 q 970 343 985 314 q 868 417 904 408 l 660 425 l 790 119 q 930 154 904 136 q 985 272 985 231 z "},"њ":{"ha":1132,"x_min":104,"x_max":1085,"o":"m 508 685 q 519 711 508 700 l 597 722 q 635 685 635 700 l 785 544 q 1001 470 961 506 q 1085 272 1085 333 q 1001 74 1040 110 q 785 0 851 0 q 519 11 531 0 l 508 308 l 231 38 q 193 0 208 0 q 115 10 126 0 l 104 685 q 142 722 126 722 q 219 711 208 722 l 231 428 l 508 685 m 960 272 q 945 343 960 314 q 843 417 879 408 l 635 425 l 765 119 q 905 154 879 136 q 960 272 960 231 z "},"ћ":{"ha":843,"x_min":-7,"x_max":746,"o":"m 746 38 q 735 11 746 22 l 657 0 q 619 38 619 22 q 568 564 619 511 q 284 564 338 617 l 231 38 q 193 0 208 0 q 115 11 126 0 l 104 785 q -7 815 -7 785 q 24 882 -7 882 l 104 949 q 142 986 126 986 q 219 975 208 986 l 231 882 q 342 851 342 882 q 311 785 342 785 l 231 642 q 446 736 361 736 q 662 653 622 693 q 746 425 746 497 z "},"ќ":{"ha":725,"x_min":104,"x_max":706,"o":"m 104 0 m 231 444 l 519 699 q 574 722 554 722 q 664 713 654 722 q 672 676 674 682 l 322 367 q 706 33 706 49 q 672 0 686 0 q 565 8 579 0 l 231 283 q 219 11 231 22 l 142 0 q 104 38 104 22 q 115 711 104 700 l 193 722 q 231 685 231 700 m 393 994 q 419 1017 408 1013 l 547 1021 q 567 976 574 983 q 389 833 401 840 l 303 826 q 288 867 281 860 z "},"ѝ":{"ha":853,"x_min":104,"x_max":749,"o":"m 104 0 m 660 0 q 633 11 644 0 l 622 503 q 188 0 207 0 q 115 11 125 0 l 104 685 q 142 722 126 722 q 219 711 208 722 l 231 215 q 648 718 642 714 l 711 722 q 749 685 749 700 q 738 11 749 22 l 660 0 m 486 867 q 493 849 493 860 l 419 826 q 361 850 372 840 q 200 993 200 983 l 329 1021 q 381 994 365 1013 z "},"ў":{"ha":815,"x_min":43,"x_max":781,"o":"m 43 0 m 44 679 q 43 689 43 683 q 76 722 63 722 q 159 711 150 722 l 413 186 q 665 711 656 700 l 747 722 q 781 689 781 703 l 486 56 q 380 -161 410 -115 q 217 -264 272 -264 q 133 -253 144 -264 l 122 -182 q 160 -144 144 -144 q 244 -130 225 -144 q 312 -31 297 -65 l 44 679 m 413 819 q 335 835 368 819 q 251 931 261 900 q 247 1013 240 1006 l 311 1021 q 338 994 338 1006 q 413 911 376 911 q 488 994 488 958 q 514 1021 501 1021 q 578 1013 571 1021 q 574 931 585 963 q 490 835 522 850 z "},"џ":{"ha":811,"x_min":104,"x_max":707,"o":"m 469 0 l 469 -115 q 432 -153 447 -153 q 354 -142 365 -153 l 343 0 q 115 11 126 0 l 104 685 q 142 722 126 722 q 219 711 208 722 l 231 119 l 581 685 q 618 722 603 722 q 696 711 685 722 l 707 38 q 669 0 685 0 z "},"Ґ":{"ha":778,"x_min":119,"x_max":753,"o":"m 251 847 l 251 38 q 214 0 229 0 q 131 11 142 0 l 119 935 q 157 972 142 972 l 621 1088 q 658 1125 643 1125 q 742 1114 731 1125 l 753 885 q 715 847 731 847 z "},"ґ":{"ha":688,"x_min":104,"x_max":669,"o":"m 543 722 l 543 838 q 581 875 565 875 q 658 864 647 875 l 669 640 q 632 603 647 603 l 231 38 q 193 0 208 0 q 115 11 126 0 l 104 685 q 142 722 126 722 z "},"Ẁ":{"ha":1100,"x_min":56,"x_max":1044,"o":"m 56 0 m 574 757 q 608 742 599 757 l 774 167 q 932 964 919 956 l 1014 972 q 1044 942 1044 954 l 872 72 q 804 0 838 0 q 701 20 717 0 l 550 536 q 399 20 414 40 l 296 0 q 228 72 235 38 q 56 942 56 938 q 86 972 74 972 q 168 964 156 972 l 326 167 q 492 742 482 726 l 574 757 m 608 1082 q 615 1064 615 1075 l 535 1042 q 476 1065 488 1056 q 315 1208 315 1199 l 451 1236 q 503 1210 488 1228 z "},"ẁ":{"ha":1117,"x_min":51,"x_max":1065,"o":"m 51 0 m 783 225 l 939 689 q 986 722 965 722 q 1056 713 1046 722 q 1064 678 1065 683 q 837 11 846 22 l 767 0 q 724 39 731 24 l 393 39 q 350 0 368 0 q 280 11 289 0 l 53 678 q 61 713 51 703 l 131 722 q 178 689 174 700 l 500 689 q 543 722 522 722 q 603 711 594 722 l 783 225 m 614 867 q 621 849 621 860 l 547 826 q 489 850 500 840 q 328 993 328 983 l 457 1021 q 508 994 493 1013 z "},"Ẃ":{"ha":1100,"x_min":56,"x_max":1044,"o":"m 56 0 m 574 757 q 608 742 599 757 l 774 167 q 932 964 919 956 l 1014 972 q 1044 942 1044 954 l 872 72 q 804 0 838 0 q 701 20 717 0 l 550 536 q 399 20 414 40 l 296 0 q 228 72 235 38 q 56 942 56 938 q 86 972 74 972 q 168 964 156 972 l 326 167 q 492 742 482 726 l 574 757 m 596 1210 q 622 1232 611 1228 l 757 1236 q 776 1192 783 1199 q 599 1049 611 1056 l 506 1042 q 490 1082 483 1075 z "},"ẃ":{"ha":1117,"x_min":51,"x_max":1065,"o":"m 51 0 m 783 225 l 939 689 q 986 722 965 722 q 1056 713 1046 722 q 1064 678 1065 683 q 837 11 846 22 l 767 0 q 724 39 731 24 l 393 39 q 350 0 368 0 q 280 11 289 0 l 53 678 q 61 713 51 703 l 131 722 q 178 689 174 700 l 500 689 q 543 722 522 722 q 603 711 594 722 l 783 225 m 604 994 q 630 1017 619 1013 l 758 1021 q 778 976 785 983 q 600 833 613 840 l 514 826 q 499 867 492 860 z "},"Ẅ":{"ha":1100,"x_min":56,"x_max":1044,"o":"m 56 0 m 574 757 q 608 742 599 757 l 774 167 q 932 964 919 956 l 1014 972 q 1044 942 1044 954 l 872 72 q 804 0 838 0 q 701 20 717 0 l 550 536 q 399 20 414 40 l 296 0 q 228 72 235 38 q 56 942 56 938 q 86 972 74 972 q 168 964 156 972 l 326 167 q 492 742 482 726 l 574 757 m 481 1079 q 469 1053 481 1064 l 364 1042 q 326 1079 326 1064 q 338 1185 326 1174 l 443 1196 q 481 1158 481 1174 m 774 1079 q 763 1053 774 1064 l 657 1042 q 619 1079 619 1064 q 631 1185 619 1174 l 736 1196 q 774 1158 774 1174 z "},"ẅ":{"ha":1117,"x_min":51,"x_max":1065,"o":"m 51 0 m 783 225 l 939 689 q 986 722 965 722 q 1056 713 1046 722 q 1064 678 1065 683 q 837 11 846 22 l 767 0 q 724 39 731 24 l 393 39 q 350 0 368 0 q 280 11 289 0 l 53 678 q 61 713 51 703 l 131 722 q 178 689 174 700 l 500 689 q 543 722 522 722 q 603 711 594 722 l 783 225 m 510 871 q 499 844 510 856 l 393 833 q 356 871 356 856 q 367 976 356 965 l 472 988 q 510 950 510 965 m 761 871 q 750 844 761 856 l 644 833 q 607 871 607 856 q 618 976 607 965 l 724 988 q 761 950 761 965 z "},"Ỳ":{"ha":893,"x_min":42,"x_max":851,"o":"m 42 0 m 513 38 q 501 11 513 22 l 418 0 q 381 38 381 22 l 49 922 q 51 963 42 954 l 132 972 q 190 938 183 950 l 703 938 q 761 972 733 972 q 842 963 833 972 q 844 922 851 935 l 513 38 m 506 1082 q 513 1064 513 1075 l 432 1042 q 374 1065 385 1056 q 213 1208 213 1199 l 349 1236 q 400 1210 385 1228 z "},"ỳ":{"ha":774,"x_min":44,"x_max":736,"o":"m 44 0 m 317 -231 q 303 -253 313 -242 l 219 -264 q 186 -231 186 -244 l 321 69 q 44 689 44 683 q 78 722 64 722 q 161 711 151 722 l 389 217 q 619 711 610 700 l 703 722 q 736 689 736 703 l 317 -231 m 450 867 q 457 849 457 860 l 383 826 q 325 850 336 840 q 164 993 164 983 l 293 1021 q 344 994 329 1013 z "},"–":{"ha":799,"x_min":94,"x_max":704,"o":"m 132 357 q 106 368 117 357 l 94 439 q 132 476 117 476 q 693 465 682 476 l 704 394 q 667 357 682 357 z "},"—":{"ha":1071,"x_min":99,"x_max":972,"o":"m 136 357 q 110 368 121 357 l 99 439 q 136 476 121 476 q 961 465 950 476 l 972 394 q 935 357 950 357 z "},"‘":{"ha":335,"x_min":68,"x_max":267,"o":"m 239 768 q 222 731 236 749 l 99 714 q 68 744 68 732 l 142 942 q 201 986 174 986 q 258 977 249 986 l 267 953 z "},"’":{"ha":328,"x_min":78,"x_max":276,"o":"m 106 932 q 123 969 108 951 l 246 986 q 276 956 276 968 l 203 758 q 143 714 171 714 q 87 723 96 714 l 78 747 z "},"‚":{"ha":349,"x_min":65,"x_max":264,"o":"m 93 114 q 110 151 96 133 l 233 168 q 264 138 264 150 l 190 -60 q 131 -104 158 -104 q 74 -95 83 -104 l 65 -71 z "},"“":{"ha":571,"x_min":68,"x_max":503,"o":"m 475 768 q 458 731 472 749 l 335 714 q 304 744 304 732 l 378 942 q 438 986 410 986 q 494 977 485 986 l 503 953 m 239 768 q 222 731 236 749 l 99 714 q 68 744 68 732 l 142 942 q 201 986 174 986 q 258 977 249 986 l 267 953 z "},"”":{"ha":564,"x_min":78,"x_max":513,"o":"m 106 932 q 123 969 108 951 l 246 986 q 276 956 276 968 l 203 758 q 143 714 171 714 q 87 723 96 714 l 78 747 m 342 932 q 359 969 344 951 l 482 986 q 513 956 513 968 l 439 758 q 379 714 407 714 q 323 723 332 714 l 314 747 z "},"„":{"ha":585,"x_min":65,"x_max":500,"o":"m 93 114 q 110 151 96 133 l 233 168 q 264 138 264 150 l 190 -60 q 131 -104 158 -104 q 74 -95 83 -104 l 65 -71 m 329 114 q 347 151 332 133 l 469 168 q 500 138 500 150 l 426 -60 q 367 -104 394 -104 q 310 -95 319 -104 l 301 -71 z "},"†":{"ha":596,"x_min":42,"x_max":554,"o":"m 361 608 l 361 38 q 324 0 339 0 q 246 11 257 0 l 235 608 q 53 619 64 608 l 42 690 q 79 728 64 728 l 235 935 q 272 972 257 972 q 350 961 339 972 l 361 728 q 543 717 532 728 l 554 646 q 517 608 532 608 z "},"‡":{"ha":660,"x_min":74,"x_max":586,"o":"m 393 244 l 393 38 q 356 0 371 0 q 278 11 289 0 l 267 244 q 85 256 96 244 l 74 326 q 111 364 96 364 l 267 622 q 85 633 96 622 l 74 704 q 111 742 96 742 l 267 935 q 304 972 289 972 q 382 961 371 972 l 393 742 q 575 731 564 742 l 586 660 q 549 622 564 622 l 393 364 q 575 353 564 364 l 586 282 q 549 244 564 244 z "},"•":{"ha":528,"x_min":111,"x_max":417,"o":"m 111 417 q 123 476 111 449 q 204 558 176 546 q 324 558 296 569 q 405 476 393 504 q 405 357 417 385 q 324 276 351 288 q 204 276 232 264 q 123 357 135 329 z "},"…":{"ha":874,"x_min":88,"x_max":786,"o":"m 88 0 m 218 168 q 244 157 233 168 l 256 38 q 218 0 233 0 q 99 11 110 0 l 88 131 q 125 168 110 168 m 483 168 q 510 157 499 168 l 521 38 q 483 0 499 0 q 364 11 375 0 l 353 131 q 390 168 375 168 m 749 168 q 775 157 764 168 l 786 38 q 749 0 764 0 q 629 11 640 0 l 618 131 q 656 168 640 168 z "},"‰":{"ha":1563,"x_min":60,"x_max":1511,"o":"m 1307 493 q 1456 438 1406 493 q 1511 267 1511 281 q 1511 215 1511 228 q 1456 47 1506 101 q 1158 47 1208 -7 q 1102 215 1103 203 q 1102 267 1101 253 q 1158 438 1108 383 m 1403 296 q 1378 364 1400 335 q 1236 364 1258 393 q 1209 266 1210 278 q 1209 221 1208 233 q 1236 122 1214 150 q 1378 122 1356 93 q 1404 221 1404 208 q 1404 266 1404 254 m 265 979 q 414 924 364 979 q 469 753 469 767 q 469 701 469 714 q 414 533 464 588 q 117 533 167 479 q 60 701 61 689 q 60 753 60 739 q 117 924 67 869 m 361 782 q 336 850 358 821 q 194 850 217 879 q 167 752 168 764 q 167 707 167 719 q 194 608 172 636 q 336 608 314 579 q 363 707 363 694 q 363 752 363 740 m 842 493 q 990 438 940 493 q 1046 267 1046 281 q 1046 215 1046 228 q 990 47 1040 101 q 693 47 743 -7 q 637 215 638 203 q 637 267 636 253 q 693 438 643 383 m 938 296 q 913 364 935 335 q 771 364 793 393 q 744 266 744 278 q 744 221 743 233 q 771 122 749 150 q 913 122 890 93 q 939 221 939 208 q 939 266 939 254 m 826 946 q 847 965 836 958 l 929 972 q 963 944 963 957 q 957 929 960 933 q 251 7 261 14 l 168 0 q 135 28 135 15 q 140 43 138 39 z "},"‹":{"ha":482,"x_min":63,"x_max":406,"o":"m 63 496 q 82 535 63 518 q 368 806 363 806 q 397 798 388 807 l 406 713 q 381 650 394 664 l 381 264 q 406 201 406 225 q 397 116 406 125 q 368 108 374 107 l 82 379 l 63 496 z "},"›":{"ha":482,"x_min":76,"x_max":419,"o":"m 419 418 q 400 379 419 396 q 114 108 119 108 q 85 116 94 107 l 76 201 q 101 264 88 250 l 101 650 q 76 713 76 689 q 85 798 76 789 q 114 806 108 807 l 400 535 l 419 418 z "},"⁄":{"ha":222,"x_min":-304,"x_max":524,"o":"m 388 946 q 408 965 397 958 l 490 972 q 524 944 524 957 q 518 929 521 933 q -188 7 -178 14 l -271 0 q -304 28 -304 15 q -299 43 -301 39 z "},"⁰":{"ha":511,"x_min":50,"x_max":460,"o":"m 50 479 m 256 979 q 404 924 354 979 q 460 753 460 767 q 460 701 460 714 q 404 533 454 588 q 107 533 157 479 q 51 701 51 689 q 51 753 50 739 q 107 924 57 869 m 351 782 q 326 850 349 821 q 185 850 207 879 q 158 752 158 764 q 158 707 157 719 q 185 608 163 636 q 326 608 304 579 q 353 707 353 694 q 353 752 353 740 z "},"⁴":{"ha":485,"x_min":31,"x_max":451,"o":"m 31 486 m 233 947 q 255 967 244 963 l 342 972 l 372 683 q 451 653 451 683 q 421 583 451 583 l 372 517 l 296 486 l 265 583 q 31 614 31 583 q 33 663 31 651 l 233 947 m 160 683 l 265 683 l 160 683 z "},"⁵":{"ha":471,"x_min":36,"x_max":426,"o":"m 36 479 m 406 903 q 375 872 406 872 l 176 797 q 243 815 217 815 q 426 649 426 724 q 381 534 404 558 q 233 479 283 479 q 83 522 106 504 q 38 599 39 582 q 61 625 54 625 q 138 622 133 625 q 181 587 164 594 q 297 598 274 579 q 297 699 319 683 q 201 711 213 715 q 167 694 172 699 l 93 690 q 63 726 61 711 q 97 960 88 950 l 375 972 l 406 903 z "},"⁶":{"ha":479,"x_min":44,"x_max":444,"o":"m 44 479 m 44 651 q 52 706 44 682 q 94 784 82 769 l 232 951 q 272 972 261 972 q 342 964 333 972 q 346 931 350 938 l 254 819 q 384 779 357 800 q 444 653 444 696 q 391 531 417 554 q 244 479 290 479 q 44 651 44 578 m 151 651 q 174 601 151 622 q 315 601 293 579 q 315 702 338 683 q 174 702 197 721 z "},"⁷":{"ha":413,"x_min":29,"x_max":381,"o":"m 29 486 m 381 906 q 376 875 381 883 q 219 497 226 507 l 147 486 q 119 515 119 503 l 263 872 q 29 903 29 872 q 60 972 29 972 q 381 942 381 972 z "},"⁸":{"ha":494,"x_min":47,"x_max":447,"o":"m 47 479 m 447 629 q 437 576 447 603 q 340 493 378 507 q 155 493 193 479 q 58 576 68 550 q 64 695 47 665 q 77 780 90 753 q 74 888 64 863 q 162 966 126 953 q 333 966 297 979 q 421 888 411 913 q 417 780 431 807 q 431 695 414 725 m 340 632 q 316 676 340 660 q 178 676 203 693 q 181 588 154 604 q 314 588 288 572 m 171 832 q 190 796 171 813 q 304 796 285 779 q 303 869 324 851 q 191 869 211 886 z "},"⁹":{"ha":478,"x_min":33,"x_max":433,"o":"m 33 488 m 433 808 q 426 757 433 781 q 386 682 397 696 l 246 508 q 206 488 217 488 q 136 496 144 488 q 132 529 128 522 l 224 640 q 90 689 117 668 q 33 807 33 769 q 87 929 61 906 q 233 981 188 981 q 433 808 433 882 m 326 808 q 303 859 326 838 q 164 859 185 881 q 165 758 143 776 q 303 758 281 739 z "},"⁽":{"ha":329,"x_min":49,"x_max":292,"o":"m 49 410 m 258 410 q 182 427 219 410 q 67 585 85 522 q 67 890 49 828 q 182 1046 144 1029 q 292 1032 292 1063 q 279 974 292 981 q 212 947 229 960 q 163 842 169 883 q 163 633 156 675 q 212 526 194 539 q 279 499 267 506 l 292 440 z "},"⁾":{"ha":329,"x_min":38,"x_max":281,"o":"m 38 410 m 71 410 q 38 440 38 410 q 50 499 38 492 q 117 526 100 513 q 167 633 160 590 q 167 842 174 800 q 117 947 135 935 q 50 974 63 967 l 38 1032 q 147 1046 110 1063 q 263 890 244 953 q 263 585 281 647 q 147 427 185 444 z "},"₀":{"ha":511,"x_min":50,"x_max":460,"o":"m 256 257 q 404 202 354 257 q 460 31 460 44 q 460 -21 460 -8 q 404 -189 454 -135 q 107 -189 157 -243 q 51 -21 51 -33 q 51 31 50 17 q 107 202 57 147 m 351 60 q 326 128 349 99 q 185 128 207 157 q 158 30 158 42 q 158 -15 157 -3 q 185 -115 163 -86 q 326 -115 304 -143 q 353 -15 353 -28 q 353 30 353 18 z "},"₁":{"ha":344,"x_min":19,"x_max":281,"o":"m 281 -206 q 250 -236 281 -236 q 174 -206 174 -236 l 97 47 q 54 54 63 43 q 21 110 19 99 l 182 240 l 250 250 l 281 -206 z "},"₂":{"ha":481,"x_min":39,"x_max":439,"o":"m 39 -172 q 44 -150 39 -161 q 183 -51 136 -82 q 299 53 286 31 q 297 140 313 124 q 188 141 204 157 q 150 94 157 99 l 85 89 q 75 163 63 138 q 165 243 132 229 q 313 244 279 257 q 405 162 392 190 q 408 38 418 67 q 315 -73 351 -44 l 408 -136 l 439 -206 l 69 -236 l 39 -172 z "},"₃":{"ha":478,"x_min":32,"x_max":429,"o":"m 413 190 q 409 165 413 175 l 306 51 q 429 -87 429 -29 q 235 -243 333 -243 q 35 -126 42 -175 q 58 -100 51 -100 q 154 -117 142 -100 q 233 -143 197 -143 q 301 -49 322 -62 l 174 -36 l 143 17 q 160 50 153 43 l 94 150 l 64 219 l 382 250 l 413 190 z "},"₄":{"ha":485,"x_min":31,"x_max":451,"o":"m 233 225 q 255 245 244 240 l 342 250 l 372 -39 q 451 -69 451 -39 q 421 -139 451 -139 l 372 -206 l 296 -236 l 265 -139 q 31 -108 31 -139 q 33 -60 31 -71 l 233 225 m 160 -39 l 265 -39 l 160 -39 z "},"₅":{"ha":471,"x_min":36,"x_max":426,"o":"m 406 181 q 375 150 406 150 l 176 75 q 243 93 217 93 q 426 -74 426 1 q 381 -188 404 -164 q 233 -243 283 -243 q 83 -200 106 -218 q 38 -124 39 -140 q 61 -97 54 -97 q 138 -101 133 -97 q 181 -135 164 -128 q 297 -124 274 -143 q 297 -23 319 -39 q 201 -11 213 -7 q 167 -28 172 -24 l 93 -32 q 63 4 61 -11 q 97 238 88 228 l 375 250 l 406 181 z "},"₆":{"ha":479,"x_min":44,"x_max":444,"o":"m 44 -71 q 52 -16 44 -40 q 94 62 82 47 l 232 229 q 272 250 261 250 q 342 242 333 250 q 346 208 350 215 l 254 97 q 384 57 357 78 q 444 -69 444 -26 q 391 -192 417 -168 q 244 -243 290 -243 q 44 -71 44 -144 m 151 -71 q 174 -122 151 -100 q 315 -122 293 -143 q 315 -20 338 -39 q 174 -20 197 -1 z "},"₇":{"ha":413,"x_min":29,"x_max":381,"o":"m 381 183 q 376 153 381 161 q 219 -226 226 -215 l 147 -236 q 119 -207 119 -219 l 263 150 q 29 181 29 150 q 60 250 29 250 q 381 219 381 250 z "},"₈":{"ha":494,"x_min":47,"x_max":447,"o":"m 447 -93 q 437 -146 447 -119 q 340 -229 378 -215 q 155 -229 193 -243 q 58 -146 68 -172 q 64 -27 47 -57 q 77 58 90 31 q 74 165 64 140 q 162 244 126 231 q 333 244 297 257 q 421 165 411 190 q 417 58 431 85 q 431 -27 414 3 m 340 -90 q 316 -46 340 -62 q 178 -46 203 -29 q 181 -134 154 -118 q 314 -134 288 -150 m 171 110 q 190 74 171 90 q 304 74 285 57 q 303 147 324 129 q 191 147 211 164 z "},"₉":{"ha":478,"x_min":33,"x_max":433,"o":"m 433 85 q 426 33 433 57 q 386 -42 397 -28 l 246 -215 q 206 -236 217 -236 q 136 -228 144 -236 q 132 -194 128 -201 l 224 -83 q 90 -35 117 -56 q 33 83 33 46 q 87 206 61 182 q 233 257 188 257 q 433 85 433 158 m 326 85 q 303 135 326 114 q 164 135 185 157 q 165 34 143 53 q 303 34 281 15 z "},"₍":{"ha":329,"x_min":49,"x_max":292,"o":"m 258 -312 q 182 -295 219 -312 q 67 -137 85 -200 q 67 168 49 106 q 182 324 144 307 q 292 310 292 340 q 279 251 292 258 q 212 225 229 238 q 163 119 169 161 q 163 -90 156 -47 q 212 -197 194 -183 q 279 -224 267 -217 l 292 -282 z "},"₎":{"ha":329,"x_min":38,"x_max":281,"o":"m 71 -312 q 38 -282 38 -312 q 50 -224 38 -231 q 117 -197 100 -210 q 167 -90 160 -132 q 167 119 174 78 q 117 225 135 213 q 50 251 63 244 l 38 310 q 147 324 110 340 q 263 168 244 231 q 263 -137 281 -75 q 147 -295 185 -278 z "},"₪":{"ha":1117,"x_min":97,"x_max":1026,"o":"m 633 447 q 572 613 633 551 l 224 674 q 213 11 224 22 l 135 0 q 97 38 97 22 q 108 782 97 771 l 414 793 q 760 454 760 613 q 749 233 760 244 l 671 222 q 633 260 633 244 m 900 756 q 911 782 900 771 l 989 793 q 1026 756 1026 771 q 940 90 1026 181 l 401 0 q 364 38 364 22 q 375 561 364 550 l 453 572 q 490 535 490 550 l 674 119 q 900 346 900 242 z "},"€":{"ha":1036,"x_min":60,"x_max":961,"o":"m 571 -14 q 297 79 399 -14 l 90 340 l 60 407 l 178 438 l 90 535 l 60 601 l 182 632 q 571 986 399 986 q 866 881 818 925 q 961 693 961 735 q 931 663 943 663 q 844 670 856 663 q 797 754 817 724 q 669 847 713 832 q 389 799 454 861 l 599 632 l 629 565 l 310 535 l 599 438 l 629 371 l 314 340 q 571 111 454 111 q 755 160 724 138 q 831 279 822 244 q 867 310 856 310 q 952 301 943 310 q 939 182 961 233 q 749 15 824 43 z "},"₽":{"ha":964,"x_min":68,"x_max":929,"o":"m 207 503 l 207 935 q 244 972 229 972 q 723 955 663 972 q 902 810 875 865 q 902 545 929 601 q 723 396 783 414 l 339 378 l 640 308 l 671 214 l 339 183 q 328 11 339 22 l 244 0 q 207 38 207 22 l 99 183 l 68 278 l 207 308 l 99 378 l 68 472 l 207 503 m 339 503 l 588 503 q 797 678 797 589 q 588 847 688 847 l 339 503 z "},"№":{"ha":1628,"x_min":103,"x_max":1556,"o":"m 897 482 q 921 622 897 558 q 1091 803 1031 778 q 1362 803 1301 828 q 1532 622 1508 686 q 1532 342 1556 406 q 1362 161 1422 186 q 1091 161 1151 136 q 921 342 944 278 m 1429 482 q 1414 583 1429 540 q 1307 694 1344 681 q 1146 694 1183 708 q 1039 583 1054 625 q 1039 381 1024 424 q 1146 269 1108 283 q 1307 269 1269 256 q 1414 381 1399 339 m 1518 94 q 1544 83 1533 94 l 1556 38 q 1518 0 1533 0 q 908 11 919 0 l 897 57 q 935 94 919 94 m 742 0 q 709 13 722 0 l 235 721 q 224 11 235 22 l 140 0 q 103 38 103 22 q 114 961 103 950 l 189 972 q 244 931 235 946 l 696 935 q 733 972 718 972 q 817 961 806 972 l 828 38 q 790 0 806 0 z "},"™":{"ha":881,"x_min":64,"x_max":778,"o":"m 64 942 q 94 972 64 972 q 364 942 364 972 q 333 881 364 881 l 261 633 l 197 603 l 167 881 q 64 911 64 881 m 778 633 q 747 603 778 603 q 683 633 683 603 l 640 719 q 604 692 619 692 q 557 700 564 692 l 500 800 q 469 603 500 603 q 406 633 406 603 q 436 972 406 972 q 497 961 488 972 l 592 807 q 686 961 676 950 l 747 972 l 778 633 z "},"℮":{"ha":861,"x_min":78,"x_max":792,"o":"m 81 493 q 109 622 83 558 q 290 817 225 786 q 588 814 521 847 q 768 594 744 668 l 792 401 q 754 364 769 364 l 206 356 q 265 178 236 213 q 435 106 378 106 q 640 200 615 161 q 685 219 668 219 q 754 208 742 219 q 741 122 760 156 q 583 7 643 28 q 290 18 354 -14 q 109 217 135 153 q 78 421 78 390 m 206 481 l 667 481 q 651 582 667 538 q 534 710 578 692 q 338 710 381 728 q 222 583 238 628 l 206 481 z "},"⅓":{"ha":1067,"x_min":53,"x_max":1003,"o":"m 53 0 m 763 946 q 783 965 772 958 l 865 972 q 899 944 899 957 q 893 929 896 933 q 187 7 197 14 l 104 0 q 71 28 71 15 q 76 43 74 39 m 314 517 q 283 486 314 486 q 207 517 207 486 l 131 769 q 88 776 96 765 q 54 833 53 821 l 215 963 l 283 972 l 314 517 m 986 426 q 983 401 986 411 l 879 288 q 1003 149 1003 207 q 808 -7 907 -7 q 608 110 615 61 q 632 136 625 136 q 728 119 715 136 q 807 93 771 93 q 874 187 896 174 l 747 200 l 717 253 q 733 286 726 279 l 668 386 l 638 456 l 956 486 l 986 426 z "},"⅔":{"ha":1204,"x_min":60,"x_max":1142,"o":"m 60 0 m 901 946 q 922 965 911 958 l 1004 972 q 1038 944 1038 957 q 1032 929 1035 933 q 326 7 336 14 l 243 0 q 210 28 210 15 q 215 43 213 39 m 60 550 q 65 572 60 561 q 203 671 157 640 q 320 775 307 753 q 317 863 333 846 q 208 863 225 879 q 171 816 178 821 l 106 811 q 96 885 83 860 q 185 965 153 951 q 333 967 300 979 q 426 884 413 913 q 428 760 439 789 q 335 649 372 678 l 429 586 l 460 517 l 90 486 l 60 550 m 1125 426 q 1122 401 1125 411 l 1018 288 q 1142 149 1142 207 q 947 -7 1046 -7 q 747 110 754 61 q 771 136 764 136 q 867 119 854 136 q 946 93 910 93 q 1013 187 1035 174 l 886 200 l 856 253 q 872 286 865 279 l 807 386 l 776 456 l 1094 486 l 1125 426 z "},"⅛":{"ha":1064,"x_min":53,"x_max":1007,"o":"m 53 0 m 763 946 q 783 965 772 958 l 865 972 q 899 944 899 957 q 893 929 896 933 q 187 7 197 14 l 104 0 q 71 28 71 15 q 76 43 74 39 m 314 517 q 283 486 314 486 q 207 517 207 486 l 131 769 q 88 776 96 765 q 54 833 53 821 l 215 963 l 283 972 l 314 517 m 1007 143 q 997 90 1007 117 q 899 7 938 21 q 715 7 753 -7 q 617 90 628 64 q 624 209 607 179 q 637 294 650 267 q 633 401 624 376 q 722 480 686 467 q 892 480 857 493 q 981 401 971 426 q 977 294 990 321 q 990 209 974 239 m 900 146 q 876 190 900 174 q 738 190 763 207 q 740 102 714 118 q 874 102 847 86 m 731 346 q 750 310 731 326 q 864 310 844 293 q 863 383 883 365 q 751 383 771 400 z "},"⅜":{"ha":1168,"x_min":50,"x_max":1113,"o":"m 50 0 m 868 946 q 888 965 878 958 l 971 972 q 1004 944 1004 957 q 999 929 1001 933 q 292 7 303 14 l 210 0 q 176 28 176 15 q 182 43 179 39 m 431 913 q 427 887 431 897 l 324 774 q 447 635 447 693 q 253 479 351 479 q 53 596 60 547 q 76 622 69 622 q 172 606 160 622 q 251 579 215 579 q 319 673 340 660 l 192 686 l 161 739 q 178 772 171 765 l 113 872 l 82 942 l 400 972 l 431 913 m 1113 143 q 1102 90 1113 117 q 1005 7 1043 21 q 820 7 858 -7 q 723 90 733 64 q 729 209 713 179 q 742 294 756 267 q 739 401 729 376 q 827 480 792 467 q 998 480 963 493 q 1086 401 1076 426 q 1083 294 1096 321 q 1096 209 1079 239 m 1006 146 q 981 190 1006 174 q 844 190 868 207 q 846 102 819 118 q 979 102 953 86 m 836 346 q 856 310 836 326 q 969 310 950 293 q 969 383 989 365 q 856 383 876 400 z "},"⅝":{"ha":1142,"x_min":53,"x_max":1086,"o":"m 53 0 m 842 946 q 862 965 851 958 l 944 972 q 978 944 978 957 q 972 929 975 933 q 266 7 276 14 l 183 0 q 150 28 150 15 q 156 43 153 39 m 422 903 q 392 872 422 872 l 193 797 q 260 815 233 815 q 443 649 443 724 q 397 534 421 558 q 250 479 300 479 q 99 522 122 504 q 54 599 56 582 q 78 625 71 625 q 155 622 150 625 q 198 587 181 594 q 313 598 290 579 q 313 699 336 683 q 217 711 229 715 q 183 694 189 699 l 110 690 q 79 726 78 711 q 113 960 104 950 l 392 972 l 422 903 m 1086 143 q 1076 90 1086 117 q 978 7 1017 21 q 794 7 832 -7 q 697 90 707 64 q 703 209 686 179 q 716 294 729 267 q 713 401 703 376 q 801 480 765 467 q 972 480 936 493 q 1060 401 1050 426 q 1056 294 1069 321 q 1069 209 1053 239 m 979 146 q 955 190 979 174 q 817 190 842 207 q 819 102 793 118 q 953 102 926 86 m 810 346 q 829 310 810 326 q 943 310 924 293 q 942 383 963 365 q 830 383 850 400 z "},"⅞":{"ha":1061,"x_min":63,"x_max":1006,"o":"m 63 0 m 761 946 q 781 965 771 958 l 864 972 q 897 944 897 957 q 892 929 894 933 q 185 7 196 14 l 103 0 q 69 28 69 15 q 75 43 72 39 m 414 906 q 410 875 414 883 q 252 497 260 507 l 181 486 q 153 515 153 503 l 296 872 q 63 903 63 872 q 93 972 63 972 q 414 942 414 972 m 1006 143 q 995 90 1006 117 q 898 7 936 21 q 713 7 751 -7 q 616 90 626 64 q 622 209 606 179 q 635 294 649 267 q 632 401 622 376 q 720 480 685 467 q 891 480 856 493 q 979 401 969 426 q 976 294 989 321 q 989 209 972 239 m 899 146 q 874 190 899 174 q 737 190 761 207 q 739 102 713 118 q 872 102 846 86 m 729 346 q 749 310 729 326 q 863 310 843 293 q 862 383 882 365 q 749 383 769 400 z "},"∂":{"ha":778,"x_min":68,"x_max":704,"o":"m 386 653 q 466 644 428 653 q 445 772 506 704 q 275 932 279 925 q 299 972 271 972 q 399 967 388 972 q 540 840 488 896 q 685 547 667 642 q 681 184 704 246 q 514 10 572 35 q 258 10 317 -14 q 92 184 115 122 q 92 460 68 399 q 258 631 200 608 m 386 533 q 242 474 289 533 q 242 165 194 224 q 531 165 483 106 q 531 474 578 415 z "},"∆":{"ha":878,"x_min":42,"x_max":836,"o":"m 828 142 q 833 126 831 133 l 836 38 q 799 0 814 0 q 53 11 64 0 l 42 100 q 50 142 47 133 q 374 901 360 886 l 463 917 q 525 871 518 886 m 697 119 l 439 743 l 697 119 z "},"∏":{"ha":856,"x_min":104,"x_max":751,"o":"m 231 853 l 231 -240 q 193 -278 208 -278 q 115 -267 126 -278 l 104 935 q 142 972 126 972 q 740 961 729 972 l 751 -240 q 714 -278 729 -278 q 636 -267 647 -278 l 625 853 z "},"∑":{"ha":757,"x_min":56,"x_max":678,"o":"m 640 -158 q 667 -169 656 -158 l 678 -240 q 640 -278 656 -278 q 67 -267 78 -278 l 56 -196 l 543 347 q 56 890 56 865 q 67 961 56 950 l 640 972 q 678 935 678 950 q 667 864 678 875 l 238 853 q 667 395 657 407 l 678 328 q 643 272 657 288 l 640 -158 z "},"−":{"ha":903,"x_min":99,"x_max":804,"o":"m 136 357 q 110 368 121 357 l 99 439 q 136 476 121 476 q 793 465 782 476 l 804 394 q 767 357 782 357 z "},"√":{"ha":969,"x_min":31,"x_max":949,"o":"m 911 1194 q 938 1183 926 1194 l 949 1113 q 911 1075 926 1075 l 436 35 q 390 0 411 0 q 272 10 282 0 l 32 679 q 40 713 31 703 l 114 722 q 160 689 156 700 l 638 1161 q 683 1194 663 1194 z "},"∞":{"ha":1196,"x_min":79,"x_max":1118,"o":"m 599 518 q 641 586 618 556 q 763 672 725 660 q 977 659 926 685 q 1104 492 1090 547 q 1104 261 1118 317 q 977 94 1028 119 q 763 81 801 68 q 641 167 664 136 q 556 167 579 197 q 434 81 472 93 q 219 94 271 68 q 92 261 106 206 q 92 492 79 436 q 219 659 168 633 q 434 672 396 685 q 556 586 533 617 m 851 188 q 898 196 874 188 q 978 283 964 246 q 978 470 992 433 q 898 557 922 549 q 790 551 815 565 q 706 451 725 486 q 706 301 688 336 q 790 202 765 217 m 346 188 q 406 202 381 188 q 491 301 472 267 q 491 451 510 417 q 406 551 432 536 q 299 557 324 565 q 219 470 233 507 q 219 283 206 319 q 299 196 275 204 z "},"∫":{"ha":626,"x_min":22,"x_max":604,"o":"m 250 792 q 304 969 250 910 l 567 1028 q 604 990 604 1006 q 593 919 604 931 l 493 908 q 399 874 411 890 q 376 785 376 811 q 322 -253 376 -194 l 60 -312 q 22 -275 22 -290 q 33 -204 22 -215 l 133 -193 q 228 -158 215 -175 q 250 -69 250 -96 z "},"≈":{"ha":779,"x_min":99,"x_max":682,"o":"m 244 675 q 329 667 296 675 q 451 633 419 640 q 588 636 563 625 q 635 665 629 661 q 676 658 671 669 l 682 599 q 529 506 600 506 q 383 531 411 521 q 243 556 292 556 q 157 524 168 533 q 129 511 139 513 q 99 549 99 533 q 136 647 99 618 m 244 326 q 329 319 296 326 q 451 284 419 292 q 588 288 563 276 q 635 316 629 313 q 676 310 671 321 l 682 250 q 529 157 600 157 q 383 182 411 172 q 243 207 292 207 q 157 175 168 185 q 129 163 139 164 q 99 200 99 185 q 136 298 99 269 z "},"≠":{"ha":763,"x_min":88,"x_max":683,"o":"m 221 183 l 125 183 q 88 221 88 206 q 99 292 88 281 l 269 303 l 125 531 q 88 568 88 553 q 99 639 88 628 l 414 650 q 482 792 468 779 l 568 806 q 599 775 599 788 l 549 650 q 672 639 661 650 l 683 568 q 646 531 661 531 l 403 303 q 672 292 661 303 l 683 221 q 646 183 661 183 l 306 71 q 244 29 272 29 q 181 38 190 29 q 175 72 172 65 z "},"≤":{"ha":733,"x_min":88,"x_max":631,"o":"m 88 585 q 128 643 88 624 q 596 855 593 854 q 622 847 614 856 l 631 772 l 242 556 q 631 339 631 382 q 622 264 631 272 q 596 256 599 256 l 128 468 l 88 585 m 125 0 q 99 11 110 0 l 88 82 q 125 119 110 119 q 619 108 608 119 l 631 38 q 593 0 608 0 z "},"≥":{"ha":733,"x_min":103,"x_max":646,"o":"m 140 0 q 114 11 125 0 l 103 82 q 140 119 125 119 q 635 108 624 119 l 646 38 q 608 0 624 0 m 646 526 q 606 468 646 488 q 138 256 140 257 q 111 264 119 256 l 103 339 l 492 556 q 103 772 103 729 q 111 847 103 839 q 138 855 135 856 l 606 643 l 646 526 z "},"◊":{"ha":756,"x_min":58,"x_max":697,"o":"m 58 493 q 62 514 58 504 l 286 940 q 356 986 328 986 q 445 971 428 986 l 686 532 q 697 493 697 504 q 686 454 690 463 q 445 15 463 31 l 356 0 q 286 46 293 31 q 62 472 65 463 m 378 851 l 190 493 l 565 493 z "},"":{"ha":379,"x_min":93,"x_max":285,"o":"m 122 -124 q 140 -87 125 -104 l 254 -69 q 285 -100 285 -87 l 208 -303 q 149 -347 176 -347 q 102 -338 111 -347 l 93 -314 z "},"":{"ha":467,"x_min":76,"x_max":376,"o":"m 189 1210 q 215 1232 204 1228 l 350 1236 q 369 1192 376 1199 q 192 1049 204 1056 l 99 1042 q 83 1082 76 1075 z "},"":{"ha":594,"x_min":90,"x_max":504,"o":"m 276 1042 q 250 1047 261 1042 l 97 1196 q 113 1236 90 1236 q 171 1233 163 1236 l 297 1150 q 424 1233 415 1229 l 482 1236 q 497 1196 504 1203 q 344 1047 356 1053 l 276 1042 z "},"":{"ha":628,"x_min":90,"x_max":538,"o":"m 244 1079 q 233 1053 244 1064 l 128 1042 q 90 1079 90 1064 q 101 1185 90 1174 l 207 1196 q 244 1158 244 1174 m 538 1079 q 526 1053 538 1064 l 421 1042 q 383 1079 383 1064 q 394 1185 383 1174 l 500 1196 q 538 1158 538 1174 z "},"":{"ha":467,"x_min":76,"x_max":376,"o":"m 369 1082 q 376 1064 376 1075 l 296 1042 q 238 1065 249 1056 q 76 1208 76 1199 l 213 1236 q 264 1210 249 1228 z "},"":{"ha":678,"x_min":90,"x_max":588,"o":"m 153 1210 q 171 1230 160 1224 l 307 1236 q 326 1192 335 1200 q 158 1042 189 1042 q 90 1064 90 1042 q 97 1085 94 1081 m 406 1210 q 424 1230 413 1224 l 560 1236 q 579 1192 588 1200 q 411 1042 442 1042 q 343 1064 343 1042 q 350 1085 347 1081 z "},"":{"ha":574,"x_min":90,"x_max":483,"o":"m 128 1042 q 101 1053 113 1042 l 90 1129 q 128 1167 113 1167 q 472 1156 461 1167 l 483 1079 q 446 1042 461 1042 z "},"ﬀ":{"ha":961,"x_min":26,"x_max":954,"o":"m 307 38 q 296 11 307 22 l 218 0 q 181 38 181 22 l 64 603 q 26 640 26 625 q 38 711 26 700 l 181 722 q 235 969 181 910 l 497 1028 q 535 990 535 1006 q 524 919 535 931 l 424 908 q 329 874 342 890 q 307 785 307 811 l 600 722 q 654 969 600 910 l 917 1028 q 954 990 954 1006 q 943 919 954 931 l 843 908 q 749 874 761 890 q 726 785 726 811 l 903 722 q 940 685 940 700 q 929 614 940 625 l 726 603 q 715 11 726 22 l 638 0 q 600 38 600 22 l 307 603 z "},"ﬁ":{"ha":788,"x_min":26,"x_max":683,"o":"m 683 38 q 672 11 683 22 l 594 0 q 557 38 557 22 l 306 603 q 294 11 306 22 l 217 0 q 179 38 179 22 l 64 603 q 26 640 26 625 q 38 711 26 700 l 179 722 q 233 969 179 910 l 646 1028 q 683 990 683 1006 q 672 919 683 931 l 422 908 q 328 874 340 890 q 306 785 306 811 l 646 722 q 683 685 683 700 z "},"ﬂ":{"ha":831,"x_min":26,"x_max":726,"o":"m 726 38 q 715 11 726 22 l 638 0 q 600 38 600 22 l 307 603 q 296 11 307 22 l 218 0 q 181 38 181 22 l 64 603 q 26 640 26 625 q 38 711 26 700 l 181 722 q 235 969 181 910 l 497 1028 q 535 990 535 1006 q 524 919 535 931 l 424 908 q 329 874 342 890 q 307 785 307 811 l 600 722 q 611 1017 600 1006 l 689 1028 q 726 990 726 1006 z "}}}
